<svg width="213" height="145" viewBox="0 0 213 145" fill="none" xmlns="http://www.w3.org/2000/svg">
<path d="M58.3 144.107C48.7 144.107 40.3667 142.774 33.3 140.107C26.2333 137.307 20.3667 133.507 15.7 128.707C11.1667 123.907 7.7 118.307 5.3 111.907C2.9 105.507 1.5 98.6408 1.1 91.3074C0.966667 87.7074 0.833334 83.6408 0.700001 79.1074C0.700001 74.4408 0.700001 69.7741 0.700001 65.1074C0.833334 60.3074 0.966667 56.0407 1.1 52.3074C1.5 44.9741 2.9 38.1741 5.3 31.9074C7.83333 25.5074 11.4333 19.9741 16.1 15.3074C20.9 10.5074 26.7667 6.77408 33.7 4.10741C40.7667 1.44075 48.9667 0.107414 58.3 0.107414C67.7667 0.107414 75.9667 1.44075 82.9 4.10741C89.8333 6.77408 95.6333 10.5074 100.3 15.3074C105.1 19.9741 108.767 25.5074 111.3 31.9074C113.833 38.1741 115.233 44.9741 115.5 52.3074C115.767 56.0407 115.9 60.3074 115.9 65.1074C116.033 69.7741 116.033 74.4408 115.9 79.1074C115.9 83.6408 115.767 87.7074 115.5 91.3074C115.233 98.6408 113.833 105.507 111.3 111.907C108.9 118.307 105.367 123.907 100.7 128.707C96.1667 133.507 90.3667 137.307 83.3 140.107C76.3667 142.774 68.0333 144.107 58.3 144.107ZM58.3 115.107C65.2333 115.107 70.2333 112.907 73.3 108.507C76.5 103.974 78.1667 97.9074 78.3 90.3074C78.5667 86.4408 78.7 82.3741 78.7 78.1074C78.8333 73.8407 78.8333 69.5741 78.7 65.3074C78.7 61.0408 78.5667 57.1074 78.3 53.5074C78.1667 46.1741 76.5 40.2408 73.3 35.7074C70.2333 31.1741 65.2333 28.8407 58.3 28.7074C51.3667 28.8407 46.3667 31.1741 43.3 35.7074C40.2333 40.2408 38.5667 46.1741 38.3 53.5074C38.1667 57.1074 38.0333 61.0408 37.9 65.3074C37.9 69.5741 37.9 73.8407 37.9 78.1074C38.0333 82.3741 38.1667 86.4408 38.3 90.3074C38.5667 97.9074 40.3 103.974 43.5 108.507C46.7 112.907 51.6333 115.107 58.3 115.107ZM181.838 142.107C180.504 142.107 179.304 141.641 178.238 140.707C177.304 139.774 176.838 138.574 176.838 137.107V41.9074L149.438 62.9074C148.238 63.8407 146.971 64.1741 145.638 63.9074C144.438 63.6408 143.371 62.9074 142.438 61.7074L130.638 46.3074C129.838 45.1074 129.504 43.8407 129.638 42.5074C129.904 41.0408 130.704 39.9074 132.038 39.1074L178.038 3.50742C178.838 2.97408 179.571 2.64075 180.238 2.50742C181.038 2.24075 181.904 2.10741 182.838 2.10741H207.838C209.171 2.10741 210.304 2.57408 211.238 3.50742C212.304 4.44075 212.838 5.64075 212.838 7.10742V137.107C212.838 138.574 212.304 139.774 211.238 140.707C210.304 141.641 209.171 142.107 207.838 142.107H181.838Z" fill="url(#paint0_linear_398_2571)" fill-opacity="0.15"/>
<defs>
<linearGradient id="paint0_linear_398_2571" x1="108.5" y1="-44.8926" x2="108.5" y2="192.107" gradientUnits="userSpaceOnUse">
<stop stop-color="#7460ED"/>
<stop offset="1" stop-color="#FBFBFB"/>
</linearGradient>
</defs>
</svg>
