<svg width="248" height="146" viewBox="0 0 248 146" fill="none" xmlns="http://www.w3.org/2000/svg">
<path d="M58.3 145.107C48.7 145.107 40.3667 143.774 33.3 141.107C26.2333 138.307 20.3667 134.507 15.7 129.707C11.1667 124.907 7.7 119.307 5.3 112.907C2.9 106.507 1.5 99.6408 1.1 92.3074C0.966667 88.7074 0.833334 84.6408 0.700001 80.1074C0.700001 75.4408 0.700001 70.7741 0.700001 66.1074C0.833334 61.3074 0.966667 57.0407 1.1 53.3074C1.5 45.9741 2.9 39.1741 5.3 32.9074C7.83333 26.5074 11.4333 20.9741 16.1 16.3074C20.9 11.5074 26.7667 7.77408 33.7 5.10741C40.7667 2.44075 48.9667 1.10741 58.3 1.10741C67.7667 1.10741 75.9667 2.44075 82.9 5.10741C89.8333 7.77408 95.6333 11.5074 100.3 16.3074C105.1 20.9741 108.767 26.5074 111.3 32.9074C113.833 39.1741 115.233 45.9741 115.5 53.3074C115.767 57.0407 115.9 61.3074 115.9 66.1074C116.033 70.7741 116.033 75.4408 115.9 80.1074C115.9 84.6408 115.767 88.7074 115.5 92.3074C115.233 99.6408 113.833 106.507 111.3 112.907C108.9 119.307 105.367 124.907 100.7 129.707C96.1667 134.507 90.3667 138.307 83.3 141.107C76.3667 143.774 68.0333 145.107 58.3 145.107ZM58.3 116.107C65.2333 116.107 70.2333 113.907 73.3 109.507C76.5 104.974 78.1667 98.9074 78.3 91.3074C78.5667 87.4408 78.7 83.3741 78.7 79.1074C78.8333 74.8407 78.8333 70.5741 78.7 66.3074C78.7 62.0408 78.5667 58.1074 78.3 54.5074C78.1667 47.1741 76.5 41.2408 73.3 36.7074C70.2333 32.1741 65.2333 29.8407 58.3 29.7074C51.3667 29.8407 46.3667 32.1741 43.3 36.7074C40.2333 41.2408 38.5667 47.1741 38.3 54.5074C38.1667 58.1074 38.0333 62.0408 37.9 66.3074C37.9 70.5741 37.9 74.8407 37.9 79.1074C38.0333 83.3741 38.1667 87.4408 38.3 91.3074C38.5667 98.9074 40.3 104.974 43.5 109.507C46.7 113.907 51.6333 116.107 58.3 116.107ZM139.838 143.107C138.371 143.107 137.104 142.641 136.038 141.707C135.104 140.774 134.638 139.574 134.638 138.107V123.907C134.638 122.974 134.904 121.574 135.438 119.707C135.971 117.707 137.371 115.841 139.637 114.107L160.438 93.7074C171.104 85.5741 179.838 78.7074 186.638 73.1074C193.571 67.3741 198.704 62.3074 202.038 57.9074C205.371 53.5074 207.038 49.3741 207.038 45.5074C207.038 40.9741 205.838 37.2408 203.438 34.3074C201.171 31.2407 197.171 29.7074 191.438 29.7074C187.571 29.7074 184.304 30.5741 181.638 32.3074C179.104 33.9074 177.171 36.0407 175.838 38.7074C174.504 41.3741 173.571 44.1074 173.038 46.9074C172.504 48.6407 171.571 49.8407 170.238 50.5074C169.038 51.1741 167.704 51.5074 166.238 51.5074H141.238C140.038 51.5074 139.038 51.1074 138.238 50.3074C137.438 49.5074 137.038 48.5074 137.038 47.3074C137.171 40.9074 138.504 34.9074 141.038 29.3074C143.704 23.7074 147.371 18.7741 152.038 14.5074C156.838 10.1074 162.504 6.70741 169.038 4.30742C175.704 1.90742 183.171 0.707419 191.438 0.707419C202.771 0.707419 212.371 2.50742 220.238 6.10741C228.238 9.70741 234.304 14.7741 238.438 21.3074C242.571 27.7074 244.638 35.2407 244.638 43.9074C244.638 50.4408 243.171 56.5741 240.238 62.3074C237.438 67.9074 233.371 73.3074 228.038 78.5074C222.838 83.5741 216.638 88.8408 209.438 94.3074L191.038 112.907H242.438C243.904 112.907 245.104 113.374 246.038 114.307C247.104 115.241 247.638 116.441 247.638 117.907V138.107C247.638 139.574 247.104 140.774 246.038 141.707C245.104 142.641 243.904 143.107 242.438 143.107H139.838Z" fill="url(#paint0_linear_398_2572)" fill-opacity="0.15"/>
<defs>
<linearGradient id="paint0_linear_398_2572" x1="124" y1="-43.8926" x2="124" y2="193.107" gradientUnits="userSpaceOnUse">
<stop stop-color="#7460ED"/>
<stop offset="1" stop-color="#FAFAFA"/>
</linearGradient>
</defs>
</svg>
