<svg width="251" height="145" viewBox="0 0 251 145" fill="none" xmlns="http://www.w3.org/2000/svg">
<path d="M58.3 144.107C48.7 144.107 40.3667 142.774 33.3 140.107C26.2333 137.307 20.3667 133.507 15.7 128.707C11.1667 123.907 7.7 118.307 5.3 111.907C2.9 105.507 1.5 98.6408 1.1 91.3074C0.966667 87.7074 0.833334 83.6408 0.700001 79.1074C0.700001 74.4408 0.700001 69.7741 0.700001 65.1074C0.833334 60.3074 0.966667 56.0407 1.1 52.3074C1.5 44.9741 2.9 38.1741 5.3 31.9074C7.83333 25.5074 11.4333 19.9741 16.1 15.3074C20.9 10.5074 26.7667 6.77408 33.7 4.10741C40.7667 1.44075 48.9667 0.107414 58.3 0.107414C67.7667 0.107414 75.9667 1.44075 82.9 4.10741C89.8333 6.77408 95.6333 10.5074 100.3 15.3074C105.1 19.9741 108.767 25.5074 111.3 31.9074C113.833 38.1741 115.233 44.9741 115.5 52.3074C115.767 56.0407 115.9 60.3074 115.9 65.1074C116.033 69.7741 116.033 74.4408 115.9 79.1074C115.9 83.6408 115.767 87.7074 115.5 91.3074C115.233 98.6408 113.833 105.507 111.3 111.907C108.9 118.307 105.367 123.907 100.7 128.707C96.1667 133.507 90.3667 137.307 83.3 140.107C76.3667 142.774 68.0333 144.107 58.3 144.107ZM58.3 115.107C65.2333 115.107 70.2333 112.907 73.3 108.507C76.5 103.974 78.1667 97.9074 78.3 90.3074C78.5667 86.4408 78.7 82.3741 78.7 78.1074C78.8333 73.8407 78.8333 69.5741 78.7 65.3074C78.7 61.0408 78.5667 57.1074 78.3 53.5074C78.1667 46.1741 76.5 40.2408 73.3 35.7074C70.2333 31.1741 65.2333 28.8407 58.3 28.7074C51.3667 28.8407 46.3667 31.1741 43.3 35.7074C40.2333 40.2408 38.5667 46.1741 38.3 53.5074C38.1667 57.1074 38.0333 61.0408 37.9 65.3074C37.9 69.5741 37.9 73.8407 37.9 78.1074C38.0333 82.3741 38.1667 86.4408 38.3 90.3074C38.5667 97.9074 40.3 103.974 43.5 108.507C46.7 112.907 51.6333 115.107 58.3 115.107ZM191.438 144.107C181.038 144.107 172.171 142.907 164.838 140.507C157.504 137.974 151.504 134.774 146.838 130.907C142.171 126.907 138.704 122.707 136.438 118.307C134.171 113.774 132.971 109.441 132.838 105.307C132.838 104.107 133.238 103.107 134.038 102.307C134.971 101.507 136.038 101.107 137.238 101.107H163.238C164.838 101.107 166.104 101.441 167.038 102.107C167.971 102.641 168.838 103.574 169.638 104.907C170.704 107.441 172.238 109.507 174.238 111.107C176.371 112.707 178.904 113.841 181.838 114.507C184.771 115.041 187.971 115.307 191.438 115.307C198.238 115.307 203.504 113.774 207.238 110.707C211.104 107.507 213.038 103.174 213.038 97.7074C213.038 91.9741 211.238 87.9074 207.638 85.5074C204.038 82.9741 198.904 81.7074 192.238 81.7074H170.038C168.571 81.7074 167.371 81.2408 166.438 80.3074C165.504 79.3741 165.038 78.1741 165.038 76.7074V65.5074C165.038 63.9074 165.371 62.5074 166.038 61.3074C166.704 60.1074 167.438 59.2408 168.238 58.7074L201.038 30.9074H145.438C144.104 30.9074 142.904 30.4407 141.838 29.5074C140.904 28.5741 140.438 27.3741 140.438 25.9074V7.10742C140.438 5.64075 140.904 4.44075 141.838 3.50742C142.904 2.57408 144.104 2.10741 145.438 2.10741H237.438C238.904 2.10741 240.104 2.57408 241.038 3.50742C242.104 4.44075 242.638 5.64075 242.638 7.10742V24.1074C242.638 25.5741 242.304 26.9074 241.638 28.1074C240.971 29.1741 240.238 30.0407 239.437 30.7074L209.038 58.9074L210.438 59.3074C218.038 60.2408 224.838 62.3074 230.838 65.5074C236.838 68.5741 241.571 72.9074 245.038 78.5074C248.504 84.1074 250.238 91.2408 250.238 99.9074C250.238 108.974 247.638 116.841 242.438 123.507C237.371 130.041 230.438 135.107 221.638 138.707C212.838 142.307 202.771 144.107 191.438 144.107Z" fill="url(#paint0_linear_398_2573)" fill-opacity="0.15"/>
<defs>
<linearGradient id="paint0_linear_398_2573" x1="124.5" y1="-44.8926" x2="124.5" y2="192.107" gradientUnits="userSpaceOnUse">
<stop offset="0.0572917" stop-color="#7460ED"/>
<stop offset="1" stop-color="white"/>
</linearGradient>
</defs>
</svg>
