<svg width="18" height="16" viewBox="0 0 18 16" fill="none" xmlns="http://www.w3.org/2000/svg">
<path d="M2.91945 0.74418C2.76228 0.592382 2.55178 0.508387 2.33328 0.510285C2.11479 0.512184 1.90578 0.599825 1.75127 0.754332C1.59676 0.908838 1.50912 1.11785 1.50722 1.33635C1.50532 1.55484 1.58932 1.76535 1.74112 1.92251L3.76112 3.94251C2.56945 4.83918 1.52945 6.07085 0.751951 7.62752C0.694152 7.74318 0.664062 7.87071 0.664062 8.00002C0.664063 8.12932 0.694152 8.25685 0.751951 8.37251C2.55028 11.97 5.74362 13.8333 8.99695 13.8333C10.2928 13.8333 11.5803 13.5375 12.7719 12.9542L15.0744 15.2558C15.2316 15.4076 15.4421 15.4916 15.6606 15.4897C15.8791 15.4878 16.0881 15.4002 16.2426 15.2457C16.3971 15.0912 16.4848 14.8822 16.4867 14.6637C16.4886 14.4452 16.4046 14.2347 16.2528 14.0775L2.91945 0.74418ZM11.5086 11.69C10.6919 12.0092 9.84195 12.1667 8.99695 12.1667C6.52278 12.1667 3.99528 10.8167 2.43862 8.00002C3.11945 6.76752 3.98695 5.81668 4.95362 5.13585L6.74028 6.92251C6.51702 7.38914 6.444 7.91354 6.5313 8.42341C6.61859 8.93328 6.8619 9.40351 7.22768 9.76929C7.59345 10.1351 8.06369 10.3784 8.57356 10.4657C9.08343 10.553 9.60782 10.4799 10.0745 10.2567L11.5078 11.69H11.5086ZM14.4569 9.58002C14.8594 9.11668 15.2286 8.59085 15.5553 8.00002C13.9986 5.18335 11.4719 3.83335 8.99695 3.83335C8.90362 3.83335 8.81028 3.83501 8.71695 3.83918L7.22945 2.35251C7.81052 2.22907 8.40291 2.16678 8.99695 2.16668C12.2494 2.16668 15.4436 4.03001 17.2419 7.62752C17.2997 7.74318 17.3298 7.87071 17.3298 8.00002C17.3298 8.12932 17.2997 8.25685 17.2419 8.37251C16.8148 9.23559 16.2754 10.0384 15.6378 10.76L14.4569 9.58002Z" fill="white"/>
</svg>
