<svg width="81" height="81" viewBox="0 0 81 81" fill="none" xmlns="http://www.w3.org/2000/svg">
    <path d="M43.875 33.3248V67.257C56.0891 65.7281 65.7686 55.998 67.2907 43.7265H57.375L69.876 23.625C72.7522 28.7226 74.2592 34.4782 74.25 40.3313C74.25 59.0625 59.1401 74.25 40.5 74.25C21.8599 74.25 6.75 59.0625 6.75 40.3313C6.75 34.2563 8.33963 28.5559 11.124 23.625L23.625 43.7265H13.7092C15.2314 55.998 24.9142 65.7281 37.125 67.257V33.3248C33.9509 32.4954 31.1871 30.5392 29.3497 27.8212C27.5123 25.1033 26.727 21.8096 27.1403 18.555C27.5536 15.3004 29.1374 12.3076 31.5958 10.1352C34.0542 7.96288 37.2193 6.75958 40.5 6.75001C43.7881 6.74676 46.9644 7.94369 49.4327 10.1161C51.901 12.2886 53.4915 15.2872 53.9058 18.5492C54.32 21.8111 53.5296 25.1121 51.6827 27.8326C49.8358 30.5531 47.0596 32.506 43.875 33.3248V33.3248ZM40.5 27C42.2902 27 44.0071 26.2889 45.273 25.023C46.5388 23.7571 47.25 22.0402 47.25 20.25C47.25 18.4598 46.5388 16.7429 45.273 15.477C44.0071 14.2112 42.2902 13.5 40.5 13.5C38.7098 13.5 36.9929 14.2112 35.727 15.477C34.4612 16.7429 33.75 18.4598 33.75 20.25C33.75 22.0402 34.4612 23.7571 35.727 25.023C36.9929 26.2889 38.7098 27 40.5 27Z" fill="url(#paint0_linear_406_3100)" />
    <defs>
        <linearGradient id="paint0_linear_406_3100" x1="40.5" y1="6.75" x2="40.5" y2="74.25" gradientUnits="userSpaceOnUse">
            <stop stop-color="#A7A9FA" />
            <stop offset="0.255208" stop-color="#9A96F6" />
            <stop offset="0.5" stop-color="#8E84F3" />
            <stop offset="0.520833" stop-color="#8C83F3" />
            <stop offset="0.692708" stop-color="#8376F1" />
            <stop offset="1" stop-color="#7460ED" />
        </linearGradient>
    </defs>
</svg>
    