<svg width="81" height="81" viewBox="0 0 81 81" fill="none" xmlns="http://www.w3.org/2000/svg">
    <path d="M65.3904 50.9726C67.5803 45.7694 68.0844 40.0107 66.8318 34.5061C65.5792 29.0015 62.633 24.028 58.4073 20.2846C54.1816 16.5413 48.8889 14.2164 43.2735 13.6369C37.658 13.0574 32.0021 14.2524 27.101 17.0539L23.753 11.1915C28.875 8.26409 34.6752 6.731 40.5747 6.74522C46.4742 6.75943 52.2669 8.32044 57.3748 11.2725C72.5285 20.0205 78.3335 38.7518 71.2696 54.3713L75.7989 56.9835L61.742 64.4558L61.1851 48.546L65.3904 50.9726V50.9726ZM15.6091 30.0274C13.4193 35.2306 12.9152 40.9893 14.1677 46.4939C15.4203 51.9985 18.3666 56.9721 22.5923 60.7154C26.818 64.4588 32.1106 66.7836 37.7261 67.3631C43.3415 67.9426 48.9974 66.7476 53.8985 63.9461L57.2465 69.8085C52.1245 72.7359 46.3244 74.269 40.4248 74.2548C34.5253 74.2406 28.7326 72.6796 23.6248 69.7275C8.47102 60.9795 2.66602 42.2483 9.72989 26.6288L5.19727 24.0199L19.2541 16.5476L19.811 32.4574L15.6058 30.0308L15.6091 30.0274ZM28.6873 47.25H47.2498C47.6973 47.25 48.1265 47.0722 48.443 46.7558C48.7595 46.4393 48.9373 46.0101 48.9373 45.5625C48.9373 45.115 48.7595 44.6857 48.443 44.3693C48.1265 44.0528 47.6973 43.875 47.2498 43.875H33.7498C31.512 43.875 29.3659 42.9861 27.7836 41.4037C26.2012 39.8214 25.3123 37.6753 25.3123 35.4375C25.3123 33.1997 26.2012 31.0536 27.7836 29.4713C29.3659 27.889 31.512 27 33.7498 27H37.1248V23.625H43.8748V27H52.3123V33.75H33.7498C33.3022 33.75 32.873 33.9278 32.5565 34.2443C32.2401 34.5607 32.0623 34.99 32.0623 35.4375C32.0623 35.8851 32.2401 36.3143 32.5565 36.6308C32.873 36.9472 33.3022 37.125 33.7498 37.125H47.2498C49.4875 37.125 51.6336 38.014 53.216 39.5963C54.7983 41.1786 55.6873 43.3247 55.6873 45.5625C55.6873 47.8003 54.7983 49.9464 53.216 51.5287C51.6336 53.1111 49.4875 54 47.2498 54H43.8748V57.375H37.1248V54H28.6873V47.25Z" fill="url(#paint0_linear_406_3115)" />
    <defs>
        <linearGradient id="paint0_linear_406_3115" x1="40.4981" y1="6.74512" x2="40.4981" y2="74.2549" gradientUnits="userSpaceOnUse">
            <stop stop-color="#A7A9FA" />
            <stop offset="0.255208" stop-color="#9A96F6" />
            <stop offset="0.5" stop-color="#8E84F3" />
            <stop offset="0.520833" stop-color="#8C83F3" />
            <stop offset="0.692708" stop-color="#8376F1" />
            <stop offset="1" stop-color="#7460ED" />
        </linearGradient>
    </defs>
</svg>
    