<svg width="26" height="26" viewBox="0 0 26 26" fill="none" xmlns="http://www.w3.org/2000/svg">
<path d="M2.70875 1.91669H23.2921C23.5201 1.99666 23.7268 2.12776 23.8963 2.29996C24.0659 2.47215 24.1937 2.68086 24.2702 2.9101C24.3466 3.13935 24.3695 3.38304 24.3372 3.62252C24.3049 3.86199 24.2182 4.09089 24.0837 4.29169L16.1671 13V24.0834L9.83375 19.3334V13L1.91708 4.29169C1.78264 4.09089 1.69595 3.86199 1.66363 3.62252C1.63132 3.38304 1.65425 3.13935 1.73067 2.9101C1.80708 2.68086 1.93495 2.47215 2.10449 2.29996C2.27402 2.12776 2.48072 1.99666 2.70875 1.91669Z" stroke="white" stroke-width="2" stroke-linecap="round" stroke-linejoin="round"/>
</svg>
