<svg width="49" height="48" viewBox="0 0 49 48" fill="none" xmlns="http://www.w3.org/2000/svg">
<path d="M37.9677 10.8202L35.4077 12.8202L24.5077 20.9202L13.6077 12.7402L11.0477 10.7402C10.4446 10.2413 9.70842 9.93027 8.93029 9.84569C8.15217 9.76111 7.36633 9.90668 6.67013 10.2644C5.97393 10.622 5.39797 11.1761 5.0136 11.8579C4.62922 12.5398 4.45333 13.3194 4.50772 14.1002V37.2802C4.50772 38.0016 4.79429 38.6934 5.30439 39.2035C5.81448 39.7136 6.50633 40.0002 7.22772 40.0002H13.6077V24.5602L24.5077 32.7402L35.4077 24.5602V40.0002H41.7877C42.5091 40.0002 43.201 39.7136 43.711 39.2035C44.2211 38.6934 44.5077 38.0016 44.5077 37.2802V14.1002C44.5453 13.3261 44.3571 12.5578 43.9662 11.8886C43.5753 11.2195 42.9984 10.6783 42.3056 10.3309C41.6129 9.98342 40.8341 9.84471 40.064 9.93158C39.2939 10.0185 38.5657 10.3272 37.9677 10.8202Z" fill="white"/>
</svg>
