<svg width="20" height="20" viewBox="0 0 20 20" fill="none" xmlns="http://www.w3.org/2000/svg">
<path d="M9.9974 18.3333C14.5998 18.3333 18.3307 14.6023 18.3307 9.99996C18.3307 5.39759 14.5998 1.66663 9.9974 1.66663C5.39502 1.66663 1.66406 5.39759 1.66406 9.99996C1.66406 14.6023 5.39502 18.3333 9.9974 18.3333Z" stroke="white" stroke-width="1.25" stroke-linecap="round" stroke-linejoin="round"/>
<path d="M7.57812 7.49999C7.77405 6.94304 8.16075 6.47341 8.66975 6.17426C9.17876 5.87512 9.7772 5.76577 10.3591 5.86558C10.941 5.96539 11.4688 6.26792 11.849 6.71959C12.2292 7.17126 12.4373 7.74292 12.4365 8.33332C12.4365 9.99999 9.93646 10.8333 9.93646 10.8333" stroke="white" stroke-width="1.25" stroke-linecap="round" stroke-linejoin="round"/>
<path d="M10 14.1666H10.0083" stroke="white" stroke-width="1.25" stroke-linecap="round" stroke-linejoin="round"/>
</svg>
