<svg width="49" height="48" viewBox="0 0 49 48" fill="none" xmlns="http://www.w3.org/2000/svg">
<path d="M42.402 16.6099C42.3818 15.0952 42.0982 13.5955 41.564 12.1779C41.1007 10.9822 40.393 9.89631 39.4863 8.98958C38.5796 8.08284 37.4937 7.37522 36.298 6.91191C34.8986 6.38663 33.4203 6.1026 31.926 6.07191C30.002 5.98591 29.392 5.96191 24.508 5.96191C19.624 5.96191 18.998 5.96191 17.088 6.07191C15.5943 6.10282 14.1166 6.38685 12.718 6.91191C11.5221 7.37489 10.436 8.0824 9.52922 8.98918C8.62244 9.89596 7.91493 10.982 7.45195 12.1779C6.92562 13.5762 6.6422 15.0541 6.61395 16.5479C6.52795 18.4739 6.50195 19.0839 6.50195 23.9679C6.50195 28.8519 6.50195 29.4759 6.61395 31.3879C6.64395 32.8839 6.92595 34.3599 7.45195 35.7619C7.91571 36.9574 8.62375 38.0431 9.53083 38.9495C10.4379 39.8559 11.5241 40.5631 12.72 41.0259C14.1148 41.5723 15.5927 41.8767 17.09 41.9259C19.016 42.0119 19.626 42.0379 24.51 42.0379C29.394 42.0379 30.02 42.0379 31.93 41.9259C33.4243 41.8965 34.9027 41.6131 36.302 41.0879C37.4973 40.6241 38.583 39.9163 39.4896 39.0096C40.3963 38.1029 41.1041 37.0173 41.568 35.8219C42.094 34.4219 42.376 32.9459 42.406 31.4479C42.492 29.5239 42.518 28.9139 42.518 24.0279C42.514 19.1439 42.514 18.5239 42.402 16.6099ZM24.496 33.2039C19.388 33.2039 15.25 29.0659 15.25 23.9579C15.25 18.8499 19.388 14.7119 24.496 14.7119C26.9481 14.7119 29.2999 15.686 31.0339 17.42C32.7678 19.154 33.742 21.5057 33.742 23.9579C33.742 26.4101 32.7678 28.7619 31.0339 30.4958C29.2999 32.2298 26.9481 33.2039 24.496 33.2039ZM34.11 16.5259C33.8268 16.5262 33.5463 16.4706 33.2846 16.3623C33.0229 16.2541 32.7851 16.0953 32.5848 15.895C32.3846 15.6948 32.2258 15.457 32.1175 15.1953C32.0093 14.9336 31.9537 14.6531 31.954 14.3699C31.954 14.0869 32.0097 13.8067 32.118 13.5452C32.2263 13.2838 32.385 13.0462 32.5851 12.8461C32.7852 12.646 33.0228 12.4873 33.2843 12.379C33.5457 12.2707 33.826 12.2149 34.109 12.2149C34.392 12.2149 34.6722 12.2707 34.9336 12.379C35.1951 12.4873 35.4327 12.646 35.6328 12.8461C35.8329 13.0462 35.9916 13.2838 36.0999 13.5452C36.2082 13.8067 36.264 14.0869 36.264 14.3699C36.264 15.5619 35.3 16.5259 34.11 16.5259Z" fill="white"/>
<path d="M24.4957 29.9641C27.8128 29.9641 30.5017 27.2752 30.5017 23.9581C30.5017 20.6411 27.8128 17.9521 24.4957 17.9521C21.1787 17.9521 18.4897 20.6411 18.4897 23.9581C18.4897 27.2752 21.1787 29.9641 24.4957 29.9641Z" fill="white"/>
</svg>
