<svg width="22" height="22" viewBox="0 0 22 22" fill="none" xmlns="http://www.w3.org/2000/svg">
<path d="M10.9905 21.8333C5.0088 21.8273 0.163985 16.9744 0.167971 10.9927C0.171958 5.01107 5.02324 0.164633 11.0049 0.166627C16.9866 0.16862 21.8346 5.01828 21.8346 11C21.8311 16.9858 16.9763 21.8357 10.9905 21.8333ZM2.33464 11.1863C2.3859 15.9543 6.27917 19.7853 11.0473 19.7598C15.8156 19.734 19.6674 15.8614 19.6674 11.0931C19.6674 6.32484 15.8156 2.45221 11.0473 2.42645C6.27917 2.40095 2.3859 6.23195 2.33464 11V11.1863ZM12.0846 16.4166H9.91797V14.25H12.0846V16.4166ZM12.0846 12.0833H9.91797V5.58329H12.0846V12.0833Z" fill="white"/>
</svg>
