<svg width="14" height="13" viewBox="0 0 14 13" fill="none" xmlns="http://www.w3.org/2000/svg">
<path d="M10.1598 0C12.1852 0 13.8265 1.66667 13.8265 4C13.8265 8.66667 8.8265 11.3333 7.15983 12.3333C5.49316 11.3333 0.493164 8.66667 0.493164 4C0.493164 1.66667 2.15983 0 4.15983 0C5.39983 0 6.49316 0.666667 7.15983 1.33333C7.8265 0.666667 8.91983 0 10.1598 0ZM7.7825 10.4027C8.36983 10.032 8.89983 9.66333 9.39583 9.26867C11.3832 7.68867 12.4932 5.962 12.4932 4C12.4932 2.42667 11.4685 1.33333 10.1598 1.33333C9.4425 1.33333 8.6665 1.71333 8.1025 2.276L7.15983 3.21867L6.21716 2.276C5.65316 1.71333 4.87716 1.33333 4.15983 1.33333C2.8665 1.33333 1.8265 2.43733 1.8265 4C1.8265 5.96267 2.93716 7.68867 4.92316 9.26867C5.41983 9.66333 5.94983 10.032 6.53716 10.402C6.7365 10.528 6.93383 10.6487 7.15983 10.7833C7.38583 10.6487 7.58316 10.528 7.7825 10.4027Z" fill="white"/>
</svg>
