<svg width="20" height="20" viewBox="0 0 20 20" fill="none" xmlns="http://www.w3.org/2000/svg">
<path d="M19.0666 0.942193C18.8885 0.761998 18.6763 0.61905 18.4423 0.521673C18.2084 0.424297 17.9575 0.37444 17.7041 0.375005H12.4219C12.0754 0.375651 11.7432 0.51291 11.4972 0.756997L0.937675 11.3144C0.57736 11.6755 0.375 12.1647 0.375 12.6748C0.375 13.1849 0.57736 13.6742 0.937675 14.0352L5.96502 19.0626C6.32616 19.423 6.81558 19.6255 7.32584 19.6255C7.8361 19.6255 8.32551 19.423 8.68666 19.0626L19.2419 8.50942C19.4865 8.26389 19.6242 7.93172 19.6252 7.58516V2.30001C19.6268 2.04795 19.5782 1.7981 19.4823 1.56499C19.3864 1.33189 19.2451 1.12018 19.0666 0.942193ZM15.5002 5.87501C15.2283 5.87501 14.9624 5.79436 14.7363 5.64328C14.5102 5.49219 14.3339 5.27744 14.2299 5.0262C14.1258 4.77495 14.0986 4.49848 14.1516 4.23176C14.2047 3.96503 14.3356 3.72003 14.5279 3.52773C14.7202 3.33544 14.9652 3.20448 15.232 3.15143C15.4987 3.09837 15.7752 3.1256 16.0264 3.22967C16.2776 3.33374 16.4924 3.50998 16.6435 3.7361C16.7946 3.96221 16.8752 4.22806 16.8752 4.50001C16.8752 4.86468 16.7303 5.21442 16.4725 5.47228C16.2146 5.73014 15.8649 5.87501 15.5002 5.87501Z" fill="white"/>
</svg>
