<svg width="1512" height="1725" viewBox="0 0 1512 1725" fill="none" xmlns="http://www.w3.org/2000/svg">
<path opacity="0.105263" d="M-16.4666 752.231L49.826 762.367C116.119 772.503 248.704 792.774 373.517 713.137C498.331 633.5 615.372 453.955 746.23 452.024C877.088 450.094 1021.76 625.778 1150.89 601.646C1280.02 577.513 1393.61 353.564 1450.41 241.59L1507.2 129.615" stroke="url(#paint0_linear_600_2559)" stroke-opacity="0.4" stroke-width="0.733837"/>
<path opacity="0.157895" d="M-69.8732 715.259L-3.89001 733.429C62.0932 751.599 194.06 787.938 324.443 724.659C454.825 661.38 583.625 498.481 715.24 512.683C846.854 526.885 981.283 718.187 1112.55 710.252C1243.81 702.316 1371.9 495.143 1435.95 391.556L1500 287.969" stroke="url(#paint1_linear_600_2559)" stroke-opacity="0.4" stroke-width="0.733837"/>
<path opacity="0.210526" d="M-117.318 676.748L-52.1468 702.813C13.0248 728.879 143.368 781.01 278.328 734.57C413.288 688.129 552.866 543.117 684.235 573.344C815.604 603.57 938.765 809.035 1071.16 817.356C1203.56 825.678 1345.18 636.857 1416 542.446L1486.81 448.035" stroke="url(#paint2_linear_600_2559)" stroke-opacity="0.4" stroke-width="0.733837"/>
<path opacity="0.263158" d="M-158.654 637.452L-94.7903 671.215C-30.9263 704.978 96.8019 772.504 235.312 743.256C373.822 714.008 523.115 587.987 653.239 634.007C783.363 680.028 894.319 898.091 1026.84 922.607C1159.36 947.122 1313.44 778.09 1390.49 693.574L1467.53 609.058" stroke="url(#paint3_linear_600_2559)" stroke-opacity="0.4" stroke-width="0.733837"/>
<path opacity="0.315789" d="M-193.796 598.126L-131.725 639.33C-69.6549 680.534 54.4859 762.941 195.492 751.108C336.498 739.275 494.37 633.203 622.259 694.668C750.147 756.133 848.053 985.135 979.69 1025.66C1111.33 1066.18 1276.69 918.224 1359.38 844.245L1442.06 770.267" stroke="url(#paint4_linear_600_2559)" stroke-opacity="0.4" stroke-width="0.733837"/>
<path opacity="0.368421" d="M-222.751 559.546L-162.947 607.876C-103.142 656.207 16.4667 752.867 158.896 758.54C301.325 764.213 466.574 678.897 591.254 755.338C715.934 831.779 800.045 1069.98 929.796 1126.2C1059.55 1182.42 1234.94 1056.67 1322.63 993.789L1410.33 930.911" stroke="url(#paint5_linear_600_2559)" stroke-opacity="0.4" stroke-width="0.733837"/>
<path opacity="0.421053" d="M-245.486 522.45L-188.403 577.54C-131.32 632.629 -17.153 742.808 125.615 765.943C268.383 789.078 439.752 725.168 560.274 816.004C680.797 906.84 750.472 1152.42 877.351 1223.91C1004.23 1295.41 1188.31 1192.81 1280.35 1141.51L1372.39 1090.21" stroke="url(#paint6_linear_600_2559)" stroke-opacity="0.4" stroke-width="0.733837"/>
<path opacity="0.842105" d="M-361.652 627.462L-281.292 667.31C-200.931 707.158 -40.2107 786.854 139.603 807.139C319.416 827.425 518.322 788.3 683.286 854.793C848.249 921.287 979.27 1093.4 1148.48 1146.69C1317.68 1199.98 1525.07 1134.45 1628.77 1101.69L1732.47 1068.92" stroke="url(#paint7_linear_600_2559)" stroke-opacity="0.3" stroke-width="0.733837"/>
<path opacity="0.894737" d="M-339.595 616.296L-261.944 660.439C-184.293 704.582 -28.9907 792.868 153.095 825.099C335.182 857.33 544.052 833.506 705.306 909.336C866.56 985.165 980.198 1160.65 1147.4 1224.02C1314.61 1287.39 1535.38 1238.66 1645.77 1214.29L1756.16 1189.92" stroke="url(#paint8_linear_600_2559)" stroke-opacity="0.3" stroke-width="0.733837"/>
<path opacity="0.947368" d="M-309.583 607.358L-235.232 655.46C-160.881 703.562 -12.1797 799.766 170.793 843.697C353.766 887.629 571.011 879.288 727.328 963.875C883.646 1048.46 979.037 1225.98 1142.97 1298.95C1306.9 1371.92 1539.38 1340.35 1655.62 1324.56L1771.86 1308.78" stroke="url(#paint9_linear_600_2559)" stroke-opacity="0.3" stroke-width="0.733837"/>
<path d="M-271.669 601.121L-201.184 652.816C-130.699 704.511 10.2703 807.901 192.738 863.199C375.205 918.496 599.171 925.701 749.362 1018.4C899.553 1111.11 975.97 1289.31 1135.38 1371.32C1294.8 1453.34 1537.21 1439.17 1658.41 1432.08L1779.61 1425" stroke="url(#paint10_linear_600_2559)" stroke-opacity="0.3" stroke-width="0.733837"/>
<defs>
<linearGradient id="paint0_linear_600_2559" x1="722.052" y1="141.198" x2="731.24" y2="763.98" gradientUnits="userSpaceOnUse">
<stop stop-color="#A7A9FA"/>
<stop offset="1" stop-color="#7460ED"/>
</linearGradient>
<linearGradient id="paint1_linear_600_2559" x1="710.313" y1="202.757" x2="644.253" y2="814.966" gradientUnits="userSpaceOnUse">
<stop stop-color="#A7A9FA"/>
<stop offset="1" stop-color="#7460ED"/>
</linearGradient>
<linearGradient id="paint2_linear_600_2559" x1="698.599" y1="266.677" x2="563.009" y2="855.973" gradientUnits="userSpaceOnUse">
<stop stop-color="#A7A9FA"/>
<stop offset="1" stop-color="#7460ED"/>
</linearGradient>
<linearGradient id="paint3_linear_600_2559" x1="686.784" y1="332.933" x2="489.866" y2="889.72" gradientUnits="userSpaceOnUse">
<stop stop-color="#A7A9FA"/>
<stop offset="1" stop-color="#7460ED"/>
</linearGradient>
<linearGradient id="paint4_linear_600_2559" x1="674.728" y1="401.478" x2="425.877" y2="919.257" gradientUnits="userSpaceOnUse">
<stop stop-color="#A7A9FA"/>
<stop offset="1" stop-color="#7460ED"/>
</linearGradient>
<linearGradient id="paint5_linear_600_2559" x1="662.25" y1="472.264" x2="370.923" y2="947.435" gradientUnits="userSpaceOnUse">
<stop stop-color="#A7A9FA"/>
<stop offset="1" stop-color="#7460ED"/>
</linearGradient>
<linearGradient id="paint6_linear_600_2559" x1="649.256" y1="545.199" x2="324.172" y2="976.525" gradientUnits="userSpaceOnUse">
<stop stop-color="#A7A9FA"/>
<stop offset="1" stop-color="#7460ED"/>
</linearGradient>
<linearGradient id="paint7_linear_600_2559" x1="742.686" y1="669.961" x2="597.774" y2="1029.47" gradientUnits="userSpaceOnUse">
<stop stop-color="#A7A9FA"/>
<stop offset="1" stop-color="#7460ED"/>
</linearGradient>
<linearGradient id="paint8_linear_600_2559" x1="788.634" y1="734.943" x2="623.994" y2="1085.06" gradientUnits="userSpaceOnUse">
<stop stop-color="#A7A9FA"/>
<stop offset="1" stop-color="#7460ED"/>
</linearGradient>
<linearGradient id="paint9_linear_600_2559" x1="833.951" y1="801.249" x2="649.349" y2="1142.39" gradientUnits="userSpaceOnUse">
<stop stop-color="#A7A9FA"/>
<stop offset="1" stop-color="#7460ED"/>
</linearGradient>
<linearGradient id="paint10_linear_600_2559" x1="878.467" y1="868.782" x2="673.304" y2="1201.17" gradientUnits="userSpaceOnUse">
<stop stop-color="#A7A9FA"/>
<stop offset="1" stop-color="#7460ED"/>
</linearGradient>
</defs>
</svg>
