<svg width="1512" height="1868" viewBox="0 0 1512 1868" fill="none" xmlns="http://www.w3.org/2000/svg">
<path opacity="0.01" d="M903.933 21.1084L866.759 85.167C829.585 149.226 755.238 277.343 749.366 439.633C743.494 601.923 806.097 798.386 746.966 934.097C687.836 1069.81 506.971 1144.77 463.057 1288.07C419.143 1431.38 512.18 1643.03 558.698 1748.85L605.216 1854.68" stroke="url(#paint0_linear_398_2480)" stroke-opacity="0.2" stroke-width="2.60624"/>
<path opacity="0.0204082" d="M977.68 39.2544L935.431 99.6018C893.182 159.949 808.684 280.644 789.618 441.769C770.552 602.893 816.918 804.448 746.96 934.127C677.002 1063.81 490.721 1121.61 435.304 1260.27C379.887 1398.94 455.334 1618.46 493.057 1728.22L530.78 1837.98" stroke="url(#paint1_linear_398_2480)" stroke-opacity="0.2" stroke-width="2.60624"/>
<path opacity="0.0408163" d="M1049.67 64.1963L1002.67 120.373C955.662 176.55 861.657 288.904 829.542 447.637C797.427 606.37 827.202 811.483 746.95 934.143C666.698 1056.8 476.418 1097.01 409.92 1229.98C343.421 1362.95 400.703 1588.67 429.344 1701.53L457.985 1814.4" stroke="url(#paint2_linear_398_2480)" stroke-opacity="0.2" stroke-width="2.60624"/>
<path opacity="0.0612245" d="M1119.35 95.7591L1067.95 147.338C1016.55 198.917 913.756 302.075 868.836 457.208C823.916 612.342 836.875 819.451 746.939 934.159C657.003 1048.87 464.173 1071.17 387.099 1197.43C310.025 1323.69 348.707 1553.9 368.048 1669L387.389 1784.11" stroke="url(#paint3_linear_398_2480)" stroke-opacity="0.2" stroke-width="2.60624"/>
<path opacity="0.0816327" d="M1186.2 133.695L1130.79 180.283C1075.39 226.872 964.582 320.048 907.2 470.402C849.818 620.755 845.86 828.285 746.925 934.168C647.99 1040.05 454.078 1044.29 367.015 1162.87C279.952 1281.46 299.739 1514.4 309.632 1630.88L319.526 1747.35" stroke="url(#paint4_linear_398_2480)" stroke-opacity="0.2" stroke-width="2.60624"/>
<path opacity="0.102041" d="M1249.7 177.715L1190.71 218.959C1131.73 260.202 1013.75 342.688 944.343 487.117C874.935 631.546 854.092 837.917 746.911 934.168C639.73 1030.42 446.21 1016.55 349.821 1126.57C253.432 1236.58 254.174 1470.49 254.545 1587.44L254.915 1704.39" stroke="url(#paint5_linear_398_2480)" stroke-opacity="0.2" stroke-width="2.60624"/>
<path opacity="0.122449" d="M1309.37 227.513L1247.25 263.097C1185.13 298.681 1060.89 369.85 979.985 507.255C899.079 644.66 861.509 848.301 746.897 934.189C632.285 1020.08 440.631 988.21 335.65 1088.82C230.668 1189.42 212.359 1422.5 203.204 1539.04L194.049 1655.58" stroke="url(#paint6_linear_398_2480)" stroke-opacity="0.2" stroke-width="2.60624"/>
<path opacity="0.142857" d="M1364.77 282.681L1299.99 312.336C1235.21 341.99 1105.64 401.299 1013.85 530.634C922.065 659.97 868.054 859.332 746.884 934.203C625.714 1009.07 437.384 959.451 324.609 1049.88C211.834 1140.31 174.613 1370.8 156.002 1486.04L137.392 1601.29" stroke="url(#paint7_linear_398_2480)" stroke-opacity="0.2" stroke-width="2.60624"/>
<path opacity="0.163265" d="M1415.46 342.801L1348.51 366.3C1281.56 389.799 1147.66 436.796 1045.69 557.078C943.714 677.36 873.673 870.926 746.867 934.209C620.061 997.492 436.489 930.493 316.779 1010.06C197.068 1089.63 141.219 1315.77 113.294 1428.83L85.3693 1541.9" stroke="url(#paint8_linear_398_2480)" stroke-opacity="0.2" stroke-width="2.60624"/>
<path opacity="0.183673" d="M1461.06 407.419L1392.45 424.583C1323.84 441.748 1186.62 476.077 1075.24 586.39C963.866 696.702 878.328 882.998 746.851 934.213C615.373 985.427 437.956 901.56 312.221 969.659C186.487 1037.76 112.434 1257.83 75.4075 1367.86L38.3812 1477.89" stroke="url(#paint9_linear_398_2480)" stroke-opacity="0.2" stroke-width="2.60624"/>
<path opacity="0.204082" d="M1501.23 476.053L1431.48 486.753C1361.74 497.453 1222.24 518.852 1102.3 618.355C982.365 717.859 881.982 895.468 746.834 934.224C611.686 972.979 441.774 872.882 310.972 928.995C180.17 985.107 88.4773 1197.43 42.631 1303.59L-3.21521 1409.75" stroke="url(#paint10_linear_398_2480)" stroke-opacity="0.2" stroke-width="2.60624"/>
<path opacity="0.22449" d="M1535.65 548.172L1465.3 552.325C1394.95 556.478 1254.24 564.785 1126.66 652.722C999.07 740.66 884.605 908.229 746.815 934.232C609.025 960.234 447.912 844.669 313.038 888.367C178.163 932.065 69.529 1135.03 15.2118 1236.51L-39.1054 1337.99" stroke="url(#paint11_linear_398_2480)" stroke-opacity="0.2" stroke-width="2.60624"/>
<path opacity="0.244898" d="M1564.07 623.221L1493.65 620.796C1423.23 618.371 1282.38 613.522 1148.12 689.224C1013.86 764.927 886.181 921.181 746.798 934.232C607.415 947.283 456.326 817.13 318.406 848.081C180.487 879.032 55.7373 1071.09 -6.63743 1167.12L-69.0122 1263.14" stroke="url(#paint12_linear_398_2480)" stroke-opacity="0.2" stroke-width="2.60624"/>
<path opacity="0.265306" d="M1586.27 700.638L1516.31 691.654C1446.35 682.669 1306.44 664.701 1166.52 727.592C1026.61 790.483 886.693 934.234 746.778 934.234C606.863 934.234 466.948 790.483 327.032 808.452C187.117 826.42 47.202 1006.11 -22.7556 1095.95L-92.7132 1185.8" stroke="url(#paint13_linear_398_2480)" stroke-opacity="0.2" stroke-width="2.60624"/>
<path opacity="0.285714" d="M1602.08 779.826L1533.12 764.35C1464.16 748.874 1326.24 717.923 1181.74 767.524C1037.23 817.125 886.144 947.278 746.762 934.228C607.379 921.177 479.703 764.922 338.856 769.772C198.01 774.622 43.9942 940.576 -33.0139 1023.55L-110.022 1106.53" stroke="url(#paint14_linear_398_2480)" stroke-opacity="0.2" stroke-width="2.60624"/>
<path opacity="0.306122" d="M1611.38 860.186L1543.94 838.337C1476.51 816.488 1341.63 772.789 1193.64 808.723C1045.64 844.656 884.531 960.221 746.741 934.219C608.952 908.217 494.486 740.648 353.781 732.341C213.076 724.035 46.131 874.992 -37.3414 950.47L-120.814 1025.95" stroke="url(#paint15_linear_398_2480)" stroke-opacity="0.2" stroke-width="2.60624"/>
<path opacity="0.326531" d="M1614.1 941.115L1548.7 913.059C1483.3 885.003 1352.5 828.89 1202.14 850.883C1051.78 872.875 881.872 972.972 746.724 934.216C611.577 895.461 511.193 717.852 371.7 696.453C232.207 675.054 53.6036 809.864 -35.6979 877.269L-124.999 944.674" stroke="url(#paint16_linear_398_2480)" stroke-opacity="0.2" stroke-width="2.60624"/>
<path opacity="0.346939" d="M1610.23 1021.99L1547.36 987.944C1484.49 953.894 1358.76 885.795 1207.18 893.679C1055.6 901.562 878.187 985.43 746.709 934.216C615.232 883.001 529.694 696.705 392.475 662.376C255.255 628.047 66.3529 745.685 -28.0981 804.504L-122.549 863.323" stroke="url(#paint17_linear_398_2480)" stroke-opacity="0.2" stroke-width="2.60624"/>
<path opacity="0.367347" d="M1599.77 1102.2L1539.92 1062.42C1480.06 1022.63 1360.35 943.064 1208.71 936.78C1057.07 930.495 873.497 997.495 746.691 934.212C619.884 870.929 549.843 677.363 415.942 630.365C282.04 583.367 84.2765 682.938 -14.6051 732.723L-113.487 782.508" stroke="url(#paint18_linear_398_2480)" stroke-opacity="0.2" stroke-width="2.60624"/>
<path opacity="0.387755" d="M1582.83 1181.13L1526.44 1135.91C1470.05 1090.69 1357.28 1000.26 1206.73 979.858C1056.17 959.453 867.844 1009.07 746.673 934.204C625.503 859.334 571.492 659.972 441.927 600.663C312.362 541.354 107.243 622.099 4.68348 662.471L-97.8762 702.843" stroke="url(#paint19_linear_398_2480)" stroke-opacity="0.2" stroke-width="2.60624"/>
<path opacity="0.408163" d="M1559.52 1258.16L1507.03 1207.86C1454.54 1157.56 1349.56 1056.95 1201.24 1022.58C1052.92 988.208 861.271 1020.07 746.659 934.187C632.047 848.299 594.477 644.658 470.235 573.489C345.993 502.321 135.079 563.625 29.6218 594.278L-75.8354 624.93" stroke="url(#paint20_linear_398_2480)" stroke-opacity="0.2" stroke-width="2.60624"/>
<path opacity="0.428571" d="M1530.03 1332.75L1481.84 1277.74C1433.64 1222.73 1337.25 1112.72 1192.3 1064.64C1047.34 1016.57 853.825 1030.44 746.644 934.185C639.463 837.933 618.62 631.562 500.646 549.076C382.673 466.589 167.568 507.988 60.0164 528.687L-47.5357 549.386" stroke="url(#paint21_linear_398_2480)" stroke-opacity="0.2" stroke-width="2.60624"/>
<path opacity="0.44898" d="M1494.58 1404.29L1451.05 1344.99C1407.52 1285.7 1320.45 1167.11 1179.96 1105.7C1039.48 1044.29 845.565 1040.05 746.63 934.17C647.695 828.287 643.737 620.757 532.93 527.58C422.123 434.404 204.466 455.58 95.6372 466.168L-13.1914 476.757" stroke="url(#paint22_linear_398_2480)" stroke-opacity="0.2" stroke-width="2.60624"/>
<path opacity="0.469388" d="M1453.44 1472.25L1414.9 1409.13C1376.36 1346 1299.29 1219.74 1164.34 1145.46C1029.38 1071.17 836.555 1048.87 746.619 934.159C656.683 819.451 669.641 612.341 566.844 509.183C464.046 406.026 245.493 406.819 136.216 407.216L26.9395 407.613" stroke="url(#paint23_linear_398_2480)" stroke-opacity="0.2" stroke-width="2.60624"/>
<path opacity="0.489796" d="M1406.91 1536.11L1373.67 1469.63C1340.42 1403.14 1273.92 1270.18 1145.53 1183.59C1017.14 1097 826.86 1056.79 746.608 934.133C666.356 811.473 696.131 606.36 602.125 494.007C508.12 381.653 290.334 362.058 181.44 352.26L72.5473 342.463" stroke="url(#paint24_linear_398_2480)" stroke-opacity="0.2" stroke-width="2.60624"/>
<path opacity="0.510204" d="M1355.37 1595.4L1327.66 1526.07C1299.95 1456.74 1244.53 1318.07 1123.69 1219.84C1002.84 1121.61 816.555 1063.8 746.598 934.122C676.64 804.443 723.006 602.888 638.508 482.194C554.01 361.499 338.648 321.664 230.967 301.747L123.286 281.829" stroke="url(#paint25_linear_398_2480)" stroke-opacity="0.2" stroke-width="2.60624"/>
<path opacity="0.530612" d="M1299.19 1649.65L1277.24 1577.99C1255.28 1506.34 1211.36 1363.04 1098.97 1253.9C986.585 1144.77 805.721 1069.81 746.59 934.1C687.459 798.389 750.063 601.926 675.715 473.809C601.368 345.692 390.069 285.921 284.42 256.035L178.771 226.149" stroke="url(#paint26_linear_398_2480)" stroke-opacity="0.2" stroke-width="2.60624"/>
<path opacity="0.55102" d="M1238.81 1698.45L1222.77 1625.02C1206.73 1551.59 1174.66 1404.73 1071.58 1285.53C968.507 1166.33 794.435 1074.79 746.581 934.079C698.727 793.369 777.091 603.493 713.46 468.928C649.829 334.364 444.202 255.111 341.389 215.484L238.576 175.858" stroke="url(#paint27_linear_398_2480)" stroke-opacity="0.2" stroke-width="2.60624"/>
<path opacity="0.571429" d="M1174.69 1741.44L1164.69 1666.79C1154.69 1592.15 1134.7 1442.86 1041.72 1314.5C948.746 1186.14 782.791 1078.7 746.578 934.065C710.366 789.426 803.895 607.582 751.464 467.595C699.034 327.607 500.644 229.476 401.449 180.41L302.254 131.344" stroke="url(#paint28_linear_398_2480)" stroke-opacity="0.2" stroke-width="2.60624"/>
<path opacity="0.591837" d="M1107.3 1778.28L1103.42 1702.98C1099.54 1627.69 1091.78 1477.1 1009.61 1340.56C927.444 1204.01 770.87 1081.51 746.574 934.044C722.278 786.579 830.26 614.151 789.429 469.805C748.599 325.46 558.955 209.197 464.133 151.065L369.311 92.9336" stroke="url(#paint29_linear_398_2480)" stroke-opacity="0.2" stroke-width="2.60624"/>
<path opacity="0.612245" d="M1037.18 1808.68L1039.44 1733.31C1041.71 1657.95 1046.24 1507.21 975.503 1363.52C904.768 1219.83 758.766 1083.19 746.572 934.017C734.377 784.846 855.99 623.147 827.07 475.542C798.15 327.937 618.696 194.427 528.969 127.672L439.242 60.9173" stroke="url(#paint30_linear_398_2480)" stroke-opacity="0.2" stroke-width="2.60624"/>
<path opacity="0.632653" d="M964.838 1832.45L973.233 1757.58C981.628 1682.71 998.418 1532.97 939.653 1383.22C880.889 1233.48 746.57 1083.74 746.57 934.002C746.57 784.262 880.889 634.521 864.099 484.781C847.309 335.04 679.411 185.299 595.462 110.429L511.513 35.5587" stroke="url(#paint31_linear_398_2480)" stroke-opacity="0.2" stroke-width="2.60624"/>
<path opacity="0.653061" d="M890.842 1849.38L905.302 1775.58C919.762 1701.78 948.682 1554.17 902.336 1399.52C855.989 1244.87 734.376 1083.17 746.571 933.997C758.765 784.826 904.767 648.184 900.236 497.447C895.704 346.71 740.639 181.878 663.107 99.4626L585.574 17.0467" stroke="url(#paint32_linear_398_2480)" stroke-opacity="0.2" stroke-width="2.60624"/>
<path opacity="0.673469" d="M815.748 1859.33L836.164 1787.15C856.579 1714.98 897.41 1570.64 863.834 1412.25C830.259 1253.86 722.277 1081.44 746.573 933.97C770.869 786.504 927.443 664 935.204 513.414C942.965 362.828 801.914 184.16 731.388 94.8259L660.862 5.49167" stroke="url(#paint33_linear_398_2480)" stroke-opacity="0.1" stroke-width="2.60624"/>
<path opacity="0.693878" d="M740.131 1862.23L766.346 1792.23C792.562 1722.24 844.992 1582.25 824.443 1421.34C803.893 1260.42 710.364 1078.58 746.577 933.94C782.79 789.301 948.744 681.868 968.739 532.579C988.734 383.29 862.77 192.145 799.787 96.5725L736.805 0.999846" stroke="url(#paint34_linear_398_2480)" stroke-opacity="0.1" stroke-width="2.60624"/>
<path opacity="0.714286" d="M664.564 1858.08L696.38 1790.79C728.195 1723.51 791.826 1588.95 784.46 1426.73C777.093 1264.51 698.729 1074.63 746.583 933.921C794.436 793.21 968.508 701.666 1000.58 554.81C1032.66 407.954 922.743 205.787 867.783 104.703L812.824 3.61953" stroke="url(#paint35_linear_398_2480)" stroke-opacity="0.1" stroke-width="2.60624"/>
<path opacity="0.734694" d="M589.624 1846.9L626.798 1782.85C663.972 1718.79 738.319 1590.67 744.191 1428.38C750.063 1266.09 687.46 1069.63 746.591 933.916C805.722 798.205 986.586 723.246 1030.5 579.941C1074.41 436.636 981.377 224.985 934.859 119.159L888.341 13.3339" stroke="url(#paint36_linear_398_2480)" stroke-opacity="0.1" stroke-width="2.60624"/>
<path opacity="0.755102" d="M515.877 1828.76L558.126 1768.41C600.375 1708.06 684.873 1587.37 703.94 1426.24C723.006 1265.12 676.64 1063.56 746.598 933.886C816.555 804.207 1002.84 746.403 1058.25 607.739C1113.67 469.076 1038.22 249.552 1000.5 139.79L962.777 30.0285" stroke="url(#paint37_linear_398_2480)" stroke-opacity="0.1" stroke-width="2.60624"/>
<path opacity="0.77551" d="M443.889 1803.82L490.892 1747.64C537.895 1691.46 631.9 1579.11 664.015 1420.38C696.13 1261.64 666.355 1056.53 746.607 933.87C826.859 811.21 1017.14 771.002 1083.64 638.035C1150.14 505.068 1092.85 279.342 1064.21 166.48L1035.57 53.6168" stroke="url(#paint38_linear_398_2480)" stroke-opacity="0.1" stroke-width="2.60624"/>
<path opacity="0.795918" d="M374.206 1772.25L425.605 1720.68C477.004 1669.1 579.801 1565.94 624.721 1410.8C669.641 1255.67 656.682 1048.56 746.618 933.854C836.554 819.146 1029.38 796.839 1106.46 670.581C1183.53 544.323 1144.85 314.113 1125.51 199.008L1106.17 83.9036" stroke="url(#paint39_linear_398_2480)" stroke-opacity="0.1" stroke-width="2.60624"/>
<path opacity="0.816327" d="M307.359 1734.32L362.763 1687.73C418.166 1641.14 528.973 1547.97 586.356 1397.61C643.738 1247.26 647.695 1039.73 746.63 933.846C845.565 827.963 1039.48 823.728 1126.54 705.139C1213.6 586.551 1193.82 353.609 1183.92 237.138L1174.03 120.667" stroke="url(#paint40_linear_398_2480)" stroke-opacity="0.1" stroke-width="2.60624"/>
<path opacity="0.836735" d="M243.859 1690.28L302.846 1649.04C361.832 1607.79 479.806 1525.31 549.214 1380.88C618.622 1236.45 639.465 1030.08 746.647 933.827C853.828 837.575 1047.35 851.444 1143.74 741.427C1240.13 631.411 1239.38 397.51 1239.01 280.559L1238.64 163.609" stroke="url(#paint41_linear_398_2480)" stroke-opacity="0.1" stroke-width="2.60624"/>
<path opacity="0.857143" d="M184.182 1640.5L246.303 1604.92C308.424 1569.33 432.666 1498.16 513.572 1360.76C594.478 1223.35 632.048 1019.71 746.66 933.824C861.272 847.936 1052.93 879.803 1157.91 779.196C1262.89 678.589 1281.2 445.509 1290.35 328.969L1299.51 212.429" stroke="url(#paint42_linear_398_2480)" stroke-opacity="0.1" stroke-width="2.60624"/>
<path opacity="0.877551" d="M128.787 1585.34L193.569 1555.68C258.352 1526.03 387.917 1466.72 479.705 1337.38C571.493 1208.05 625.504 1008.68 746.674 933.814C867.844 858.944 1056.17 908.565 1168.95 818.133C1281.72 727.702 1318.94 497.216 1337.56 381.974L1356.17 266.731" stroke="url(#paint43_linear_398_2480)" stroke-opacity="0.1" stroke-width="2.60624"/>
<path opacity="0.897959" d="M78.0967 1525.21L145.048 1501.71C211.999 1478.21 345.901 1431.22 447.872 1310.93C549.843 1190.65 619.884 997.087 746.69 933.804C873.497 870.521 1057.07 937.521 1176.78 857.952C1296.49 778.384 1352.34 552.247 1380.26 439.179L1408.19 326.111" stroke="url(#paint44_linear_398_2480)" stroke-opacity="0.1" stroke-width="2.60624"/>
<path opacity="0.918367" d="M32.4951 1460.59L101.105 1443.43C169.715 1426.27 306.935 1391.94 418.313 1281.62C529.692 1171.31 615.23 985.015 746.707 933.801C878.184 882.586 1055.6 966.454 1181.34 898.354C1307.07 830.255 1381.12 610.188 1418.15 500.155L1455.18 390.122" stroke="url(#paint45_linear_398_2480)" stroke-opacity="0.1" stroke-width="2.60624"/>
<path opacity="0.938776" d="M-7.67076 1391.96L62.0759 1381.26C131.823 1370.56 271.316 1349.16 391.254 1249.66C511.193 1150.15 611.576 972.545 746.724 933.79C881.872 895.034 1051.78 995.131 1182.59 939.019C1313.39 882.906 1405.08 670.585 1450.93 564.424L1496.77 458.263" stroke="url(#paint46_linear_398_2480)" stroke-opacity="0.1" stroke-width="2.60624"/>
<path opacity="0.959184" d="M-42.0934 1319.84L28.2592 1315.69C98.6118 1311.53 239.317 1303.23 366.902 1215.29C494.487 1127.35 608.953 959.784 746.743 933.782C884.532 907.779 1045.65 1023.34 1180.52 979.646C1315.39 935.948 1424.03 732.987 1478.35 631.506L1532.66 530.026" stroke="url(#paint47_linear_398_2480)" stroke-opacity="0.1" stroke-width="2.60624"/>
<path opacity="0.979592" d="M-70.514 1244.79L-0.0909517 1247.22C70.3321 1249.64 211.178 1254.49 345.439 1178.79C479.701 1103.09 607.377 946.832 746.76 933.781C886.142 920.73 1037.23 1050.88 1175.15 1019.93C1313.07 988.981 1437.82 796.925 1500.2 700.897L1562.57 604.869" stroke="url(#paint48_linear_398_2480)" stroke-opacity="0.1" stroke-width="2.60624"/>
<path d="M-92.7119 1167.38L-22.7543 1176.36C47.2033 1185.35 187.119 1203.32 327.034 1140.43C466.949 1077.53 606.864 933.783 746.779 933.783C886.695 933.783 1026.61 1077.53 1166.53 1059.57C1306.44 1041.6 1446.36 861.907 1516.31 772.063L1586.27 682.219" stroke="url(#paint49_linear_398_2480)" stroke-opacity="0.1" stroke-width="2.60624"/>
<defs>
<linearGradient id="paint0_linear_398_2480" x1="960.001" y1="1040.41" x2="523.662" y2="850.295" gradientUnits="userSpaceOnUse">
<stop stop-color="#A7A9FA"/>
<stop offset="1" stop-color="#7460ED"/>
</linearGradient>
<linearGradient id="paint1_linear_398_2480" x1="950.526" y1="1059.91" x2="529.679" y2="832.876" gradientUnits="userSpaceOnUse">
<stop stop-color="#A7A9FA"/>
<stop offset="1" stop-color="#7460ED"/>
</linearGradient>
<linearGradient id="paint2_linear_398_2480" x1="939.498" y1="1078.43" x2="537.264" y2="815.268" gradientUnits="userSpaceOnUse">
<stop stop-color="#A7A9FA"/>
<stop offset="1" stop-color="#7460ED"/>
</linearGradient>
<linearGradient id="paint3_linear_398_2480" x1="927.003" y1="1095.86" x2="546.606" y2="797.614" gradientUnits="userSpaceOnUse">
<stop stop-color="#A7A9FA"/>
<stop offset="1" stop-color="#7460ED"/>
</linearGradient>
<linearGradient id="paint4_linear_398_2480" x1="913.136" y1="1112.05" x2="557.873" y2="780.099" gradientUnits="userSpaceOnUse">
<stop stop-color="#A7A9FA"/>
<stop offset="1" stop-color="#7460ED"/>
</linearGradient>
<linearGradient id="paint5_linear_398_2480" x1="898.003" y1="1126.88" x2="571.21" y2="762.976" gradientUnits="userSpaceOnUse">
<stop stop-color="#A7A9FA"/>
<stop offset="1" stop-color="#7460ED"/>
</linearGradient>
<linearGradient id="paint6_linear_398_2480" x1="881.72" y1="1140.26" x2="586.708" y2="746.583" gradientUnits="userSpaceOnUse">
<stop stop-color="#A7A9FA"/>
<stop offset="1" stop-color="#7460ED"/>
</linearGradient>
<linearGradient id="paint7_linear_398_2480" x1="864.413" y1="1152.06" x2="604.394" y2="731.25" gradientUnits="userSpaceOnUse">
<stop stop-color="#A7A9FA"/>
<stop offset="1" stop-color="#7460ED"/>
</linearGradient>
<linearGradient id="paint8_linear_398_2480" x1="846.207" y1="1162.2" x2="624.206" y2="717.361" gradientUnits="userSpaceOnUse">
<stop stop-color="#A7A9FA"/>
<stop offset="1" stop-color="#7460ED"/>
</linearGradient>
<linearGradient id="paint9_linear_398_2480" x1="827.245" y1="1170.61" x2="646" y2="705.313" gradientUnits="userSpaceOnUse">
<stop stop-color="#A7A9FA"/>
<stop offset="1" stop-color="#7460ED"/>
</linearGradient>
<linearGradient id="paint10_linear_398_2480" x1="807.671" y1="1177.22" x2="669.529" y2="695.492" gradientUnits="userSpaceOnUse">
<stop stop-color="#A7A9FA"/>
<stop offset="1" stop-color="#7460ED"/>
</linearGradient>
<linearGradient id="paint11_linear_398_2480" x1="787.632" y1="1181.97" x2="694.455" y2="688.214" gradientUnits="userSpaceOnUse">
<stop stop-color="#A7A9FA"/>
<stop offset="1" stop-color="#7460ED"/>
</linearGradient>
<linearGradient id="paint12_linear_398_2480" x1="767.285" y1="1184.84" x2="720.365" y2="683.734" gradientUnits="userSpaceOnUse">
<stop stop-color="#A7A9FA"/>
<stop offset="1" stop-color="#7460ED"/>
</linearGradient>
<linearGradient id="paint13_linear_398_2480" x1="746.778" y1="1185.8" x2="746.778" y2="682.223" gradientUnits="userSpaceOnUse">
<stop stop-color="#A7A9FA"/>
<stop offset="1" stop-color="#7460ED"/>
</linearGradient>
<linearGradient id="paint14_linear_398_2480" x1="726.275" y1="1184.83" x2="773.195" y2="683.73" gradientUnits="userSpaceOnUse">
<stop stop-color="#A7A9FA"/>
<stop offset="1" stop-color="#7460ED"/>
</linearGradient>
<linearGradient id="paint15_linear_398_2480" x1="705.924" y1="1181.96" x2="799.101" y2="688.202" gradientUnits="userSpaceOnUse">
<stop stop-color="#A7A9FA"/>
<stop offset="1" stop-color="#7460ED"/>
</linearGradient>
<linearGradient id="paint16_linear_398_2480" x1="685.887" y1="1177.21" x2="824.029" y2="695.484" gradientUnits="userSpaceOnUse">
<stop stop-color="#A7A9FA"/>
<stop offset="1" stop-color="#7460ED"/>
</linearGradient>
<linearGradient id="paint17_linear_398_2480" x1="666.315" y1="1170.61" x2="847.56" y2="705.316" gradientUnits="userSpaceOnUse">
<stop stop-color="#A7A9FA"/>
<stop offset="1" stop-color="#7460ED"/>
</linearGradient>
<linearGradient id="paint18_linear_398_2480" x1="647.351" y1="1162.21" x2="869.351" y2="717.363" gradientUnits="userSpaceOnUse">
<stop stop-color="#A7A9FA"/>
<stop offset="1" stop-color="#7460ED"/>
</linearGradient>
<linearGradient id="paint19_linear_398_2480" x1="629.145" y1="1152.07" x2="889.163" y2="731.251" gradientUnits="userSpaceOnUse">
<stop stop-color="#A7A9FA"/>
<stop offset="1" stop-color="#7460ED"/>
</linearGradient>
<linearGradient id="paint20_linear_398_2480" x1="611.836" y1="1140.26" x2="906.848" y2="746.581" gradientUnits="userSpaceOnUse">
<stop stop-color="#A7A9FA"/>
<stop offset="1" stop-color="#7460ED"/>
</linearGradient>
<linearGradient id="paint21_linear_398_2480" x1="595.552" y1="1126.89" x2="922.345" y2="762.992" gradientUnits="userSpaceOnUse">
<stop stop-color="#A7A9FA"/>
<stop offset="1" stop-color="#7460ED"/>
</linearGradient>
<linearGradient id="paint22_linear_398_2480" x1="580.419" y1="1112.05" x2="935.681" y2="780.101" gradientUnits="userSpaceOnUse">
<stop stop-color="#A7A9FA"/>
<stop offset="1" stop-color="#7460ED"/>
</linearGradient>
<linearGradient id="paint23_linear_398_2480" x1="566.554" y1="1095.86" x2="946.952" y2="797.614" gradientUnits="userSpaceOnUse">
<stop stop-color="#A7A9FA"/>
<stop offset="1" stop-color="#7460ED"/>
</linearGradient>
<linearGradient id="paint24_linear_398_2480" x1="554.06" y1="1078.42" x2="956.293" y2="815.258" gradientUnits="userSpaceOnUse">
<stop stop-color="#A7A9FA"/>
<stop offset="1" stop-color="#7460ED"/>
</linearGradient>
<linearGradient id="paint25_linear_398_2480" x1="543.032" y1="1059.9" x2="963.879" y2="832.871" gradientUnits="userSpaceOnUse">
<stop stop-color="#A7A9FA"/>
<stop offset="1" stop-color="#7460ED"/>
</linearGradient>
<linearGradient id="paint26_linear_398_2480" x1="533.555" y1="1040.42" x2="969.894" y2="850.299" gradientUnits="userSpaceOnUse">
<stop stop-color="#A7A9FA"/>
<stop offset="1" stop-color="#7460ED"/>
</linearGradient>
<linearGradient id="paint27_linear_398_2480" x1="525.699" y1="1020.12" x2="974.518" y2="867.481" gradientUnits="userSpaceOnUse">
<stop stop-color="#A7A9FA"/>
<stop offset="1" stop-color="#7460ED"/>
</linearGradient>
<linearGradient id="paint28_linear_398_2480" x1="519.53" y1="999.174" x2="977.927" y2="884.407" gradientUnits="userSpaceOnUse">
<stop stop-color="#A7A9FA"/>
<stop offset="1" stop-color="#7460ED"/>
</linearGradient>
<linearGradient id="paint29_linear_398_2480" x1="515.088" y1="977.728" x2="980.252" y2="901.089" gradientUnits="userSpaceOnUse">
<stop stop-color="#A7A9FA"/>
<stop offset="1" stop-color="#7460ED"/>
</linearGradient>
<linearGradient id="paint30_linear_398_2480" x1="512.409" y1="955.942" x2="981.603" y2="917.587" gradientUnits="userSpaceOnUse">
<stop stop-color="#A7A9FA"/>
<stop offset="1" stop-color="#7460ED"/>
</linearGradient>
<linearGradient id="paint31_linear_398_2480" x1="511.513" y1="934.003" x2="982.045" y2="934.003" gradientUnits="userSpaceOnUse">
<stop stop-color="#A7A9FA"/>
<stop offset="1" stop-color="#7460ED"/>
</linearGradient>
<linearGradient id="paint32_linear_398_2480" x1="512.408" y1="912.072" x2="981.602" y2="950.427" gradientUnits="userSpaceOnUse">
<stop stop-color="#A7A9FA"/>
<stop offset="1" stop-color="#7460ED"/>
</linearGradient>
<linearGradient id="paint33_linear_398_2480" x1="515.086" y1="890.286" x2="980.25" y2="966.925" gradientUnits="userSpaceOnUse">
<stop stop-color="#A7A9FA"/>
<stop offset="1" stop-color="#7460ED"/>
</linearGradient>
<linearGradient id="paint34_linear_398_2480" x1="519.529" y1="868.83" x2="977.925" y2="983.598" gradientUnits="userSpaceOnUse">
<stop stop-color="#A7A9FA"/>
<stop offset="1" stop-color="#7460ED"/>
</linearGradient>
<linearGradient id="paint35_linear_398_2480" x1="525.701" y1="847.881" x2="974.52" y2="1000.52" gradientUnits="userSpaceOnUse">
<stop stop-color="#A7A9FA"/>
<stop offset="1" stop-color="#7460ED"/>
</linearGradient>
<linearGradient id="paint36_linear_398_2480" x1="533.556" y1="827.601" x2="969.895" y2="1017.72" gradientUnits="userSpaceOnUse">
<stop stop-color="#A7A9FA"/>
<stop offset="1" stop-color="#7460ED"/>
</linearGradient>
<linearGradient id="paint37_linear_398_2480" x1="543.032" y1="808.104" x2="963.879" y2="1035.14" gradientUnits="userSpaceOnUse">
<stop stop-color="#A7A9FA"/>
<stop offset="1" stop-color="#7460ED"/>
</linearGradient>
<linearGradient id="paint38_linear_398_2480" x1="554.059" y1="789.579" x2="956.293" y2="1052.75" gradientUnits="userSpaceOnUse">
<stop stop-color="#A7A9FA"/>
<stop offset="1" stop-color="#7460ED"/>
</linearGradient>
<linearGradient id="paint39_linear_398_2480" x1="566.554" y1="772.152" x2="946.951" y2="1070.4" gradientUnits="userSpaceOnUse">
<stop stop-color="#A7A9FA"/>
<stop offset="1" stop-color="#7460ED"/>
</linearGradient>
<linearGradient id="paint40_linear_398_2480" x1="580.42" y1="755.963" x2="935.682" y2="1087.91" gradientUnits="userSpaceOnUse">
<stop stop-color="#A7A9FA"/>
<stop offset="1" stop-color="#7460ED"/>
</linearGradient>
<linearGradient id="paint41_linear_398_2480" x1="595.555" y1="741.117" x2="922.347" y2="1105.02" gradientUnits="userSpaceOnUse">
<stop stop-color="#A7A9FA"/>
<stop offset="1" stop-color="#7460ED"/>
</linearGradient>
<linearGradient id="paint42_linear_398_2480" x1="611.837" y1="727.755" x2="906.849" y2="1121.43" gradientUnits="userSpaceOnUse">
<stop stop-color="#A7A9FA"/>
<stop offset="1" stop-color="#7460ED"/>
</linearGradient>
<linearGradient id="paint43_linear_398_2480" x1="629.145" y1="715.953" x2="889.163" y2="1136.77" gradientUnits="userSpaceOnUse">
<stop stop-color="#A7A9FA"/>
<stop offset="1" stop-color="#7460ED"/>
</linearGradient>
<linearGradient id="paint44_linear_398_2480" x1="647.351" y1="705.81" x2="869.351" y2="1150.65" gradientUnits="userSpaceOnUse">
<stop stop-color="#A7A9FA"/>
<stop offset="1" stop-color="#7460ED"/>
</linearGradient>
<linearGradient id="paint45_linear_398_2480" x1="666.313" y1="697.407" x2="847.558" y2="1162.7" gradientUnits="userSpaceOnUse">
<stop stop-color="#A7A9FA"/>
<stop offset="1" stop-color="#7460ED"/>
</linearGradient>
<linearGradient id="paint46_linear_398_2480" x1="685.886" y1="690.797" x2="824.028" y2="1172.52" gradientUnits="userSpaceOnUse">
<stop stop-color="#A7A9FA"/>
<stop offset="1" stop-color="#7460ED"/>
</linearGradient>
<linearGradient id="paint47_linear_398_2480" x1="705.925" y1="686.039" x2="799.102" y2="1179.8" gradientUnits="userSpaceOnUse">
<stop stop-color="#A7A9FA"/>
<stop offset="1" stop-color="#7460ED"/>
</linearGradient>
<linearGradient id="paint48_linear_398_2480" x1="726.273" y1="683.174" x2="773.193" y2="1184.28" gradientUnits="userSpaceOnUse">
<stop stop-color="#A7A9FA"/>
<stop offset="1" stop-color="#7460ED"/>
</linearGradient>
<linearGradient id="paint49_linear_398_2480" x1="746.779" y1="682.219" x2="746.779" y2="1185.79" gradientUnits="userSpaceOnUse">
<stop stop-color="#A7A9FA"/>
<stop offset="1" stop-color="#7460ED"/>
</linearGradient>
</defs>
</svg>
