<svg width="49" height="48" viewBox="0 0 49 48" fill="none" xmlns="http://www.w3.org/2000/svg">
<path d="M40.5078 6H8.50781C7.97738 6 7.46867 6.21071 7.0936 6.58579C6.71853 6.96086 6.50781 7.46957 6.50781 8V40C6.50781 40.5304 6.71853 41.0391 7.0936 41.4142C7.46867 41.7893 7.97738 42 8.50781 42H40.5078C41.0382 42 41.547 41.7893 41.922 41.4142C42.2971 41.0391 42.5078 40.5304 42.5078 40V8C42.5078 7.46957 42.2971 6.96086 41.922 6.58579C41.547 6.21071 41.0382 6 40.5078 6ZM36.4158 14.53L34.4838 16.38C34.4022 16.4422 34.3393 16.5257 34.3019 16.6213C34.2645 16.7169 34.2541 16.8209 34.2718 16.922V30.524C34.2541 30.6251 34.2645 30.7291 34.3019 30.8247C34.3393 30.9203 34.4022 31.0038 34.4838 31.066L36.3678 32.918V33.326H26.8858V32.918L28.8398 31.022C29.0338 30.83 29.0338 30.772 29.0338 30.48V19.484L23.6018 33.276H22.8658L16.5438 19.484V28.728C16.5188 28.9201 16.5375 29.1153 16.5985 29.2992C16.6594 29.4831 16.7611 29.6508 16.8958 29.79L19.4378 32.872V33.278H12.2298V32.872L14.7718 29.79C14.9056 29.6509 15.005 29.4824 15.0619 29.2979C15.1189 29.1135 15.1319 28.9183 15.0998 28.728V18.04C15.1148 17.8937 15.095 17.7459 15.0422 17.6087C14.9894 17.4714 14.905 17.3485 14.7958 17.25L12.5358 14.53V14.124H19.5478L24.9678 26.01L29.7318 14.124H36.4178V14.53H36.4158Z" fill="white"/>
</svg>
