<svg width="451" height="340" viewBox="0 0 451 340" fill="none" xmlns="http://www.w3.org/2000/svg">
    <g clip-path="url(#clip0_398_2607)">
        <path opacity="0.24" d="M429.306 258.575C429.105 260.778 428.713 262.96 428.135 265.096C426.824 270.029 424.84 274.759 422.241 279.152C407.188 305.43 377.74 320.61 348.072 326.787C318.405 332.964 287.793 331.637 257.509 333.035C216.686 334.909 175.924 341.796 135.054 339.594C115.68 338.515 96.4729 335.403 77.7492 330.309C-12.5173 330.309 31.6089 192.424 36.8006 140.15C39.0413 117.629 41.6567 94.0218 54.5073 75.3972C69.7078 53.3287 96.6191 42.3335 122.953 37.5543C149.286 32.7752 176.369 33.0172 202.586 27.5275C245.361 18.547 286.716 -5.68461 329.843 1.21863C372.181 7.98911 406.532 48.3152 406.509 91.1871C406.509 121.283 392.854 151.208 400.693 181.179C407.508 207.215 431.96 230.267 429.306 258.575Z" fill="#5D5FEF" />
        <path opacity="0.24" d="M152.191 82.1515C142.44 83.8461 132.634 85.8452 123.632 89.9606C116.895 93.0296 110.75 97.2309 104.684 101.479C86.3998 114.294 67.7016 128.998 60.0272 149.973C56.8066 158.797 55.7485 168.264 56.9419 177.58C58.1352 186.897 61.5451 195.791 66.8855 203.517C72.2258 211.243 79.3408 217.576 87.6335 221.983C95.9262 226.39 105.155 228.743 114.545 228.845C108.954 224.306 104.363 218.659 101.06 212.259C97.7565 205.86 95.8123 198.846 95.3497 191.658C94.887 184.471 95.9158 177.266 98.3713 170.495C100.827 163.724 104.656 157.535 109.618 152.316C115.489 146.139 122.797 141.485 130.456 137.744C154.939 125.797 182.959 123.001 210.182 124.071C237.406 125.141 247.813 118.698 274.982 120.947C268.916 105.844 278.05 102.416 269.423 88.6097C256.744 68.306 243.066 71.7264 221.433 73.6162C198.261 75.7168 175.105 78.1689 152.191 82.1515Z" fill="#5D5FEF" />
        <path d="M147.78 78.7238C138.029 80.4184 128.223 82.4175 119.221 86.5329C112.491 89.6019 106.339 93.8032 100.281 98.0513C81.9965 110.874 63.2983 125.578 55.6317 146.554C52.4113 155.376 51.3532 164.842 52.5461 174.158C53.7391 183.475 57.1483 192.369 62.4877 200.094C67.8272 207.82 74.9412 214.153 83.2329 218.56C91.5245 222.968 100.752 225.322 110.141 225.425C104.557 220.886 99.9705 215.241 96.6709 208.845C93.3714 202.448 91.4297 195.439 90.9678 188.256C90.506 181.073 91.5339 173.872 93.987 167.105C96.4401 160.339 100.265 154.153 105.223 148.935C111.086 142.758 118.394 138.104 126.052 134.364C150.543 122.416 178.563 119.62 205.787 120.69C233.011 121.76 248.82 124.704 275.966 126.937C269.899 111.834 273.623 99.0196 265.036 85.2132C252.357 64.9095 238.686 68.3299 217.053 70.2197C193.85 72.2891 170.702 74.7412 147.78 78.7238Z" fill="url(#paint0_linear_398_2607)" />
        <path opacity="0.24" d="M428.166 265.095C426.855 270.028 424.872 274.758 422.272 279.151C407.22 305.429 377.771 320.61 348.104 326.787C318.436 332.964 287.825 331.636 257.541 333.034C216.686 334.908 175.924 341.796 135.054 339.593C115.68 338.514 96.4731 335.402 77.7493 330.308C65.2032 326.888 39.2756 322.429 31.687 310.786C26.9403 303.531 26.1596 289.935 26.0034 278.487C28.8452 278.932 31.6558 279.604 34.1385 279.838C42.539 280.619 51.041 280.705 59.4649 280.963C77.3017 281.541 95.1515 281.923 113.014 282.111C184.117 282.866 255.162 280.523 326.15 275.083C360.22 272.459 394.226 269.129 428.166 265.095Z" fill="#5D5FEF" />
        <path d="M135.811 226.222H125.186V291.787H135.811V226.222Z" fill="#5D5FEF" />
        <path d="M135.811 226.222H125.186V291.787H135.811V226.222Z" fill="url(#paint1_linear_398_2607)" />
        <path d="M160.802 206.098V232.078H87.9844V206.098C87.9854 204.319 88.3368 202.557 89.0186 200.915C89.7004 199.272 90.6991 197.779 91.9577 196.522C93.2164 195.265 94.7102 194.269 96.354 193.59C97.9978 192.911 99.7592 192.562 101.538 192.564H147.256C150.846 192.564 154.289 193.99 156.829 196.527C159.369 199.065 160.798 202.507 160.802 206.098Z" fill="#5D5FEF" />
        <path d="M101.593 194.821C103.13 194.821 104.653 195.124 106.074 195.713C107.495 196.302 108.786 197.164 109.873 198.252C110.961 199.34 111.823 200.631 112.412 202.052C113 203.473 113.303 204.997 113.303 206.535V231.93H89.8818V206.551C89.8798 205.011 90.1812 203.486 90.7688 202.063C91.3564 200.64 92.2187 199.347 93.3063 198.258C94.394 197.168 95.6856 196.304 97.1075 195.714C98.5293 195.125 100.053 194.821 101.593 194.821Z" fill="url(#paint2_linear_398_2607)" />
        <path d="M160.81 206.098V232.071H115.942V204.575C114.599 197.39 109.54 194.087 105.387 192.564H147.257C150.848 192.562 154.293 193.987 156.834 196.525C159.376 199.062 160.806 202.506 160.81 206.098Z" fill="url(#paint3_linear_398_2607)" />
        <path d="M114.076 228.354H66.468C65.4374 228.354 64.6021 229.187 64.6021 230.216C64.6021 231.245 65.4374 232.078 66.468 232.078H114.076C115.107 232.078 115.942 231.245 115.942 230.216C115.942 229.187 115.107 228.354 114.076 228.354Z" fill="#5D5FEF" />
        <path d="M114.076 228.354H66.468C65.4374 228.354 64.6021 229.187 64.6021 230.216C64.6021 231.245 65.4374 232.078 66.468 232.078H114.076C115.107 232.078 115.942 231.245 115.942 230.216C115.942 229.187 115.107 228.354 114.076 228.354Z" fill="url(#paint4_linear_398_2607)" />
        <path opacity="0.24" d="M102.35 286.04C96.1586 287.149 90.0222 288.578 83.7686 289.163C79.7089 289.554 75.2276 289.757 72.2843 292.584C71.5839 293.185 71.1192 294.015 70.9727 294.926C70.8087 296.879 72.8464 298.245 74.6733 298.964C80.0056 301.072 85.7907 301.673 91.5133 302.04C100.819 302.626 110.157 302.642 119.494 302.65H147.288C155.501 302.65 164.604 302.314 170.483 296.59C171.724 295.517 172.566 294.055 172.872 292.443C173.2 289.835 171.217 287.375 168.82 286.282C164.674 284.392 158.468 284.782 153.986 284.283C148.079 283.673 142.169 283.325 136.256 283.236C124.891 283.102 113.539 284.041 102.35 286.04Z" fill="#5D5FEF" />
        <path d="M141.315 210.041C141.214 210.377 140.917 211.384 140.831 211.752L139.84 215.43C139.791 215.592 139.768 215.76 139.769 215.929C139.764 215.987 139.772 216.045 139.792 216.1C139.813 216.154 139.845 216.203 139.887 216.243C139.93 216.283 139.98 216.312 140.035 216.33C140.091 216.347 140.149 216.352 140.207 216.343C140.589 216.311 140.952 216.161 141.245 215.914C141.682 215.521 142.028 215.039 142.26 214.5C142.492 213.96 142.604 213.377 142.588 212.79C142.606 212.078 142.441 211.373 142.107 210.744C141.773 210.115 141.283 209.582 140.683 209.198C139.772 208.709 138.749 208.469 137.716 208.503C134.219 208.503 131.767 210.846 131.767 214.102C131.767 217.358 133.977 219.334 137.318 219.334C138.177 219.334 139.032 219.21 139.855 218.967C140.513 218.764 141.138 218.47 141.713 218.092L142.721 219.553C142.079 219.967 141.382 220.29 140.652 220.513C139.513 220.859 138.329 221.036 137.138 221.037C136.142 221.094 135.144 220.949 134.205 220.611C133.266 220.273 132.405 219.748 131.673 219.069C131.044 218.419 130.55 217.652 130.221 216.81C129.891 215.968 129.732 215.069 129.753 214.165C129.728 213.211 129.894 212.263 130.242 211.375C130.589 210.487 131.11 209.678 131.775 208.995C132.581 208.218 133.539 207.616 134.588 207.225C135.637 206.834 136.755 206.663 137.872 206.722C141.737 206.722 144.485 209.206 144.485 212.673C144.501 213.408 144.371 214.139 144.103 214.824C143.835 215.509 143.434 216.134 142.924 216.663C142.519 217.085 142.034 217.423 141.498 217.656C140.962 217.889 140.385 218.014 139.801 218.022C139.529 218.041 139.256 217.991 139.008 217.878C138.76 217.765 138.544 217.592 138.38 217.374C138.288 217.22 138.237 217.046 138.231 216.866C137.969 217.203 137.63 217.472 137.243 217.652C136.857 217.833 136.433 217.919 136.006 217.905C134.367 217.905 133.329 216.679 133.329 214.781C133.329 211.986 135.163 209.666 137.365 209.666C137.73 209.619 138.101 209.682 138.429 209.847C138.758 210.013 139.029 210.274 139.207 210.596L139.371 210.01L141.315 210.041ZM137.904 214.969C138.301 214.174 138.525 213.303 138.559 212.415C138.559 211.736 138.185 211.267 137.599 211.267C137.244 211.296 136.905 211.424 136.618 211.635C136.331 211.845 136.109 212.132 135.975 212.462C135.57 213.229 135.343 214.078 135.312 214.945C135.312 215.828 135.647 216.289 136.28 216.289C136.912 216.289 137.466 215.812 137.904 214.969Z" fill="#5D5FEF" />
        <path d="M377.568 91.8271L275.965 126.976L260.429 93.4514L377.568 91.8271Z" fill="#5D5FEF" />
        <path d="M377.568 91.8271L275.965 126.976L260.429 93.4514L377.568 91.8271Z" fill="url(#paint5_linear_398_2607)" />
        <path d="M265.605 105.048L354.1 99.1677L377.568 91.8271L260.429 93.4514L265.605 105.048Z" fill="url(#paint6_linear_398_2607)" />
        <path d="M239.912 56.335L384.095 92.8971L258.673 77.9271L239.912 56.335Z" fill="#5D5FEF" />
        <path d="M174.589 99.23L258.673 77.9268L384.095 92.8968L174.589 99.23Z" fill="#5D5FEF" />
        <path d="M239.912 56.335L384.095 92.8971L258.673 77.9271L239.912 56.335Z" fill="url(#paint7_linear_398_2607)" />
        <path d="M199.334 112.292L169.127 111.369L168.558 129.993L198.766 130.916L199.334 112.292Z" fill="#5D5FEF" />
        <path d="M198.776 130.911L168.57 129.99L169.132 111.365L199.932 112.06L198.776 130.911Z" fill="url(#paint8_linear_398_2607)" />
        <path d="M169.132 111.365L183.818 127.21L199.448 112.568L169.132 111.365Z" fill="url(#paint9_linear_398_2607)" />
        <path d="M145.086 98.5649L117.822 85.5225L109.785 102.331L137.049 115.374L145.086 98.5649Z" fill="#5D5FEF" />
        <path d="M137.045 115.38L109.782 102.331L117.824 85.5254L145.711 98.6056L137.045 115.38Z" fill="url(#paint10_linear_398_2607)" />
        <path d="M117.824 85.5254L124.858 105.954L145.063 98.8633L117.824 85.5254Z" fill="url(#paint11_linear_398_2607)" />
        <path d="M102.784 141.202L84.0283 147.691L88.0274 159.256L106.783 152.767L102.784 141.202Z" fill="#5D5FEF" />
        <path d="M106.784 152.777L88.0236 159.266L84.0264 147.701L103.091 140.938L106.784 152.777Z" fill="url(#paint12_linear_398_2607)" />
        <path d="M84.0264 147.701L96.7364 153.995L102.912 141.36L84.0264 147.701Z" fill="url(#paint13_linear_398_2607)" />
        <path d="M72.4882 128.896L54.168 135.234L58.0726 146.526L76.3929 140.188L72.4882 128.896Z" fill="#5D5FEF" />
        <path d="M76.3833 140.196L58.0676 146.529L54.1641 135.237L72.7763 128.631L76.3833 140.196Z" fill="url(#paint14_linear_398_2607)" />
        <path d="M54.1641 135.238L66.5775 141.391L72.6046 129.045L54.1641 135.238Z" fill="url(#paint15_linear_398_2607)" />
        <path d="M77.5547 182.445L63.3506 177.829L60.5062 186.585L74.7103 191.202L77.5547 182.445Z" fill="#5D5FEF" />
        <path d="M74.6968 191.197L60.4956 186.59L63.3452 177.828L77.8509 182.42L74.6968 191.197Z" fill="url(#paint16_linear_398_2607)" />
        <path d="M63.3452 177.828L68.1154 187.379L77.5543 182.592L63.3452 177.828Z" fill="url(#paint17_linear_398_2607)" />
        <path d="M204.73 59.1436L179.599 69.0303L185.691 84.524L210.822 74.6373L204.73 59.1436Z" fill="#5D5FEF" />
        <path d="M210.822 74.6474L185.691 84.5337L179.594 69.0404L205.131 58.7637L210.822 74.6474Z" fill="url(#paint18_linear_398_2607)" />
        <path d="M179.594 69.0397L197.238 76.88L204.912 59.3486L179.594 69.0397Z" fill="url(#paint19_linear_398_2607)" />
        <path d="M308.631 59.5649L276.014 56.3545L274.035 76.4673L306.652 79.6777L308.631 59.5649Z" fill="#5D5FEF" />
        <path d="M306.663 79.6685L274.037 76.459L276.02 56.3428L309.286 59.3571L306.663 79.6685Z" fill="url(#paint20_linear_398_2607)" />
        <path d="M276.02 56.3428L290.752 74.5614L308.732 59.8647L276.02 56.3428Z" fill="url(#paint21_linear_398_2607)" />
        <path d="M174.589 99.23L258.673 77.9268L384.095 92.8968L174.589 99.23Z" fill="url(#paint22_linear_398_2607)" />
    </g>
    <defs>
        <linearGradient id="paint0_linear_398_2607" x1="173.364" y1="196.883" x2="136.137" y2="7.85979" gradientUnits="userSpaceOnUse">
            <stop stop-color="white" stop-opacity="0" />
            <stop offset="0.95" stop-color="white" />
        </linearGradient>
        <linearGradient id="paint1_linear_398_2607" x1="130.775" y1="283.212" x2="129.979" y2="213.305" gradientUnits="userSpaceOnUse">
            <stop stop-color="#010101" stop-opacity="0" />
            <stop offset="0.95" stop-color="#010101" />
        </linearGradient>
        <linearGradient id="paint2_linear_398_2607" x1="89.8662" y1="213.384" x2="113.319" y2="213.384" gradientUnits="userSpaceOnUse">
            <stop stop-color="#010101" stop-opacity="0" />
            <stop offset="0.95" stop-color="#010101" />
        </linearGradient>
        <linearGradient id="paint3_linear_398_2607" x1="134.297" y1="191.979" x2="130.04" y2="264.26" gradientUnits="userSpaceOnUse">
            <stop stop-color="#010101" stop-opacity="0" />
            <stop offset="0.95" stop-color="#010101" />
        </linearGradient>
        <linearGradient id="paint4_linear_398_2607" x1="90.0066" y1="225.745" x2="90.5377" y2="234.788" gradientUnits="userSpaceOnUse">
            <stop stop-color="#010101" stop-opacity="0" />
            <stop offset="0.95" stop-color="#010101" />
        </linearGradient>
        <linearGradient id="paint5_linear_398_2607" x1="314.338" y1="124.227" x2="325.726" y2="47.1053" gradientUnits="userSpaceOnUse">
            <stop stop-color="white" stop-opacity="0" />
            <stop offset="0.95" stop-color="white" />
        </linearGradient>
        <linearGradient id="paint6_linear_398_2607" x1="318.226" y1="103.564" x2="323.373" y2="30.5962" gradientUnits="userSpaceOnUse">
            <stop stop-color="#010101" stop-opacity="0" />
            <stop offset="0.95" stop-color="#010101" />
        </linearGradient>
        <linearGradient id="paint7_linear_398_2607" x1="315.314" y1="49.6504" x2="307.229" y2="110.615" gradientUnits="userSpaceOnUse">
            <stop stop-color="white" stop-opacity="0" />
            <stop offset="0.95" stop-color="white" />
        </linearGradient>
        <linearGradient id="paint8_linear_398_2607" x1="191.942" y1="67.7277" x2="182.086" y2="133.605" gradientUnits="userSpaceOnUse">
            <stop stop-color="white" stop-opacity="0" />
            <stop offset="0.95" stop-color="white" />
        </linearGradient>
        <linearGradient id="paint9_linear_398_2607" x1="-632.762" y1="-878.537" x2="-590.374" y2="-827.172" gradientUnits="userSpaceOnUse">
            <stop stop-color="white" stop-opacity="0" />
            <stop offset="0.95" stop-color="white" />
        </linearGradient>
        <linearGradient id="paint10_linear_398_2607" x1="156.307" y1="54.8342" x2="120.697" y2="111.113" gradientUnits="userSpaceOnUse">
            <stop stop-color="white" stop-opacity="0" />
            <stop offset="0.95" stop-color="white" />
        </linearGradient>
        <linearGradient id="paint11_linear_398_2607" x1="-216.122" y1="-1143.94" x2="-198.082" y2="-1079.82" gradientUnits="userSpaceOnUse">
            <stop stop-color="white" stop-opacity="0" />
            <stop offset="0.95" stop-color="white" />
        </linearGradient>
        <linearGradient id="paint12_linear_398_2607" x1="87.8337" y1="115.568" x2="97.1778" y2="158.302" gradientUnits="userSpaceOnUse">
            <stop stop-color="white" stop-opacity="0" />
            <stop offset="0.95" stop-color="white" />
        </linearGradient>
        <linearGradient id="paint13_linear_398_2607" x1="-639.192" y1="-272.673" x2="-601.184" y2="-251.035" gradientUnits="userSpaceOnUse">
            <stop stop-color="white" stop-opacity="0" />
            <stop offset="0.95" stop-color="white" />
        </linearGradient>
        <linearGradient id="paint14_linear_398_2607" x1="57.8833" y1="103.867" x2="67.0001" y2="145.595" gradientUnits="userSpaceOnUse">
            <stop stop-color="white" stop-opacity="0" />
            <stop offset="0.95" stop-color="white" />
        </linearGradient>
        <linearGradient id="paint15_linear_398_2607" x1="-652.106" y1="-275.277" x2="-614.99" y2="-254.156" gradientUnits="userSpaceOnUse">
            <stop stop-color="white" stop-opacity="0" />
            <stop offset="0.95" stop-color="white" />
        </linearGradient>
        <linearGradient id="paint16_linear_398_2607" x1="80.2061" y1="160.299" x2="66.4239" y2="190.184" gradientUnits="userSpaceOnUse">
            <stop stop-color="white" stop-opacity="0" />
            <stop offset="0.95" stop-color="white" />
        </linearGradient>
        <linearGradient id="paint17_linear_398_2607" x1="-180.116" y1="-402.605" x2="-167.113" y2="-372.373" gradientUnits="userSpaceOnUse">
            <stop stop-color="white" stop-opacity="0" />
            <stop offset="0.95" stop-color="white" />
        </linearGradient>
        <linearGradient id="paint18_linear_398_2607" x1="182.953" y1="25.1442" x2="198.076" y2="82.7014" gradientUnits="userSpaceOnUse">
            <stop stop-color="white" stop-opacity="0" />
            <stop offset="0.95" stop-color="white" />
        </linearGradient>
        <linearGradient id="paint19_linear_398_2607" x1="-827.412" y1="-461.367" x2="-774.518" y2="-434.117" gradientUnits="userSpaceOnUse">
            <stop stop-color="white" stop-opacity="0" />
            <stop offset="0.95" stop-color="white" />
        </linearGradient>
        <linearGradient id="paint20_linear_398_2607" x1="303.894" y1="10.8278" x2="288.405" y2="81.3955" gradientUnits="userSpaceOnUse">
            <stop stop-color="white" stop-opacity="0" />
            <stop offset="0.95" stop-color="white" />
        </linearGradient>
        <linearGradient id="paint21_linear_398_2607" x1="-519.272" y1="-1073.51" x2="-477.161" y2="-1014.83" gradientUnits="userSpaceOnUse">
            <stop stop-color="white" stop-opacity="0" />
            <stop offset="0.95" stop-color="white" />
        </linearGradient>
        <linearGradient id="paint22_linear_398_2607" x1="279.9" y1="70.6955" x2="278.432" y2="137.541" gradientUnits="userSpaceOnUse">
            <stop stop-color="white" stop-opacity="0" />
            <stop offset="0.39" stop-color="white" />
        </linearGradient>
        <clipPath id="clip0_398_2607">
            <rect width="451" height="340" fill="white" />
        </clipPath>
    </defs>
</svg>
    