<svg width="100" height="82" viewBox="0 0 100 82" fill="none" xmlns="http://www.w3.org/2000/svg">
<path d="M70.7425 68.3335H20.8066C18.5179 68.3335 16.6453 66.796 16.6453 64.9168V23.9168C16.6453 22.0377 14.7727 20.5002 12.484 20.5002C10.1952 20.5002 8.32263 22.0377 8.32263 23.9168V68.3335C8.32263 72.0918 12.0678 75.1668 16.6453 75.1668H70.7425C73.0312 75.1668 74.9038 73.6293 74.9038 71.7502C74.9038 69.871 73.0312 68.3335 70.7425 68.3335ZM83.2265 6.8335H33.2906C28.7131 6.8335 24.9679 9.9085 24.9679 13.6668V54.6668C24.9679 58.4252 28.7131 61.5002 33.2906 61.5002H83.2265C87.8039 61.5002 91.5491 58.4252 91.5491 54.6668V13.6668C91.5491 9.9085 87.8039 6.8335 83.2265 6.8335ZM83.2265 41.0002L72.8232 35.8752L62.4198 41.0002V13.6668H83.2265V41.0002Z" fill="url(#paint0_linear_259_2486)"/>
<defs>
<linearGradient id="paint0_linear_259_2486" x1="49.9359" y1="6.8335" x2="49.9359" y2="75.1668" gradientUnits="userSpaceOnUse">
<stop stop-color="#A7A9FA"/>
<stop offset="0.255208" stop-color="#9A96F6"/>
<stop offset="0.5" stop-color="#8E84F3"/>
<stop offset="0.520833" stop-color="#8C83F3"/>
<stop offset="0.692708" stop-color="#8376F1"/>
<stop offset="1" stop-color="#7460ED"/>
</linearGradient>
</defs>
</svg>
