<svg width="94" height="94" viewBox="0 0 94 94" fill="none" xmlns="http://www.w3.org/2000/svg">
<path d="M8.72071 19.0937H79.3125V9.45871C79.3126 9.02405 79.2161 8.59479 79.0302 8.20191C78.8443 7.80903 78.5735 7.4623 78.2373 7.18674C77.9012 6.91118 77.508 6.71366 77.0863 6.60841C76.6646 6.50316 76.2248 6.49282 75.7986 6.57812L8.23602 17.6819C7.73293 17.782 7.26484 18.0122 6.87831 18.3494C6.49179 18.6867 6.20032 19.1192 6.0329 19.6041C6.88858 19.2658 7.80059 19.0926 8.72071 19.0937Z" fill="url(#paint0_linear_259_2496)"/>
<path d="M85.0957 23.5H8.7207C7.94163 23.5 7.19446 23.8095 6.64358 24.3604C6.09269 24.9113 5.7832 25.6584 5.7832 26.4375V79.3125C5.7832 80.0916 6.09269 80.8387 6.64358 81.3896C7.19446 81.9405 7.94163 82.25 8.7207 82.25H85.0957C85.8748 82.25 86.6219 81.9405 87.1728 81.3896C87.7237 80.8387 88.0332 80.0916 88.0332 79.3125V26.4375C88.0332 25.6584 87.7237 24.9113 87.1728 24.3604C86.6219 23.8095 85.8748 23.5 85.0957 23.5ZM67.5625 58.75C66.4005 58.75 65.2647 58.4054 64.2985 57.7599C63.3324 57.1143 62.5794 56.1968 62.1347 55.1233C61.69 54.0498 61.5737 52.8685 61.8004 51.7288C62.0271 50.5892 62.5866 49.5424 63.4082 48.7207C64.2299 47.8991 65.2767 47.3396 66.4163 47.1129C67.556 46.8862 68.7373 47.0025 69.8108 47.4472C70.8843 47.8919 71.8018 48.6449 72.4474 49.611C73.0929 50.5772 73.4375 51.713 73.4375 52.875C73.4375 54.4331 72.8185 55.9275 71.7168 57.0293C70.615 58.131 69.1206 58.75 67.5625 58.75Z" fill="url(#paint1_linear_259_2496)"/>
<path d="M5.75201 47.6426V21.2969C5.75201 19.0332 6.80217 17.9041 8.58303 17.625C15.0455 16.6097 28.5176 16.0645 28.5176 16.0645C28.5176 16.0645 26.9883 19.002 23.5 19.002V23.5C26.8965 23.5 29.252 27.8145 29.252 27.8145L15.5743 43.3281L5.75201 47.6426Z" fill="url(#paint2_linear_259_2496)"/>
<defs>
<linearGradient id="paint0_linear_259_2496" x1="42.6727" y1="6.521" x2="42.6727" y2="19.6041" gradientUnits="userSpaceOnUse">
<stop stop-color="#A7A9FA"/>
<stop offset="0.255208" stop-color="#9A96F6"/>
<stop offset="0.5" stop-color="#8E84F3"/>
<stop offset="0.520833" stop-color="#8C83F3"/>
<stop offset="0.692708" stop-color="#8376F1"/>
<stop offset="1" stop-color="#7460ED"/>
</linearGradient>
<linearGradient id="paint1_linear_259_2496" x1="46.9082" y1="23.5" x2="46.9082" y2="82.25" gradientUnits="userSpaceOnUse">
<stop stop-color="#A7A9FA"/>
<stop offset="0.255208" stop-color="#9A96F6"/>
<stop offset="0.5" stop-color="#8E84F3"/>
<stop offset="0.520833" stop-color="#8C83F3"/>
<stop offset="0.692708" stop-color="#8376F1"/>
<stop offset="1" stop-color="#7460ED"/>
</linearGradient>
<linearGradient id="paint2_linear_259_2496" x1="17.502" y1="16.0645" x2="17.502" y2="47.6426" gradientUnits="userSpaceOnUse">
<stop stop-color="#A7A9FA"/>
<stop offset="0.255208" stop-color="#9A96F6"/>
<stop offset="0.5" stop-color="#8E84F3"/>
<stop offset="0.520833" stop-color="#8C83F3"/>
<stop offset="0.692708" stop-color="#8376F1"/>
<stop offset="1" stop-color="#7460ED"/>
</linearGradient>
</defs>
</svg>
