<?xml version="1.0" standalone="no"?>
<!DOCTYPE svg PUBLIC "-//W3C//DTD SVG 20010904//EN"
 "http://www.w3.org/TR/2001/REC-SVG-20010904/DTD/svg10.dtd">
<svg version="1.0" xmlns="http://www.w3.org/2000/svg"
 width="260.000000pt" height="280.000000pt" viewBox="0 0 260.000000 280.000000"
 preserveAspectRatio="xMidYMid meet">
<metadata>
Created by potrace 1.16, written by Peter Selinger 2001-2019
</metadata>
<g transform="translate(0.000000,280.000000) scale(0.100000,-0.100000)"
fill="#ffffff" stroke="none">
<path d="M1145 2464 c-11 -3 -56 -14 -99 -25 -329 -83 -599 -357 -692 -704
-27 -100 -27 -370 0 -470 95 -353 356 -614 711 -711 109 -30 380 -27 490 4
394 113 677 449 714 850 37 407 -179 790 -544 967 -147 71 -215 87 -400 91
-88 1 -169 1 -180 -2z m370 -114 c309 -79 552 -322 636 -635 30 -114 31 -317
0 -430 -84 -313 -323 -552 -636 -636 -63 -17 -108 -22 -215 -22 -162 0 -248
20 -387 88 -226 111 -383 300 -459 552 -24 78 -27 105 -27 233 0 128 3 155 27
233 103 343 375 583 721 637 86 13 247 4 340 -20z"/>
<path d="M848 1931 l-33 -29 0 -427 0 -427 33 -29 c41 -37 99 -40 136 -6 32
28 236 326 236 344 0 29 -37 10 -124 -64 -50 -42 -99 -83 -108 -91 -17 -14
-18 -1 -18 267 0 156 4 281 8 279 5 -1 147 -165 316 -363 169 -198 319 -368
334 -377 54 -36 146 -15 170 37 16 36 17 826 1 858 -29 56 -113 77 -158 40
-27 -24 -233 -324 -235 -343 -2 -32 37 -11 137 73 58 48 107 87 111 87 3 0 6
-126 6 -280 0 -154 -4 -280 -9 -280 -4 0 -151 167 -325 370 -175 204 -326 375
-336 380 -10 6 -39 10 -64 10 -36 0 -52 -6 -78 -29z"/>
</g>
</svg>
