<?xml version="1.0" standalone="no"?>
<!DOCTYPE svg PUBLIC "-//W3C//DTD SVG 20010904//EN"
 "http://www.w3.org/TR/2001/REC-SVG-20010904/DTD/svg10.dtd">
<svg version="1.0" xmlns="http://www.w3.org/2000/svg"
 width="225.000000pt" height="225.000000pt" viewBox="0 0 225.000000 225.000000"
 preserveAspectRatio="xMidYMid meet">
<metadata>
Created by potrace 1.16, written by Peter Selinger 2001-2019
</metadata>
<g transform="translate(0.000000,225.000000) scale(0.100000,-0.100000)"
fill="#ffffff" stroke="none">
<path d="M915 2185 c-38 -7 -111 -29 -161 -48 -321 -124 -555 -392 -641 -735
-27 -106 -25 -372 4 -479 50 -188 143 -351 275 -483 197 -197 447 -300 729
-300 284 0 529 101 730 299 311 309 393 780 205 1174 -71 147 -163 263 -293
368 -129 103 -299 180 -457 208 -81 15 -305 12 -391 -4z m275 -376 c181 -50
336 -178 422 -351 38 -77 68 -190 68 -257 l0 -41 111 0 c110 0 111 0 141 -30
27 -28 30 -36 25 -76 -8 -72 -71 -187 -144 -265 -211 -224 -546 -353 -825
-319 -294 36 -548 243 -635 518 -23 75 -25 93 -21 200 8 186 62 314 188 442
176 180 426 247 670 179z"/>
<path d="M599 1365 c-36 -19 -49 -62 -49 -157 0 -115 26 -152 105 -150 19 0
38 10 53 27 20 23 22 37 22 131 0 103 -1 106 -29 135 -32 32 -62 36 -102 14z"/>
<path d="M899 1351 c-28 -29 -29 -32 -29 -134 0 -90 3 -108 21 -131 16 -21 29
-26 62 -26 47 0 56 5 80 40 13 18 17 46 17 106 0 99 -13 140 -51 159 -42 22
-67 18 -100 -14z"/>
</g>
</svg>
