<svg width="18" height="18" viewBox="0 0 18 18" fill="none" xmlns="http://www.w3.org/2000/svg">
<path d="M12.75 2.25H5.25C4.42157 2.25 3.75 2.92157 3.75 3.75V5.25C3.75 6.07843 4.42157 6.75 5.25 6.75H12.75C13.5784 6.75 14.25 6.07843 14.25 5.25V3.75C14.25 2.92157 13.5784 2.25 12.75 2.25Z" stroke="white" stroke-width="2" stroke-linecap="round" stroke-linejoin="round"/>
<path d="M14.25 4.5H15C15.3978 4.5 15.7794 4.65804 16.0607 4.93934C16.342 5.22064 16.5 5.60218 16.5 6C16.5 6.99456 16.1049 7.94839 15.4017 8.65165C14.6984 9.35491 13.7446 9.75 12.75 9.75H9V11.25" stroke="white" stroke-width="2" stroke-linecap="round" stroke-linejoin="round"/>
<path d="M9.75 11.25H8.25C7.83579 11.25 7.5 11.5858 7.5 12V15C7.5 15.4142 7.83579 15.75 8.25 15.75H9.75C10.1642 15.75 10.5 15.4142 10.5 15V12C10.5 11.5858 10.1642 11.25 9.75 11.25Z" stroke="white" stroke-width="2" stroke-linecap="round" stroke-linejoin="round"/>
</svg>
