<svg width="19" height="19" viewBox="0 0 19 19" fill="none" xmlns="http://www.w3.org/2000/svg">
<path d="M16.0314 5.93855C17.6053 5.93855 18.8932 7.16345 18.9937 8.71198L19 8.90716V16.0314C19 17.6054 17.7752 18.8932 16.2266 18.9937L16.0314 19H8.90716C7.33322 19 6.04538 17.7752 5.94487 16.2266L5.93855 16.0314V8.90716C5.93855 7.33323 7.16344 6.04538 8.71198 5.94487L8.90716 5.93855H16.0314ZM16.0314 7.12599H8.90716C7.98132 7.12599 7.22046 7.83239 7.13415 8.73562L7.12599 8.90716V16.0314C7.12599 16.9572 7.83239 17.7182 8.73562 17.8045L8.90716 17.8126H16.0314C16.9572 17.8126 17.7182 17.1061 17.8045 16.203L17.8126 16.0314V8.90716C17.8126 7.98132 17.1061 7.22047 16.203 7.13415L16.0314 7.12599ZM12.4693 8.31344C12.7608 8.31344 13.0032 8.52347 13.0534 8.80044L13.063 8.90716L13.0618 11.8756L16.0319 11.8758C16.3597 11.8758 16.6256 12.1416 16.6256 12.4695C16.6256 12.7609 16.4155 13.0034 16.1385 13.0536L16.0319 13.0633L13.0618 13.063L13.063 16.0319C13.063 16.3597 12.7972 16.6256 12.4693 16.6256C12.1778 16.6256 11.9354 16.4155 11.8851 16.1385L11.8756 16.0319L11.8744 13.063L8.90716 13.0633C8.57926 13.0633 8.31343 12.7974 8.31343 12.4695C8.31343 12.178 8.52347 11.9356 8.80044 11.8853L8.90716 11.8758L11.8744 11.8756L11.8756 8.90716C11.8756 8.57926 12.1415 8.31344 12.4693 8.31344ZM12.6617 2.01411L12.7183 2.20102L13.4014 4.75095H12.1713L11.5714 2.50835C11.3317 1.61405 10.4524 1.06195 9.5577 1.21235L9.38986 1.24888L2.50835 3.09277C1.61405 3.3324 1.06195 4.21164 1.21235 5.10644L1.24888 5.27424L3.09277 12.1557C3.30049 12.931 3.98884 13.4491 4.75131 13.4753L4.75144 14.6635C3.53198 14.6386 2.41906 13.8581 2.00775 12.6656L1.94579 12.4631L0.10189 5.58157C-0.305474 4.06126 0.544354 2.50028 2.01411 2.0024L2.20101 1.94579L9.08253 0.101891C10.5395 -0.288504 12.0337 0.475722 12.594 1.83367L12.6617 2.01411Z" fill="white"/>
</svg>
