<svg width="31" height="32" viewBox="0 0 31 32" fill="none" xmlns="http://www.w3.org/2000/svg">
    <path fill-rule="evenodd" clip-rule="evenodd" d="M15.5 2.30835C11.3625 2.30835 8.00835 5.66249 8.00835 9.80002C8.00835 13.216 10.2946 16.0979 13.4204 16.9993C10.9527 17.3 8.8362 18.1728 7.24176 19.7441C5.21248 21.7441 4.18506 24.7214 4.18506 28.6065C4.18506 29.1488 4.62458 29.5881 5.16673 29.5881C5.7089 29.5881 6.14839 29.1488 6.14839 28.6065C6.14839 25.0518 7.08426 22.6559 8.6199 21.1425C10.1584 19.6263 12.4553 18.8417 15.4999 18.8417C18.5446 18.8417 20.8415 19.6263 22.3802 21.1425C23.9157 22.6559 24.8517 25.0518 24.8517 28.6065C24.8517 29.1488 25.2911 29.5881 25.8334 29.5881C26.3754 29.5884 26.815 29.1488 26.815 28.6067C26.815 24.7214 25.7875 21.7441 23.7582 19.7441C22.1638 18.1728 20.0472 17.3 17.5796 16.9993C20.7053 16.098 22.9917 13.216 22.9917 9.80002C22.9917 5.66249 19.6375 2.30835 15.5 2.30835ZM9.97168 9.80002C9.97168 6.74681 12.4468 4.27168 15.5 4.27168C18.5532 4.27168 21.0284 6.74681 21.0284 9.80002C21.0284 12.8532 18.5532 15.3284 15.5 15.3284C12.4468 15.3284 9.97168 12.8532 9.97168 9.80002Z" fill="white" />
</svg>
    