<svg width="22" height="18" viewBox="0 0 22 18" fill="none" xmlns="http://www.w3.org/2000/svg">
<path fill-rule="evenodd" clip-rule="evenodd" d="M2.17904 10.9998C0.525321 11.0045 -0.542196 12.8884 0.476601 14.3157C1.93562 16.3596 4.58137 18 8.99839 18C15.8435 18 21.3381 12.4217 20.5689 5.8311L21.6958 3.5773C22.4773 2.01428 21.1193 0.23622 19.4057 0.57894L17.9169 0.87669C17.5222 0.66843 17.1137 0.51127 16.7646 0.39741C16.0842 0.17552 15.2607 0 14.4984 0C13.1291 0 11.9473 0.35131 11.0081 1.05593C10.0796 1.75264 9.55659 2.66825 9.26959 3.50905C9.13729 3.89661 9.04919 4.28534 8.99266 4.65843C8.46139 4.49123 7.91968 4.26626 7.38934 3.99155C6.18614 3.36832 5.21319 2.57822 4.66434 1.88551C3.74351 0.7233 1.79207 0.80947 1.10729 2.32021C0.142151 4.44947 0.406901 6.97346 1.27444 9.0129C1.56522 9.6964 1.94347 10.3721 2.40558 10.9983C2.32647 10.9992 2.25079 10.9996 2.17904 10.9998ZM8.99829 16C5.13495 16 3.13728 14.6007 2.10433 13.1537C2.05792 13.0887 2.10472 13 2.18459 12.9998C3.23543 12.9968 5.39243 12.9471 6.81503 12.1145C6.8886 12.0714 6.87241 11.9629 6.79161 11.9358C3.47544 10.8208 1.59041 6.09859 2.92879 3.1459C2.95948 3.0782 3.05048 3.06927 3.09665 3.12754C4.62552 5.05718 7.96832 6.9472 10.8767 6.99891C10.9398 7 10.9875 6.9427 10.9779 6.88033C10.8607 6.12053 10.4132 2 14.4983 2C15.4738 2 16.9252 2.47583 17.4598 2.9633C17.4845 2.98583 17.518 2.99606 17.5508 2.9895L19.7978 2.5401C19.8794 2.52378 19.9441 2.60845 19.9069 2.68288L18.5132 5.47019C18.5035 5.48954 18.5005 5.51175 18.5042 5.53306C19.4803 11.02 14.9863 16 8.99829 16Z" fill="white"/>
</svg>
