<svg width="1105" height="219" viewBox="0 0 1105 219" fill="none" xmlns="http://www.w3.org/2000/svg">
    <path d="M377.101 125.003C377.101 137.216 374.579 149.309 369.679 160.592C364.779 171.876 357.597 182.128 348.543 190.764C339.49 199.4 328.741 206.25 316.912 210.924C305.083 215.597 292.404 218.003 279.601 218.003C266.797 218.003 254.118 215.597 242.289 210.924C230.46 206.25 219.711 199.4 210.658 190.764C201.604 182.128 194.422 171.876 189.522 160.592C184.622 149.309 182.101 137.216 182.101 125.003L194.776 125.003C194.776 135.628 196.97 146.149 201.233 155.966C205.495 165.782 211.744 174.702 219.62 182.215C227.497 189.728 236.848 195.688 247.139 199.754C257.431 203.82 268.461 205.913 279.601 205.913C290.74 205.913 301.77 203.82 312.062 199.754C322.353 195.688 331.704 189.728 339.581 182.215C347.458 174.702 353.706 165.782 357.969 155.966C362.232 146.149 364.426 135.628 364.426 125.003L377.101 125.003Z" fill="url(#paint0_linear_0_1)" />
    <path d="M1105 125C1105 137.213 1102.48 149.306 1097.58 160.59C1092.68 171.873 1085.5 182.125 1076.44 190.761C1067.39 199.397 1056.64 206.247 1044.81 210.921C1032.98 215.594 1020.3 218 1007.5 218C994.696 218 982.018 215.594 970.188 210.921C958.359 206.247 947.611 199.397 938.557 190.761C929.503 182.125 922.322 171.873 917.422 160.59C912.522 149.306 910 137.213 910 125L922.675 125C922.675 135.625 924.869 146.146 929.132 155.963C933.395 165.779 939.643 174.699 947.52 182.212C955.396 189.725 964.747 195.685 975.039 199.751C985.33 203.817 996.361 205.91 1007.5 205.91C1018.64 205.91 1029.67 203.817 1039.96 199.751C1050.25 195.685 1059.6 189.725 1067.48 182.212C1075.36 174.699 1081.61 165.779 1085.87 155.963C1090.13 146.146 1092.32 135.625 1092.32 125L1105 125Z" fill="url(#paint1_linear_0_1)" />
    <path d="M741 125C741 137.213 738.479 149.306 733.579 160.59C728.679 171.873 721.497 182.125 712.443 190.761C703.39 199.397 692.641 206.247 680.812 210.921C668.983 215.594 656.304 218 643.5 218C630.697 218 618.018 215.594 606.189 210.921C594.36 206.247 583.611 199.397 574.558 190.761C565.504 182.125 558.322 171.873 553.422 160.59C548.522 149.306 546 137.213 546 125L558.675 125C558.675 135.625 560.87 146.146 565.132 155.963C569.395 165.779 575.643 174.699 583.52 182.212C591.397 189.725 600.748 195.685 611.039 199.751C621.331 203.817 632.361 205.91 643.5 205.91C654.64 205.91 665.67 203.817 675.962 199.751C686.253 195.685 695.604 189.725 703.481 182.212C711.358 174.699 717.606 165.779 721.869 155.963C726.131 146.146 728.325 135.625 728.325 125L741 125Z" fill="url(#paint2_linear_0_1)" />
    <path d="M0.552962 125.411C0.536835 113.287 3.03243 101.278 7.89725 90.0689C12.7621 78.8597 19.9009 68.6702 28.906 60.0821C37.9112 51.4939 48.6063 44.6754 60.3809 40.0157C72.1554 35.3561 84.7787 32.9466 97.53 32.9248C110.281 32.903 122.911 35.2694 134.698 39.8889C146.485 44.5083 157.198 51.2903 166.226 59.8476C175.254 68.405 182.42 78.5701 187.314 89.7626C192.209 100.955 194.737 112.956 194.753 125.079L182.13 125.101C182.116 114.553 179.917 104.113 175.658 94.3753C171.4 84.6379 165.166 75.7942 157.311 68.3493C149.457 60.9044 140.137 55.0041 129.882 50.9852C119.627 46.9663 108.64 44.9075 97.546 44.9265C86.4523 44.9454 75.4701 47.0417 65.2262 51.0956C54.9824 55.1495 45.6776 61.0816 37.8431 68.5533C30.0086 76.0249 23.7979 84.8898 19.5655 94.6418C15.3331 104.394 13.1619 114.842 13.1759 125.389L0.552962 125.411Z" fill="url(#paint3_linear_0_1)" />
    <path d="M728.123 125.652C728.107 113.528 730.602 101.519 735.467 90.3096C740.332 79.1005 747.471 68.9109 756.476 60.3228C765.481 51.7346 776.176 44.9161 787.951 40.2564C799.725 35.5968 812.349 33.1873 825.1 33.1655C837.851 33.1438 850.481 35.5102 862.268 40.1296C874.055 44.749 884.768 51.531 893.796 60.0884C902.824 68.6457 909.99 78.8108 914.884 90.0033C919.779 101.196 922.306 113.197 922.323 125.32L909.7 125.342C909.685 114.794 907.487 104.354 903.228 94.6161C898.97 84.8786 892.736 76.0349 884.881 68.59C877.027 61.1451 867.706 55.2448 857.452 51.2259C847.197 47.207 836.209 45.1483 825.116 45.1672C814.022 45.1861 803.04 47.2824 792.796 51.3363C782.552 55.3902 773.247 61.3223 765.413 68.794C757.578 76.2657 751.368 85.1306 747.135 94.8825C742.903 104.635 740.732 115.083 740.746 125.63L728.123 125.652Z" fill="url(#paint4_linear_0_1)" />
    <path d="M364.123 125.652C364.107 113.528 366.603 101.519 371.468 90.3096C376.332 79.1005 383.471 68.9109 392.476 60.3228C401.481 51.7346 412.177 44.9161 423.951 40.2564C435.726 35.5968 448.349 33.1873 461.1 33.1655C473.852 33.1438 486.481 35.5102 498.268 40.1296C510.055 44.749 520.768 51.531 529.796 60.0884C538.824 68.6457 545.99 78.8108 550.885 90.0033C555.779 101.196 558.307 113.197 558.323 125.32L545.7 125.342C545.686 114.794 543.487 104.354 539.229 94.6161C534.97 84.8786 528.736 76.0349 520.882 68.59C513.027 61.1451 503.707 55.2448 493.452 51.2259C483.198 47.207 472.21 45.1483 461.116 45.1672C450.023 45.1861 439.04 47.2824 428.797 51.3363C418.553 55.3902 409.248 61.3223 401.413 68.794C393.579 76.2657 387.368 85.1306 383.136 94.8825C378.903 104.635 376.732 115.083 376.746 125.63L364.123 125.652Z" fill="url(#paint5_linear_0_1)" />
    <path d="M60.735 13C60.6216 13 60.5253 12.9603 60.446 12.881C60.3666 12.8017 60.327 12.7053 60.327 12.592L60.327 1.525C60.327 1.40033 60.3666 1.29833 60.446 1.219C60.5253 1.13967 60.6216 1.1 60.735 1.1L64.883 1.1C66.0276 1.1 66.9683 1.27567 67.705 1.627C68.453 1.97833 69.014 2.49967 69.388 3.191C69.7733 3.88233 69.9716 4.72667 69.983 5.724C70.0056 6.22267 70.017 6.66467 70.017 7.05C70.017 7.43533 70.0056 7.87167 69.983 8.359C69.9603 9.413 69.7676 10.2857 69.405 10.977C69.0423 11.657 68.4926 12.167 67.756 12.507C67.0306 12.8357 66.1013 13 64.968 13L60.735 13ZM62.69 11.045L64.883 11.045C65.5176 11.045 66.0333 10.9543 66.43 10.773C66.8266 10.5917 67.1156 10.3027 67.297 9.906C67.4896 9.498 67.5916 8.96533 67.603 8.308C67.6143 7.968 67.62 7.67333 67.62 7.424C67.6313 7.16333 67.6313 6.90833 67.62 6.659C67.62 6.39833 67.6143 6.10367 67.603 5.775C67.5803 4.84567 67.348 4.16 66.906 3.718C66.464 3.276 65.7613 3.055 64.798 3.055L62.69 3.055L62.69 11.045ZM72.6881 13C72.5748 13 72.4784 12.9603 72.3991 12.881C72.3198 12.8017 72.2801 12.7053 72.2801 12.592L72.2801 1.525C72.2801 1.40033 72.3198 1.29833 72.3991 1.219C72.4784 1.13967 72.5748 1.1 72.6881 1.1L80.1681 1.1C80.2928 1.1 80.3948 1.13967 80.4741 1.219C80.5534 1.29833 80.5931 1.40033 80.5931 1.525L80.5931 2.647C80.5931 2.76033 80.5534 2.85667 80.4741 2.936C80.3948 3.01533 80.2928 3.055 80.1681 3.055L74.5751 3.055L74.5751 6.064L79.7941 6.064C79.9188 6.064 80.0208 6.10367 80.1001 6.183C80.1794 6.251 80.2191 6.34733 80.2191 6.472L80.2191 7.526C80.2191 7.65067 80.1794 7.75267 80.1001 7.832C80.0208 7.9 79.9188 7.934 79.7941 7.934L74.5751 7.934L74.5751 11.045L80.3041 11.045C80.4288 11.045 80.5308 11.0847 80.6101 11.164C80.6894 11.2433 80.7291 11.3453 80.7291 11.47L80.7291 12.592C80.7291 12.7053 80.6894 12.8017 80.6101 12.881C80.5308 12.9603 80.4288 13 80.3041 13L72.6881 13ZM87.3457 13.17C86.2917 13.17 85.3964 12.9887 84.6597 12.626C83.9344 12.252 83.379 11.725 82.9937 11.045C82.6084 10.3537 82.393 9.52633 82.3477 8.563C82.3364 8.09833 82.3307 7.59967 82.3307 7.067C82.3307 6.53433 82.3364 6.02433 82.3477 5.537C82.393 4.585 82.6084 3.76333 82.9937 3.072C83.3904 2.38067 83.9514 1.85367 84.6767 1.491C85.4134 1.117 86.303 0.93 87.3457 0.93C88.1164 0.93 88.8077 1.032 89.4197 1.236C90.0317 1.44 90.553 1.72333 90.9837 2.086C91.4144 2.43733 91.7487 2.851 91.9867 3.327C92.2247 3.803 92.3494 4.31867 92.3607 4.874C92.372 4.976 92.338 5.061 92.2587 5.129C92.1907 5.197 92.1057 5.231 92.0037 5.231L90.3887 5.231C90.264 5.231 90.162 5.20267 90.0827 5.146C90.0034 5.078 89.9467 4.97033 89.9127 4.823C89.7314 4.075 89.4197 3.565 88.9777 3.293C88.5357 3.021 87.986 2.885 87.3287 2.885C86.5694 2.885 85.963 3.10033 85.5097 3.531C85.0564 3.95033 84.8127 4.64733 84.7787 5.622C84.7447 6.55133 84.7447 7.50333 84.7787 8.478C84.8127 9.45267 85.0564 10.1553 85.5097 10.586C85.963 11.0053 86.5694 11.215 87.3287 11.215C87.986 11.215 88.5357 11.079 88.9777 10.807C89.4197 10.5237 89.7314 10.0137 89.9127 9.277C89.9467 9.11833 90.0034 9.01067 90.0827 8.954C90.162 8.89733 90.264 8.869 90.3887 8.869L92.0037 8.869C92.1057 8.869 92.1907 8.903 92.2587 8.971C92.338 9.039 92.372 9.124 92.3607 9.226C92.3494 9.78133 92.2247 10.297 91.9867 10.773C91.7487 11.249 91.4144 11.6683 90.9837 12.031C90.553 12.3823 90.0317 12.66 89.4197 12.864C88.8077 13.068 88.1164 13.17 87.3457 13.17ZM98.1085 13C97.9952 13 97.8989 12.9603 97.8195 12.881C97.7402 12.8017 97.7005 12.7053 97.7005 12.592L97.7005 11.725C97.7005 11.623 97.7232 11.504 97.7685 11.368C97.8252 11.2207 97.9442 11.0733 98.1255 10.926L100.812 8.257C101.56 7.66767 102.16 7.169 102.614 6.761C103.078 6.34167 103.413 5.962 103.617 5.622C103.832 5.27067 103.94 4.925 103.94 4.585C103.94 4.075 103.798 3.66133 103.515 3.344C103.243 3.02667 102.806 2.868 102.206 2.868C101.809 2.868 101.475 2.953 101.203 3.123C100.931 3.28167 100.715 3.497 100.557 3.769C100.409 4.041 100.307 4.34133 100.251 4.67C100.228 4.81733 100.166 4.91933 100.064 4.976C99.9615 5.03267 99.8595 5.061 99.7575 5.061L98.2445 5.061C98.1425 5.061 98.0575 5.027 97.9895 4.959C97.9215 4.891 97.8875 4.81167 97.8875 4.721C97.8989 4.23367 98.0009 3.76333 98.1935 3.31C98.3862 2.84533 98.6639 2.43733 99.0265 2.086C99.4005 1.72333 99.8539 1.43433 100.387 1.219C100.919 1.00367 101.52 0.896 102.189 0.896C103.129 0.896 103.906 1.05467 104.518 1.372C105.141 1.68933 105.606 2.12 105.912 2.664C106.229 3.208 106.388 3.82 106.388 4.5C106.388 5.03267 106.286 5.52567 106.082 5.979C105.878 6.421 105.583 6.85167 105.198 7.271C104.812 7.679 104.348 8.09833 103.804 8.529L101.39 10.977L106.235 10.977C106.359 10.977 106.456 11.0167 106.524 11.096C106.603 11.164 106.643 11.2603 106.643 11.385L106.643 12.592C106.643 12.7053 106.603 12.8017 106.524 12.881C106.456 12.9603 106.359 13 106.235 13L98.1085 13ZM113.037 13.17C112.232 13.17 111.547 13.051 110.98 12.813C110.413 12.575 109.949 12.2463 109.586 11.827C109.223 11.4077 108.951 10.926 108.77 10.382C108.589 9.82667 108.481 9.23733 108.447 8.614C108.436 8.308 108.424 7.97367 108.413 7.611C108.413 7.237 108.413 6.863 108.413 6.489C108.424 6.115 108.436 5.76933 108.447 5.452C108.47 4.82867 108.577 4.245 108.77 3.701C108.963 3.14567 109.24 2.664 109.603 2.256C109.977 1.848 110.447 1.525 111.014 1.287C111.581 1.049 112.255 0.93 113.037 0.93C113.83 0.93 114.51 1.049 115.077 1.287C115.644 1.525 116.108 1.848 116.471 2.256C116.845 2.664 117.123 3.14567 117.304 3.701C117.497 4.245 117.604 4.82867 117.627 5.452C117.65 5.76933 117.661 6.115 117.661 6.489C117.661 6.863 117.661 7.237 117.661 7.611C117.661 7.97367 117.65 8.308 117.627 8.614C117.604 9.23733 117.502 9.82667 117.321 10.382C117.14 10.926 116.868 11.4077 116.505 11.827C116.142 12.2463 115.672 12.575 115.094 12.813C114.527 13.051 113.842 13.17 113.037 13.17ZM113.037 11.215C113.774 11.215 114.312 10.977 114.652 10.501C115.003 10.0137 115.185 9.35633 115.196 8.529C115.219 8.20033 115.23 7.87167 115.23 7.543C115.23 7.203 115.23 6.863 115.23 6.523C115.23 6.183 115.219 5.86 115.196 5.554C115.185 4.74933 115.003 4.10333 114.652 3.616C114.312 3.11733 113.774 2.868 113.037 2.868C112.312 2.868 111.773 3.11733 111.422 3.616C111.082 4.10333 110.901 4.74933 110.878 5.554C110.878 5.86 110.872 6.183 110.861 6.523C110.861 6.863 110.861 7.203 110.861 7.543C110.872 7.87167 110.878 8.20033 110.878 8.529C110.901 9.35633 111.088 10.0137 111.439 10.501C111.79 10.977 112.323 11.215 113.037 11.215ZM119.807 13C119.693 13 119.597 12.9603 119.518 12.881C119.438 12.8017 119.399 12.7053 119.399 12.592L119.399 11.725C119.399 11.623 119.421 11.504 119.467 11.368C119.523 11.2207 119.642 11.0733 119.824 10.926L122.51 8.257C123.258 7.66767 123.858 7.169 124.312 6.761C124.776 6.34167 125.111 5.962 125.315 5.622C125.53 5.27067 125.638 4.925 125.638 4.585C125.638 4.075 125.496 3.66133 125.213 3.344C124.941 3.02667 124.504 2.868 123.904 2.868C123.507 2.868 123.173 2.953 122.901 3.123C122.629 3.28167 122.413 3.497 122.255 3.769C122.107 4.041 122.005 4.34133 121.949 4.67C121.926 4.81733 121.864 4.91933 121.762 4.976C121.66 5.03267 121.558 5.061 121.456 5.061L119.943 5.061C119.841 5.061 119.756 5.027 119.688 4.959C119.62 4.891 119.586 4.81167 119.586 4.721C119.597 4.23367 119.699 3.76333 119.892 3.31C120.084 2.84533 120.362 2.43733 120.725 2.086C121.099 1.72333 121.552 1.43433 122.085 1.219C122.617 1.00367 123.218 0.896001 123.887 0.896001C124.827 0.896001 125.604 1.05467 126.216 1.372C126.839 1.68933 127.304 2.12 127.61 2.664C127.927 3.208 128.086 3.82 128.086 4.5C128.086 5.03267 127.984 5.52567 127.78 5.979C127.576 6.421 127.281 6.85167 126.896 7.271C126.51 7.679 126.046 8.09833 125.502 8.529L123.088 10.977L127.933 10.977C128.057 10.977 128.154 11.0167 128.222 11.096C128.301 11.164 128.341 11.2603 128.341 11.385L128.341 12.592C128.341 12.7053 128.301 12.8017 128.222 12.881C128.154 12.9603 128.057 13 127.933 13L119.807 13ZM133.868 13C133.744 13 133.642 12.9603 133.562 12.881C133.494 12.8017 133.46 12.7053 133.46 12.592L133.46 3.786L130.876 5.775C130.774 5.843 130.672 5.87133 130.57 5.86C130.468 5.83733 130.378 5.775 130.298 5.673L129.584 4.755C129.516 4.653 129.488 4.54533 129.499 4.432C129.522 4.31867 129.584 4.228 129.686 4.16L133.494 1.219C133.562 1.16233 133.63 1.12833 133.698 1.117C133.766 1.10567 133.84 1.1 133.919 1.1L135.415 1.1C135.529 1.1 135.625 1.13967 135.704 1.219C135.784 1.29833 135.823 1.39467 135.823 1.508L135.823 12.592C135.823 12.7053 135.784 12.8017 135.704 12.881C135.625 12.9603 135.529 13 135.415 13L133.868 13Z" fill="white" />
    <path d="M246.169 183.17C245.557 183.17 244.973 183.096 244.418 182.949C243.874 182.79 243.387 182.552 242.956 182.235C242.525 181.918 242.18 181.527 241.919 181.062C241.67 180.597 241.539 180.048 241.528 179.413C241.528 179.311 241.562 179.226 241.63 179.158C241.698 179.079 241.783 179.039 241.885 179.039L243.5 179.039C243.647 179.039 243.755 179.079 243.823 179.158C243.902 179.237 243.965 179.345 244.01 179.481C244.067 179.889 244.197 180.223 244.401 180.484C244.605 180.733 244.86 180.92 245.166 181.045C245.483 181.158 245.835 181.215 246.22 181.215C246.934 181.215 247.478 180.983 247.852 180.518C248.237 180.053 248.43 179.407 248.43 178.58L248.43 173.106L242.667 173.106C242.542 173.106 242.44 173.066 242.361 172.987C242.293 172.908 242.259 172.811 242.259 172.698L242.259 171.508C242.259 171.395 242.293 171.298 242.361 171.219C242.44 171.14 242.542 171.1 242.667 171.1L250.436 171.1C250.561 171.1 250.663 171.14 250.742 171.219C250.821 171.298 250.861 171.4 250.861 171.525L250.861 178.648C250.861 179.589 250.663 180.399 250.266 181.079C249.881 181.759 249.337 182.28 248.634 182.643C247.943 182.994 247.121 183.17 246.169 183.17ZM252.437 183C252.346 183 252.261 182.966 252.182 182.898C252.114 182.83 252.08 182.745 252.08 182.643C252.08 182.598 252.091 182.547 252.114 182.49L256.211 171.525C256.245 171.412 256.307 171.315 256.398 171.236C256.5 171.145 256.636 171.1 256.806 171.1L258.659 171.1C258.829 171.1 258.959 171.145 259.05 171.236C259.14 171.315 259.208 171.412 259.254 171.525L263.351 182.49C263.362 182.547 263.368 182.598 263.368 182.643C263.368 182.745 263.334 182.83 263.266 182.898C263.198 182.966 263.118 183 263.028 183L261.549 183C261.39 183 261.271 182.966 261.192 182.898C261.124 182.819 261.078 182.745 261.056 182.677L260.257 180.603L255.208 180.603L254.409 182.677C254.386 182.745 254.335 182.819 254.256 182.898C254.188 182.966 254.074 183 253.916 183L252.437 183ZM255.803 178.648L259.662 178.648L257.724 173.395L255.803 178.648ZM265.363 183C265.25 183 265.153 182.96 265.074 182.881C264.995 182.802 264.955 182.705 264.955 182.592L264.955 171.525C264.955 171.4 264.995 171.298 265.074 171.219C265.153 171.14 265.25 171.1 265.363 171.1L266.672 171.1C266.831 171.1 266.944 171.14 267.012 171.219C267.091 171.287 267.142 171.338 267.165 171.372L272.061 178.988L272.061 171.525C272.061 171.4 272.095 171.298 272.163 171.219C272.242 171.14 272.344 171.1 272.469 171.1L273.897 171.1C274.022 171.1 274.124 171.14 274.203 171.219C274.282 171.298 274.322 171.4 274.322 171.525L274.322 182.575C274.322 182.7 274.282 182.802 274.203 182.881C274.124 182.96 274.027 183 273.914 183L272.588 183C272.429 183 272.316 182.96 272.248 182.881C272.18 182.802 272.129 182.751 272.095 182.728L267.216 175.282L267.216 182.592C267.216 182.705 267.176 182.802 267.097 182.881C267.018 182.96 266.916 183 266.791 183L265.363 183ZM280.706 183C280.593 183 280.497 182.96 280.417 182.881C280.338 182.802 280.298 182.705 280.298 182.592L280.298 181.725C280.298 181.623 280.321 181.504 280.366 181.368C280.423 181.221 280.542 181.073 280.723 180.926L283.409 178.257C284.157 177.668 284.758 177.169 285.211 176.761C285.676 176.342 286.01 175.962 286.214 175.622C286.43 175.271 286.537 174.925 286.537 174.585C286.537 174.075 286.396 173.661 286.112 173.344C285.84 173.027 285.404 172.868 284.803 172.868C284.407 172.868 284.072 172.953 283.8 173.123C283.528 173.282 283.313 173.497 283.154 173.769C283.007 174.041 282.905 174.341 282.848 174.67C282.826 174.817 282.763 174.919 282.661 174.976C282.559 175.033 282.457 175.061 282.355 175.061L280.842 175.061C280.74 175.061 280.655 175.027 280.587 174.959C280.519 174.891 280.485 174.812 280.485 174.721C280.497 174.234 280.599 173.763 280.791 173.31C280.984 172.845 281.262 172.437 281.624 172.086C281.998 171.723 282.452 171.434 282.984 171.219C283.517 171.004 284.118 170.896 284.786 170.896C285.727 170.896 286.503 171.055 287.115 171.372C287.739 171.689 288.203 172.12 288.509 172.664C288.827 173.208 288.985 173.82 288.985 174.5C288.985 175.033 288.883 175.526 288.679 175.979C288.475 176.421 288.181 176.852 287.795 177.271C287.41 177.679 286.945 178.098 286.401 178.529L283.987 180.977L288.832 180.977C288.957 180.977 289.053 181.017 289.121 181.096C289.201 181.164 289.24 181.26 289.24 181.385L289.24 182.592C289.24 182.705 289.201 182.802 289.121 182.881C289.053 182.96 288.957 183 288.832 183L280.706 183ZM295.635 183.17C294.83 183.17 294.144 183.051 293.578 182.813C293.011 182.575 292.546 182.246 292.184 181.827C291.821 181.408 291.549 180.926 291.368 180.382C291.186 179.827 291.079 179.237 291.045 178.614C291.033 178.308 291.022 177.974 291.011 177.611C291.011 177.237 291.011 176.863 291.011 176.489C291.022 176.115 291.033 175.769 291.045 175.452C291.067 174.829 291.175 174.245 291.368 173.701C291.56 173.146 291.838 172.664 292.201 172.256C292.575 171.848 293.045 171.525 293.612 171.287C294.178 171.049 294.853 170.93 295.635 170.93C296.428 170.93 297.108 171.049 297.675 171.287C298.241 171.525 298.706 171.848 299.069 172.256C299.443 172.664 299.72 173.146 299.902 173.701C300.094 174.245 300.202 174.829 300.225 175.452C300.247 175.769 300.259 176.115 300.259 176.489C300.259 176.863 300.259 177.237 300.259 177.611C300.259 177.974 300.247 178.308 300.225 178.614C300.202 179.237 300.1 179.827 299.919 180.382C299.737 180.926 299.465 181.408 299.103 181.827C298.74 182.246 298.27 182.575 297.692 182.813C297.125 183.051 296.439 183.17 295.635 183.17ZM295.635 181.215C296.371 181.215 296.91 180.977 297.25 180.501C297.601 180.014 297.782 179.356 297.794 178.529C297.816 178.2 297.828 177.872 297.828 177.543C297.828 177.203 297.828 176.863 297.828 176.523C297.828 176.183 297.816 175.86 297.794 175.554C297.782 174.749 297.601 174.103 297.25 173.616C296.91 173.117 296.371 172.868 295.635 172.868C294.909 172.868 294.371 173.117 294.02 173.616C293.68 174.103 293.498 174.749 293.476 175.554C293.476 175.86 293.47 176.183 293.459 176.523C293.459 176.863 293.459 177.203 293.459 177.543C293.47 177.872 293.476 178.2 293.476 178.529C293.498 179.356 293.685 180.014 294.037 180.501C294.388 180.977 294.921 181.215 295.635 181.215ZM302.404 183C302.291 183 302.195 182.96 302.115 182.881C302.036 182.802 301.996 182.705 301.996 182.592L301.996 181.725C301.996 181.623 302.019 181.504 302.064 181.368C302.121 181.221 302.24 181.073 302.421 180.926L305.107 178.257C305.855 177.668 306.456 177.169 306.909 176.761C307.374 176.342 307.708 175.962 307.912 175.622C308.128 175.271 308.235 174.925 308.235 174.585C308.235 174.075 308.094 173.661 307.81 173.344C307.538 173.027 307.102 172.868 306.501 172.868C306.105 172.868 305.77 172.953 305.498 173.123C305.226 173.282 305.011 173.497 304.852 173.769C304.705 174.041 304.603 174.341 304.546 174.67C304.524 174.817 304.461 174.919 304.359 174.976C304.257 175.033 304.155 175.061 304.053 175.061L302.54 175.061C302.438 175.061 302.353 175.027 302.285 174.959C302.217 174.891 302.183 174.812 302.183 174.721C302.195 174.234 302.297 173.763 302.489 173.31C302.682 172.845 302.96 172.437 303.322 172.086C303.696 171.723 304.15 171.434 304.682 171.219C305.215 171.004 305.816 170.896 306.484 170.896C307.425 170.896 308.201 171.055 308.813 171.372C309.437 171.689 309.901 172.12 310.207 172.664C310.525 173.208 310.683 173.82 310.683 174.5C310.683 175.033 310.581 175.526 310.377 175.979C310.173 176.421 309.879 176.852 309.493 177.271C309.108 177.679 308.643 178.098 308.099 178.529L305.685 180.977L310.53 180.977C310.655 180.977 310.751 181.017 310.819 181.096C310.899 181.164 310.938 181.26 310.938 181.385L310.938 182.592C310.938 182.705 310.899 182.802 310.819 182.881C310.751 182.96 310.655 183 310.53 183L302.404 183ZM312.93 183C312.817 183 312.72 182.96 312.641 182.881C312.562 182.802 312.522 182.705 312.522 182.592L312.522 181.725C312.522 181.623 312.545 181.504 312.59 181.368C312.647 181.221 312.766 181.073 312.947 180.926L315.633 178.257C316.381 177.668 316.982 177.169 317.435 176.761C317.9 176.342 318.234 175.962 318.438 175.622C318.653 175.271 318.761 174.925 318.761 174.585C318.761 174.075 318.619 173.661 318.336 173.344C318.064 173.027 317.628 172.868 317.027 172.868C316.63 172.868 316.296 172.953 316.024 173.123C315.752 173.282 315.537 173.497 315.378 173.769C315.231 174.041 315.129 174.341 315.072 174.67C315.049 174.817 314.987 174.919 314.885 174.976C314.783 175.033 314.681 175.061 314.579 175.061L313.066 175.061C312.964 175.061 312.879 175.027 312.811 174.959C312.743 174.891 312.709 174.812 312.709 174.721C312.72 174.234 312.822 173.763 313.015 173.31C313.208 172.845 313.485 172.437 313.848 172.086C314.222 171.723 314.675 171.434 315.208 171.219C315.741 171.004 316.341 170.896 317.01 170.896C317.951 170.896 318.727 171.055 319.339 171.372C319.962 171.689 320.427 172.12 320.733 172.664C321.05 173.208 321.209 173.82 321.209 174.5C321.209 175.033 321.107 175.526 320.903 175.979C320.699 176.421 320.404 176.852 320.019 177.271C319.634 177.679 319.169 178.098 318.625 178.529L316.211 180.977L321.056 180.977C321.181 180.977 321.277 181.017 321.345 181.096C321.424 181.164 321.464 181.26 321.464 181.385L321.464 182.592C321.464 182.705 321.424 182.802 321.345 182.881C321.277 182.96 321.181 183 321.056 183L312.93 183Z" fill="white" />
    <path d="M604.752 183C604.627 183 604.525 182.96 604.446 182.881C604.367 182.802 604.327 182.705 604.327 182.592L604.327 171.525C604.327 171.4 604.367 171.298 604.446 171.219C604.525 171.14 604.627 171.1 604.752 171.1L606.095 171.1C606.254 171.1 606.373 171.145 606.452 171.236C606.531 171.315 606.582 171.378 606.605 171.423L609.886 177.543L613.201 171.423C613.224 171.378 613.275 171.315 613.354 171.236C613.433 171.145 613.552 171.1 613.711 171.1L615.037 171.1C615.162 171.1 615.264 171.14 615.343 171.219C615.422 171.298 615.462 171.4 615.462 171.525L615.462 182.592C615.462 182.705 615.422 182.802 615.343 182.881C615.264 182.96 615.162 183 615.037 183L613.609 183C613.484 183 613.382 182.96 613.303 182.881C613.235 182.802 613.201 182.705 613.201 182.592L613.201 175.231L610.821 179.77C610.764 179.872 610.691 179.963 610.6 180.042C610.509 180.11 610.39 180.144 610.243 180.144L609.546 180.144C609.387 180.144 609.263 180.11 609.172 180.042C609.093 179.963 609.025 179.872 608.968 179.77L606.588 175.231L606.588 182.592C606.588 182.705 606.548 182.802 606.469 182.881C606.39 182.96 606.293 183 606.18 183L604.752 183ZM617.375 183C617.285 183 617.2 182.966 617.12 182.898C617.052 182.83 617.018 182.745 617.018 182.643C617.018 182.598 617.03 182.547 617.052 182.49L621.149 171.525C621.183 171.412 621.246 171.315 621.336 171.236C621.438 171.145 621.574 171.1 621.744 171.1L623.597 171.1C623.767 171.1 623.898 171.145 623.988 171.236C624.079 171.315 624.147 171.412 624.192 171.525L628.289 182.49C628.301 182.547 628.306 182.598 628.306 182.643C628.306 182.745 628.272 182.83 628.204 182.898C628.136 182.966 628.057 183 627.966 183L626.487 183C626.329 183 626.21 182.966 626.13 182.898C626.062 182.819 626.017 182.745 625.994 182.677L625.195 180.603L620.146 180.603L619.347 182.677C619.325 182.745 619.274 182.819 619.194 182.898C619.126 182.966 619.013 183 618.854 183L617.375 183ZM620.741 178.648L624.6 178.648L622.662 173.395L620.741 178.648ZM630.301 183C630.188 183 630.092 182.96 630.012 182.881C629.933 182.802 629.893 182.705 629.893 182.592L629.893 171.525C629.893 171.4 629.933 171.298 630.012 171.219C630.092 171.14 630.188 171.1 630.301 171.1L634.704 171.1C636.076 171.1 637.158 171.417 637.951 172.052C638.745 172.687 639.141 173.61 639.141 174.823C639.141 175.662 638.932 176.359 638.512 176.914C638.104 177.469 637.555 177.872 636.863 178.121L639.345 182.456C639.379 182.524 639.396 182.586 639.396 182.643C639.396 182.745 639.357 182.83 639.277 182.898C639.209 182.966 639.13 183 639.039 183L637.492 183C637.3 183 637.152 182.949 637.05 182.847C636.948 182.745 636.869 182.643 636.812 182.541L634.619 178.512L632.256 178.512L632.256 182.592C632.256 182.705 632.217 182.802 632.137 182.881C632.069 182.96 631.973 183 631.848 183L630.301 183ZM632.256 176.591L634.653 176.591C635.345 176.591 635.86 176.438 636.2 176.132C636.54 175.815 636.71 175.373 636.71 174.806C636.71 174.239 636.54 173.797 636.2 173.48C635.872 173.151 635.356 172.987 634.653 172.987L632.256 172.987L632.256 176.591ZM645.064 183C644.95 183 644.854 182.96 644.775 182.881C644.695 182.802 644.656 182.705 644.656 182.592L644.656 181.725C644.656 181.623 644.678 181.504 644.724 181.368C644.78 181.221 644.899 181.073 645.081 180.926L647.767 178.257C648.515 177.668 649.115 177.169 649.569 176.761C650.033 176.342 650.368 175.962 650.572 175.622C650.787 175.271 650.895 174.925 650.895 174.585C650.895 174.075 650.753 173.661 650.47 173.344C650.198 173.027 649.761 172.868 649.161 172.868C648.764 172.868 648.43 172.953 648.158 173.123C647.886 173.282 647.67 173.497 647.512 173.769C647.364 174.041 647.262 174.341 647.206 174.67C647.183 174.817 647.121 174.919 647.019 174.976C646.917 175.033 646.815 175.061 646.713 175.061L645.2 175.061C645.098 175.061 645.013 175.027 644.945 174.959C644.877 174.891 644.843 174.812 644.843 174.721C644.854 174.234 644.956 173.763 645.149 173.31C645.341 172.845 645.619 172.437 645.982 172.086C646.356 171.723 646.809 171.434 647.342 171.219C647.874 171.004 648.475 170.896 649.144 170.896C650.084 170.896 650.861 171.055 651.473 171.372C652.096 171.689 652.561 172.12 652.867 172.664C653.184 173.208 653.343 173.82 653.343 174.5C653.343 175.033 653.241 175.526 653.037 175.979C652.833 176.421 652.538 176.852 652.153 177.271C651.767 177.679 651.303 178.098 650.759 178.529L648.345 180.977L653.19 180.977C653.314 180.977 653.411 181.017 653.479 181.096C653.558 181.164 653.598 181.26 653.598 181.385L653.598 182.592C653.598 182.705 653.558 182.802 653.479 182.881C653.411 182.96 653.314 183 653.19 183L645.064 183ZM659.992 183.17C659.187 183.17 658.502 183.051 657.935 182.813C657.368 182.575 656.904 182.246 656.541 181.827C656.178 181.408 655.906 180.926 655.725 180.382C655.544 179.827 655.436 179.237 655.402 178.614C655.391 178.308 655.379 177.974 655.368 177.611C655.368 177.237 655.368 176.863 655.368 176.489C655.379 176.115 655.391 175.769 655.402 175.452C655.425 174.829 655.532 174.245 655.725 173.701C655.918 173.146 656.195 172.664 656.558 172.256C656.932 171.848 657.402 171.525 657.969 171.287C658.536 171.049 659.21 170.93 659.992 170.93C660.785 170.93 661.465 171.049 662.032 171.287C662.599 171.525 663.063 171.848 663.426 172.256C663.8 172.664 664.078 173.146 664.259 173.701C664.452 174.245 664.559 174.829 664.582 175.452C664.605 175.769 664.616 176.115 664.616 176.489C664.616 176.863 664.616 177.237 664.616 177.611C664.616 177.974 664.605 178.308 664.582 178.614C664.559 179.237 664.457 179.827 664.276 180.382C664.095 180.926 663.823 181.408 663.46 181.827C663.097 182.246 662.627 182.575 662.049 182.813C661.482 183.051 660.797 183.17 659.992 183.17ZM659.992 181.215C660.729 181.215 661.267 180.977 661.607 180.501C661.958 180.014 662.14 179.356 662.151 178.529C662.174 178.2 662.185 177.872 662.185 177.543C662.185 177.203 662.185 176.863 662.185 176.523C662.185 176.183 662.174 175.86 662.151 175.554C662.14 174.749 661.958 174.103 661.607 173.616C661.267 173.117 660.729 172.868 659.992 172.868C659.267 172.868 658.728 173.117 658.377 173.616C658.037 174.103 657.856 174.749 657.833 175.554C657.833 175.86 657.827 176.183 657.816 176.523C657.816 176.863 657.816 177.203 657.816 177.543C657.827 177.872 657.833 178.2 657.833 178.529C657.856 179.356 658.043 180.014 658.394 180.501C658.745 180.977 659.278 181.215 659.992 181.215ZM666.762 183C666.649 183 666.552 182.96 666.473 182.881C666.394 182.802 666.354 182.705 666.354 182.592L666.354 181.725C666.354 181.623 666.377 181.504 666.422 181.368C666.479 181.221 666.598 181.073 666.779 180.926L669.465 178.257C670.213 177.668 670.814 177.169 671.267 176.761C671.732 176.342 672.066 175.962 672.27 175.622C672.485 175.271 672.593 174.925 672.593 174.585C672.593 174.075 672.451 173.661 672.168 173.344C671.896 173.027 671.46 172.868 670.859 172.868C670.462 172.868 670.128 172.953 669.856 173.123C669.584 173.282 669.369 173.497 669.21 173.769C669.063 174.041 668.961 174.341 668.904 174.67C668.881 174.817 668.819 174.919 668.717 174.976C668.615 175.033 668.513 175.061 668.411 175.061L666.898 175.061C666.796 175.061 666.711 175.027 666.643 174.959C666.575 174.891 666.541 174.812 666.541 174.721C666.552 174.234 666.654 173.763 666.847 173.31C667.04 172.845 667.317 172.437 667.68 172.086C668.054 171.723 668.507 171.434 669.04 171.219C669.573 171.004 670.173 170.896 670.842 170.896C671.783 170.896 672.559 171.055 673.171 171.372C673.794 171.689 674.259 172.12 674.565 172.664C674.882 173.208 675.041 173.82 675.041 174.5C675.041 175.033 674.939 175.526 674.735 175.979C674.531 176.421 674.236 176.852 673.851 177.271C673.466 177.679 673.001 178.098 672.457 178.529L670.043 180.977L674.888 180.977C675.013 180.977 675.109 181.017 675.177 181.096C675.256 181.164 675.296 181.26 675.296 181.385L675.296 182.592C675.296 182.705 675.256 182.802 675.177 182.881C675.109 182.96 675.013 183 674.888 183L666.762 183ZM680.823 183C680.699 183 680.597 182.96 680.517 182.881C680.449 182.802 680.415 182.705 680.415 182.592L680.415 173.786L677.831 175.775C677.729 175.843 677.627 175.871 677.525 175.86C677.423 175.837 677.333 175.775 677.253 175.673L676.539 174.755C676.471 174.653 676.443 174.545 676.454 174.432C676.477 174.319 676.539 174.228 676.641 174.16L680.449 171.219C680.517 171.162 680.585 171.128 680.653 171.117C680.721 171.106 680.795 171.1 680.874 171.1L682.37 171.1C682.484 171.1 682.58 171.14 682.659 171.219C682.739 171.298 682.778 171.395 682.778 171.508L682.778 182.592C682.778 182.705 682.739 182.802 682.659 182.881C682.58 182.96 682.484 183 682.37 183L680.823 183Z" fill="white" />
    <path d="M970.169 183.17C969.557 183.17 968.973 183.096 968.418 182.949C967.874 182.79 967.387 182.552 966.956 182.235C966.525 181.918 966.18 181.527 965.919 181.062C965.67 180.597 965.539 180.048 965.528 179.413C965.528 179.311 965.562 179.226 965.63 179.158C965.698 179.079 965.783 179.039 965.885 179.039L967.5 179.039C967.647 179.039 967.755 179.079 967.823 179.158C967.902 179.237 967.965 179.345 968.01 179.481C968.067 179.889 968.197 180.223 968.401 180.484C968.605 180.733 968.86 180.92 969.166 181.045C969.483 181.158 969.835 181.215 970.22 181.215C970.934 181.215 971.478 180.983 971.852 180.518C972.237 180.053 972.43 179.407 972.43 178.58L972.43 173.106L966.667 173.106C966.542 173.106 966.44 173.066 966.361 172.987C966.293 172.908 966.259 172.811 966.259 172.698L966.259 171.508C966.259 171.395 966.293 171.298 966.361 171.219C966.44 171.14 966.542 171.1 966.667 171.1L974.436 171.1C974.561 171.1 974.663 171.14 974.742 171.219C974.821 171.298 974.861 171.4 974.861 171.525L974.861 178.648C974.861 179.589 974.663 180.399 974.266 181.079C973.881 181.759 973.337 182.28 972.634 182.643C971.943 182.994 971.121 183.17 970.169 183.17ZM976.437 183C976.346 183 976.261 182.966 976.182 182.898C976.114 182.83 976.08 182.745 976.08 182.643C976.08 182.598 976.091 182.547 976.114 182.49L980.211 171.525C980.245 171.412 980.307 171.315 980.398 171.236C980.5 171.145 980.636 171.1 980.806 171.1L982.659 171.1C982.829 171.1 982.959 171.145 983.05 171.236C983.14 171.315 983.208 171.412 983.254 171.525L987.351 182.49C987.362 182.547 987.368 182.598 987.368 182.643C987.368 182.745 987.334 182.83 987.266 182.898C987.198 182.966 987.118 183 987.028 183L985.549 183C985.39 183 985.271 182.966 985.192 182.898C985.124 182.819 985.078 182.745 985.056 182.677L984.257 180.603L979.208 180.603L978.409 182.677C978.386 182.745 978.335 182.819 978.256 182.898C978.188 182.966 978.074 183 977.916 183L976.437 183ZM979.803 178.648L983.662 178.648L981.724 173.395L979.803 178.648ZM989.363 183C989.25 183 989.153 182.96 989.074 182.881C988.995 182.802 988.955 182.705 988.955 182.592L988.955 171.525C988.955 171.4 988.995 171.298 989.074 171.219C989.153 171.14 989.25 171.1 989.363 171.1L990.672 171.1C990.831 171.1 990.944 171.14 991.012 171.219C991.091 171.287 991.142 171.338 991.165 171.372L996.061 178.988L996.061 171.525C996.061 171.4 996.095 171.298 996.163 171.219C996.242 171.14 996.344 171.1 996.469 171.1L997.897 171.1C998.022 171.1 998.124 171.14 998.203 171.219C998.282 171.298 998.322 171.4 998.322 171.525L998.322 182.575C998.322 182.7 998.282 182.802 998.203 182.881C998.124 182.96 998.027 183 997.914 183L996.588 183C996.429 183 996.316 182.96 996.248 182.881C996.18 182.802 996.129 182.751 996.095 182.728L991.216 175.282L991.216 182.592C991.216 182.705 991.176 182.802 991.097 182.881C991.018 182.96 990.916 183 990.791 183L989.363 183ZM1004.71 183C1004.59 183 1004.5 182.96 1004.42 182.881C1004.34 182.802 1004.3 182.705 1004.3 182.592L1004.3 181.725C1004.3 181.623 1004.32 181.504 1004.37 181.368C1004.42 181.221 1004.54 181.073 1004.72 180.926L1007.41 178.257C1008.16 177.668 1008.76 177.169 1009.21 176.761C1009.68 176.342 1010.01 175.962 1010.21 175.622C1010.43 175.271 1010.54 174.925 1010.54 174.585C1010.54 174.075 1010.4 173.661 1010.11 173.344C1009.84 173.027 1009.4 172.868 1008.8 172.868C1008.41 172.868 1008.07 172.953 1007.8 173.123C1007.53 173.282 1007.31 173.497 1007.15 173.769C1007.01 174.041 1006.9 174.341 1006.85 174.67C1006.83 174.817 1006.76 174.919 1006.66 174.976C1006.56 175.033 1006.46 175.061 1006.36 175.061L1004.84 175.061C1004.74 175.061 1004.66 175.027 1004.59 174.959C1004.52 174.891 1004.49 174.812 1004.49 174.721C1004.5 174.234 1004.6 173.763 1004.79 173.31C1004.98 172.845 1005.26 172.437 1005.62 172.086C1006 171.723 1006.45 171.434 1006.98 171.219C1007.52 171.004 1008.12 170.896 1008.79 170.896C1009.73 170.896 1010.5 171.055 1011.12 171.372C1011.74 171.689 1012.2 172.12 1012.51 172.664C1012.83 173.208 1012.99 173.82 1012.99 174.5C1012.99 175.033 1012.88 175.526 1012.68 175.979C1012.48 176.421 1012.18 176.852 1011.8 177.271C1011.41 177.679 1010.95 178.098 1010.4 178.529L1007.99 180.977L1012.83 180.977C1012.96 180.977 1013.05 181.017 1013.12 181.096C1013.2 181.164 1013.24 181.26 1013.24 181.385L1013.24 182.592C1013.24 182.705 1013.2 182.802 1013.12 182.881C1013.05 182.96 1012.96 183 1012.83 183L1004.71 183ZM1019.63 183.17C1018.83 183.17 1018.14 183.051 1017.58 182.813C1017.01 182.575 1016.55 182.246 1016.18 181.827C1015.82 181.408 1015.55 180.926 1015.37 180.382C1015.19 179.827 1015.08 179.237 1015.04 178.614C1015.03 178.308 1015.02 177.974 1015.01 177.611C1015.01 177.237 1015.01 176.863 1015.01 176.489C1015.02 176.115 1015.03 175.769 1015.04 175.452C1015.07 174.829 1015.17 174.245 1015.37 173.701C1015.56 173.146 1015.84 172.664 1016.2 172.256C1016.57 171.848 1017.04 171.525 1017.61 171.287C1018.18 171.049 1018.85 170.93 1019.63 170.93C1020.43 170.93 1021.11 171.049 1021.67 171.287C1022.24 171.525 1022.71 171.848 1023.07 172.256C1023.44 172.664 1023.72 173.146 1023.9 173.701C1024.09 174.245 1024.2 174.829 1024.22 175.452C1024.25 175.769 1024.26 176.115 1024.26 176.489C1024.26 176.863 1024.26 177.237 1024.26 177.611C1024.26 177.974 1024.25 178.308 1024.22 178.614C1024.2 179.237 1024.1 179.827 1023.92 180.382C1023.74 180.926 1023.47 181.408 1023.1 181.827C1022.74 182.246 1022.27 182.575 1021.69 182.813C1021.12 183.051 1020.44 183.17 1019.63 183.17ZM1019.63 181.215C1020.37 181.215 1020.91 180.977 1021.25 180.501C1021.6 180.014 1021.78 179.356 1021.79 178.529C1021.82 178.2 1021.83 177.872 1021.83 177.543C1021.83 177.203 1021.83 176.863 1021.83 176.523C1021.83 176.183 1021.82 175.86 1021.79 175.554C1021.78 174.749 1021.6 174.103 1021.25 173.616C1020.91 173.117 1020.37 172.868 1019.63 172.868C1018.91 172.868 1018.37 173.117 1018.02 173.616C1017.68 174.103 1017.5 174.749 1017.48 175.554C1017.48 175.86 1017.47 176.183 1017.46 176.523C1017.46 176.863 1017.46 177.203 1017.46 177.543C1017.47 177.872 1017.48 178.2 1017.48 178.529C1017.5 179.356 1017.69 180.014 1018.04 180.501C1018.39 180.977 1018.92 181.215 1019.63 181.215ZM1026.4 183C1026.29 183 1026.19 182.96 1026.12 182.881C1026.04 182.802 1026 182.705 1026 182.592L1026 181.725C1026 181.623 1026.02 181.504 1026.06 181.368C1026.12 181.221 1026.24 181.073 1026.42 180.926L1029.11 178.257C1029.86 177.668 1030.46 177.169 1030.91 176.761C1031.37 176.342 1031.71 175.962 1031.91 175.622C1032.13 175.271 1032.24 174.925 1032.24 174.585C1032.24 174.075 1032.09 173.661 1031.81 173.344C1031.54 173.027 1031.1 172.868 1030.5 172.868C1030.1 172.868 1029.77 172.953 1029.5 173.123C1029.23 173.282 1029.01 173.497 1028.85 173.769C1028.71 174.041 1028.6 174.341 1028.55 174.67C1028.52 174.817 1028.46 174.919 1028.36 174.976C1028.26 175.033 1028.16 175.061 1028.05 175.061L1026.54 175.061C1026.44 175.061 1026.35 175.027 1026.29 174.959C1026.22 174.891 1026.18 174.812 1026.18 174.721C1026.19 174.234 1026.3 173.763 1026.49 173.31C1026.68 172.845 1026.96 172.437 1027.32 172.086C1027.7 171.723 1028.15 171.434 1028.68 171.219C1029.22 171.004 1029.82 170.896 1030.48 170.896C1031.43 170.896 1032.2 171.055 1032.81 171.372C1033.44 171.689 1033.9 172.12 1034.21 172.664C1034.52 173.208 1034.68 173.82 1034.68 174.5C1034.68 175.033 1034.58 175.526 1034.38 175.979C1034.17 176.421 1033.88 176.852 1033.49 177.271C1033.11 177.679 1032.64 178.098 1032.1 178.529L1029.69 180.977L1034.53 180.977C1034.66 180.977 1034.75 181.017 1034.82 181.096C1034.9 181.164 1034.94 181.26 1034.94 181.385L1034.94 182.592C1034.94 182.705 1034.9 182.802 1034.82 182.881C1034.75 182.96 1034.66 183 1034.53 183L1026.4 183ZM1041.04 183.17C1040.25 183.17 1039.56 183.074 1038.99 182.881C1038.41 182.688 1037.93 182.439 1037.54 182.133C1037.17 181.816 1036.88 181.476 1036.69 181.113C1036.5 180.739 1036.4 180.371 1036.39 180.008C1036.39 179.906 1036.42 179.827 1036.49 179.77C1036.57 179.702 1036.66 179.668 1036.76 179.668L1038.29 179.668C1038.4 179.668 1038.5 179.691 1038.58 179.736C1038.66 179.781 1038.73 179.872 1038.78 180.008C1038.88 180.314 1039.05 180.558 1039.28 180.739C1039.51 180.92 1039.79 181.051 1040.09 181.13C1040.4 181.198 1040.72 181.232 1041.06 181.232C1041.74 181.232 1042.28 181.073 1042.68 180.756C1043.08 180.427 1043.29 179.963 1043.29 179.362C1043.29 178.761 1043.1 178.331 1042.73 178.07C1042.35 177.798 1041.83 177.662 1041.16 177.662L1039.41 177.662C1039.29 177.662 1039.19 177.628 1039.11 177.56C1039.03 177.481 1038.99 177.379 1038.99 177.254L1038.99 176.54C1038.99 176.427 1039.01 176.33 1039.05 176.251C1039.11 176.16 1039.17 176.087 1039.22 176.03L1042.27 173.055L1037.41 173.055C1037.28 173.055 1037.18 173.015 1037.1 172.936C1037.03 172.857 1037 172.76 1037 172.647L1037 171.525C1037 171.4 1037.03 171.298 1037.1 171.219C1037.18 171.14 1037.28 171.1 1037.41 171.1L1044.7 171.1C1044.82 171.1 1044.93 171.14 1045 171.219C1045.08 171.298 1045.12 171.4 1045.12 171.525L1045.12 172.545C1045.12 172.647 1045.1 172.738 1045.06 172.817C1045.01 172.896 1044.96 172.964 1044.9 173.021L1041.96 176.047L1042.17 176.064C1042.86 176.121 1043.47 176.279 1044 176.54C1044.55 176.789 1044.97 177.158 1045.26 177.645C1045.57 178.132 1045.72 178.744 1045.72 179.481C1045.72 180.252 1045.51 180.915 1045.11 181.47C1044.71 182.014 1044.16 182.433 1043.46 182.728C1042.76 183.023 1041.95 183.17 1041.04 183.17Z" fill="white" />
    <path d="M422.735 13C422.622 13 422.525 12.9603 422.446 12.881C422.367 12.8017 422.327 12.7053 422.327 12.592L422.327 1.525C422.327 1.40033 422.367 1.29833 422.446 1.219C422.525 1.13967 422.622 1.1 422.735 1.1L430.113 1.1C430.238 1.1 430.34 1.13967 430.419 1.219C430.498 1.29833 430.538 1.40033 430.538 1.525L430.538 2.715C430.538 2.83967 430.498 2.94167 430.419 3.021C430.34 3.089 430.238 3.123 430.113 3.123L424.656 3.123L424.656 6.353L429.773 6.353C429.898 6.353 430 6.39267 430.079 6.472C430.158 6.55133 430.198 6.65333 430.198 6.778L430.198 7.968C430.198 8.08133 430.158 8.17767 430.079 8.257C430 8.33633 429.898 8.376 429.773 8.376L424.656 8.376L424.656 12.592C424.656 12.7053 424.616 12.8017 424.537 12.881C424.458 12.9603 424.356 13 424.231 13L422.735 13ZM432.945 13C432.832 13 432.735 12.9603 432.656 12.881C432.577 12.8017 432.537 12.7053 432.537 12.592L432.537 1.525C432.537 1.40033 432.577 1.29833 432.656 1.219C432.735 1.13967 432.832 1.1 432.945 1.1L440.425 1.1C440.55 1.1 440.652 1.13967 440.731 1.219C440.81 1.29833 440.85 1.40033 440.85 1.525L440.85 2.647C440.85 2.76033 440.81 2.85667 440.731 2.936C440.652 3.01533 440.55 3.055 440.425 3.055L434.832 3.055L434.832 6.064L440.051 6.064C440.176 6.064 440.278 6.10367 440.357 6.183C440.436 6.251 440.476 6.34733 440.476 6.472L440.476 7.526C440.476 7.65067 440.436 7.75267 440.357 7.832C440.278 7.9 440.176 7.934 440.051 7.934L434.832 7.934L434.832 11.045L440.561 11.045C440.686 11.045 440.788 11.0847 440.867 11.164C440.946 11.2433 440.986 11.3453 440.986 11.47L440.986 12.592C440.986 12.7053 440.946 12.8017 440.867 12.881C440.788 12.9603 440.686 13 440.561 13L432.945 13ZM443.52 13C443.407 13 443.31 12.9603 443.231 12.881C443.152 12.8017 443.112 12.7053 443.112 12.592L443.112 1.525C443.112 1.40033 443.152 1.29833 443.231 1.219C443.31 1.13967 443.407 1.1 443.52 1.1L448.45 1.1C449.368 1.1 450.116 1.24167 450.694 1.525C451.272 1.797 451.697 2.17667 451.969 2.664C452.252 3.15133 452.394 3.718 452.394 4.364C452.394 4.79467 452.315 5.17433 452.156 5.503C452.009 5.82033 451.822 6.081 451.595 6.285C451.38 6.489 451.164 6.64767 450.949 6.761C451.391 6.965 451.782 7.305 452.122 7.781C452.462 8.257 452.632 8.82367 452.632 9.481C452.632 10.161 452.479 10.7673 452.173 11.3C451.867 11.8327 451.414 12.252 450.813 12.558C450.212 12.8527 449.47 13 448.586 13L443.52 13ZM445.475 11.198L448.314 11.198C448.926 11.198 449.391 11.0337 449.708 10.705C450.025 10.365 450.184 9.957 450.184 9.481C450.184 8.98233 450.02 8.56867 449.691 8.24C449.374 7.91133 448.915 7.747 448.314 7.747L445.475 7.747L445.475 11.198ZM445.475 5.979L448.144 5.979C448.745 5.979 449.192 5.83733 449.487 5.554C449.793 5.25933 449.946 4.87967 449.946 4.415C449.946 3.939 449.793 3.57067 449.487 3.31C449.192 3.038 448.745 2.902 448.144 2.902L445.475 2.902L445.475 5.979ZM458.498 13C458.385 13 458.289 12.9603 458.209 12.881C458.13 12.8017 458.09 12.7053 458.09 12.592L458.09 11.725C458.09 11.623 458.113 11.504 458.158 11.368C458.215 11.2207 458.334 11.0733 458.515 10.926L461.201 8.257C461.949 7.66767 462.55 7.169 463.003 6.761C463.468 6.34167 463.802 5.962 464.006 5.622C464.222 5.27067 464.329 4.925 464.329 4.585C464.329 4.075 464.188 3.66133 463.904 3.344C463.632 3.02667 463.196 2.868 462.595 2.868C462.199 2.868 461.864 2.953 461.592 3.123C461.32 3.28167 461.105 3.497 460.946 3.769C460.799 4.041 460.697 4.34133 460.64 4.67C460.618 4.81733 460.555 4.91933 460.453 4.976C460.351 5.03267 460.249 5.061 460.147 5.061L458.634 5.061C458.532 5.061 458.447 5.027 458.379 4.959C458.311 4.891 458.277 4.81167 458.277 4.721C458.289 4.23367 458.391 3.76333 458.583 3.31C458.776 2.84533 459.054 2.43733 459.416 2.086C459.79 1.72333 460.244 1.43433 460.776 1.219C461.309 1.00367 461.91 0.896 462.578 0.896C463.519 0.896 464.295 1.05467 464.907 1.372C465.531 1.68933 465.995 2.12 466.301 2.664C466.619 3.208 466.777 3.82 466.777 4.5C466.777 5.03267 466.675 5.52567 466.471 5.979C466.267 6.421 465.973 6.85167 465.587 7.271C465.202 7.679 464.737 8.09833 464.193 8.529L461.779 10.977L466.624 10.977C466.749 10.977 466.845 11.0167 466.913 11.096C466.993 11.164 467.032 11.2603 467.032 11.385L467.032 12.592C467.032 12.7053 466.993 12.8017 466.913 12.881C466.845 12.9603 466.749 13 466.624 13L458.498 13ZM473.427 13.17C472.622 13.17 471.936 13.051 471.37 12.813C470.803 12.575 470.338 12.2463 469.976 11.827C469.613 11.4077 469.341 10.926 469.16 10.382C468.978 9.82667 468.871 9.23733 468.837 8.614C468.825 8.308 468.814 7.97367 468.803 7.611C468.803 7.237 468.803 6.863 468.803 6.489C468.814 6.115 468.825 5.76933 468.837 5.452C468.859 4.82867 468.967 4.245 469.16 3.701C469.352 3.14567 469.63 2.664 469.993 2.256C470.367 1.848 470.837 1.525 471.404 1.287C471.97 1.049 472.645 0.93 473.427 0.93C474.22 0.93 474.9 1.049 475.467 1.287C476.033 1.525 476.498 1.848 476.861 2.256C477.235 2.664 477.512 3.14567 477.694 3.701C477.886 4.245 477.994 4.82867 478.017 5.452C478.039 5.76933 478.051 6.115 478.051 6.489C478.051 6.863 478.051 7.237 478.051 7.611C478.051 7.97367 478.039 8.308 478.017 8.614C477.994 9.23733 477.892 9.82667 477.711 10.382C477.529 10.926 477.257 11.4077 476.895 11.827C476.532 12.2463 476.062 12.575 475.484 12.813C474.917 13.051 474.231 13.17 473.427 13.17ZM473.427 11.215C474.163 11.215 474.702 10.977 475.042 10.501C475.393 10.0137 475.574 9.35633 475.586 8.529C475.608 8.20033 475.62 7.87167 475.62 7.543C475.62 7.203 475.62 6.863 475.62 6.523C475.62 6.183 475.608 5.86 475.586 5.554C475.574 4.74933 475.393 4.10333 475.042 3.616C474.702 3.11733 474.163 2.868 473.427 2.868C472.701 2.868 472.163 3.11733 471.812 3.616C471.472 4.10333 471.29 4.74933 471.268 5.554C471.268 5.86 471.262 6.183 471.251 6.523C471.251 6.863 471.251 7.203 471.251 7.543C471.262 7.87167 471.268 8.20033 471.268 8.529C471.29 9.35633 471.477 10.0137 471.829 10.501C472.18 10.977 472.713 11.215 473.427 11.215ZM480.196 13C480.083 13 479.987 12.9603 479.907 12.881C479.828 12.8017 479.788 12.7053 479.788 12.592L479.788 11.725C479.788 11.623 479.811 11.504 479.856 11.368C479.913 11.2207 480.032 11.0733 480.213 10.926L482.899 8.257C483.647 7.66767 484.248 7.169 484.701 6.761C485.166 6.34167 485.5 5.962 485.704 5.622C485.92 5.27067 486.027 4.925 486.027 4.585C486.027 4.075 485.886 3.66133 485.602 3.344C485.33 3.02667 484.894 2.868 484.293 2.868C483.897 2.868 483.562 2.953 483.29 3.123C483.018 3.28167 482.803 3.497 482.644 3.769C482.497 4.041 482.395 4.34133 482.338 4.67C482.316 4.81733 482.253 4.91933 482.151 4.976C482.049 5.03267 481.947 5.061 481.845 5.061L480.332 5.061C480.23 5.061 480.145 5.027 480.077 4.959C480.009 4.891 479.975 4.81167 479.975 4.721C479.987 4.23367 480.089 3.76333 480.281 3.31C480.474 2.84533 480.752 2.43733 481.114 2.086C481.488 1.72333 481.942 1.43433 482.474 1.219C483.007 1.00367 483.608 0.896001 484.276 0.896001C485.217 0.896001 485.993 1.05467 486.605 1.372C487.229 1.68933 487.693 2.12 487.999 2.664C488.317 3.208 488.475 3.82 488.475 4.5C488.475 5.03267 488.373 5.52567 488.169 5.979C487.965 6.421 487.671 6.85167 487.285 7.271C486.9 7.679 486.435 8.09833 485.891 8.529L483.477 10.977L488.322 10.977C488.447 10.977 488.543 11.0167 488.611 11.096C488.691 11.164 488.73 11.2603 488.73 11.385L488.73 12.592C488.73 12.7053 488.691 12.8017 488.611 12.881C488.543 12.9603 488.447 13 488.322 13L480.196 13ZM494.258 13C494.133 13 494.031 12.9603 493.952 12.881C493.884 12.8017 493.85 12.7053 493.85 12.592L493.85 3.786L491.266 5.775C491.164 5.843 491.062 5.87133 490.96 5.86C490.858 5.83733 490.767 5.775 490.688 5.673L489.974 4.755C489.906 4.653 489.877 4.54533 489.889 4.432C489.911 4.31867 489.974 4.228 490.076 4.16L493.884 1.219C493.952 1.16233 494.02 1.12833 494.088 1.117C494.156 1.10567 494.229 1.1 494.309 1.1L495.805 1.1C495.918 1.1 496.014 1.13967 496.094 1.219C496.173 1.29833 496.213 1.39467 496.213 1.508L496.213 12.592C496.213 12.7053 496.173 12.8017 496.094 12.881C496.014 12.9603 495.918 13 495.805 13L494.258 13Z" fill="white" />
    <path d="M789.9 13.17C788.891 13.17 788.024 13.0057 787.299 12.677C786.574 12.337 786.007 11.8213 785.599 11.13C785.191 10.4273 784.97 9.55467 784.936 8.512C784.925 8.02467 784.919 7.543 784.919 7.067C784.919 6.591 784.925 6.10367 784.936 5.605C784.97 4.57367 785.197 3.71233 785.616 3.021C786.035 2.32967 786.608 1.80833 787.333 1.457C788.07 1.10567 788.925 0.929999 789.9 0.929999C790.875 0.929999 791.73 1.10567 792.467 1.457C793.204 1.80833 793.782 2.32967 794.201 3.021C794.62 3.71233 794.847 4.57367 794.881 5.605C794.904 6.10367 794.915 6.591 794.915 7.067C794.915 7.543 794.904 8.02467 794.881 8.512C794.847 9.55467 794.626 10.4273 794.218 11.13C793.81 11.8213 793.238 12.337 792.501 12.677C791.776 13.0057 790.909 13.17 789.9 13.17ZM789.9 11.215C790.637 11.215 791.237 10.9997 791.702 10.569C792.167 10.127 792.416 9.413 792.45 8.427C792.473 7.92833 792.484 7.46933 792.484 7.05C792.484 6.61933 792.473 6.16033 792.45 5.673C792.427 5.01567 792.303 4.483 792.076 4.075C791.861 3.65567 791.566 3.35533 791.192 3.174C790.818 2.98133 790.387 2.885 789.9 2.885C789.424 2.885 788.999 2.98133 788.625 3.174C788.251 3.35533 787.951 3.65567 787.724 4.075C787.509 4.483 787.39 5.01567 787.367 5.673C787.356 6.16033 787.35 6.61933 787.35 7.05C787.35 7.46933 787.356 7.92833 787.367 8.427C787.401 9.413 787.65 10.127 788.115 10.569C788.58 10.9997 789.175 11.215 789.9 11.215ZM801.737 13.17C800.683 13.17 799.788 12.9887 799.051 12.626C798.326 12.252 797.771 11.725 797.385 11.045C797 10.3537 796.785 9.52633 796.739 8.563C796.728 8.09833 796.722 7.59967 796.722 7.067C796.722 6.53433 796.728 6.02433 796.739 5.537C796.785 4.585 797 3.76333 797.385 3.072C797.782 2.38067 798.343 1.85367 799.068 1.491C799.805 1.117 800.695 0.93 801.737 0.93C802.508 0.93 803.199 1.032 803.811 1.236C804.423 1.44 804.945 1.72333 805.375 2.086C805.806 2.43733 806.14 2.851 806.378 3.327C806.616 3.803 806.741 4.31867 806.752 4.874C806.764 4.976 806.73 5.061 806.65 5.129C806.582 5.197 806.497 5.231 806.395 5.231L804.78 5.231C804.656 5.231 804.554 5.20267 804.474 5.146C804.395 5.078 804.338 4.97033 804.304 4.823C804.123 4.075 803.811 3.565 803.369 3.293C802.927 3.021 802.378 2.885 801.72 2.885C800.961 2.885 800.355 3.10033 799.901 3.531C799.448 3.95033 799.204 4.64733 799.17 5.622C799.136 6.55133 799.136 7.50333 799.17 8.478C799.204 9.45267 799.448 10.1553 799.901 10.586C800.355 11.0053 800.961 11.215 801.72 11.215C802.378 11.215 802.927 11.079 803.369 10.807C803.811 10.5237 804.123 10.0137 804.304 9.277C804.338 9.11833 804.395 9.01067 804.474 8.954C804.554 8.89733 804.656 8.869 804.78 8.869L806.395 8.869C806.497 8.869 806.582 8.903 806.65 8.971C806.73 9.039 806.764 9.124 806.752 9.226C806.741 9.78133 806.616 10.297 806.378 10.773C806.14 11.249 805.806 11.6683 805.375 12.031C804.945 12.3823 804.423 12.66 803.811 12.864C803.199 13.068 802.508 13.17 801.737 13.17ZM811.794 13C811.681 13 811.585 12.9603 811.505 12.881C811.426 12.8017 811.386 12.7053 811.386 12.592L811.386 3.191L808.241 3.191C808.128 3.191 808.032 3.15133 807.952 3.072C807.873 2.99267 807.833 2.89633 807.833 2.783L807.833 1.525C807.833 1.40033 807.873 1.29833 807.952 1.219C808.032 1.13967 808.128 1.1 808.241 1.1L816.911 1.1C817.036 1.1 817.138 1.13967 817.217 1.219C817.297 1.29833 817.336 1.40033 817.336 1.525L817.336 2.783C817.336 2.89633 817.297 2.99267 817.217 3.072C817.138 3.15133 817.036 3.191 816.911 3.191L813.783 3.191L813.783 12.592C813.783 12.7053 813.744 12.8017 813.664 12.881C813.585 12.9603 813.483 13 813.358 13L811.794 13ZM822.378 13C822.265 13 822.168 12.9603 822.089 12.881C822.01 12.8017 821.97 12.7053 821.97 12.592L821.97 11.725C821.97 11.623 821.993 11.504 822.038 11.368C822.095 11.2207 822.214 11.0733 822.395 10.926L825.081 8.257C825.829 7.66767 826.43 7.169 826.883 6.761C827.348 6.34167 827.682 5.962 827.886 5.622C828.101 5.27067 828.209 4.925 828.209 4.585C828.209 4.075 828.067 3.66133 827.784 3.344C827.512 3.02667 827.076 2.868 826.475 2.868C826.078 2.868 825.744 2.953 825.472 3.123C825.2 3.28167 824.985 3.497 824.826 3.769C824.679 4.041 824.577 4.34133 824.52 4.67C824.497 4.81733 824.435 4.91933 824.333 4.976C824.231 5.03267 824.129 5.061 824.027 5.061L822.514 5.061C822.412 5.061 822.327 5.027 822.259 4.959C822.191 4.891 822.157 4.81167 822.157 4.721C822.168 4.23367 822.27 3.76333 822.463 3.31C822.656 2.84533 822.933 2.43733 823.296 2.086C823.67 1.72333 824.123 1.43433 824.656 1.219C825.189 1.00367 825.789 0.896 826.458 0.896C827.399 0.896 828.175 1.05467 828.787 1.372C829.41 1.68933 829.875 2.12 830.181 2.664C830.498 3.208 830.657 3.82 830.657 4.5C830.657 5.03267 830.555 5.52567 830.351 5.979C830.147 6.421 829.852 6.85167 829.467 7.271C829.082 7.679 828.617 8.09833 828.073 8.529L825.659 10.977L830.504 10.977C830.629 10.977 830.725 11.0167 830.793 11.096C830.872 11.164 830.912 11.2603 830.912 11.385L830.912 12.592C830.912 12.7053 830.872 12.8017 830.793 12.881C830.725 12.9603 830.629 13 830.504 13L822.378 13ZM837.306 13.17C836.502 13.17 835.816 13.051 835.249 12.813C834.683 12.575 834.218 12.2463 833.855 11.827C833.493 11.4077 833.221 10.926 833.039 10.382C832.858 9.82667 832.75 9.23733 832.716 8.614C832.705 8.308 832.694 7.97367 832.682 7.611C832.682 7.237 832.682 6.863 832.682 6.489C832.694 6.115 832.705 5.76933 832.716 5.452C832.739 4.82867 832.847 4.245 833.039 3.701C833.232 3.14567 833.51 2.664 833.872 2.256C834.246 1.848 834.717 1.525 835.283 1.287C835.85 1.049 836.524 0.93 837.306 0.93C838.1 0.93 838.78 1.049 839.346 1.287C839.913 1.525 840.378 1.848 840.74 2.256C841.114 2.664 841.392 3.14567 841.573 3.701C841.766 4.245 841.874 4.82867 841.896 5.452C841.919 5.76933 841.93 6.115 841.93 6.489C841.93 6.863 841.93 7.237 841.93 7.611C841.93 7.97367 841.919 8.308 841.896 8.614C841.874 9.23733 841.772 9.82667 841.59 10.382C841.409 10.926 841.137 11.4077 840.774 11.827C840.412 12.2463 839.941 12.575 839.363 12.813C838.797 13.051 838.111 13.17 837.306 13.17ZM837.306 11.215C838.043 11.215 838.581 10.977 838.921 10.501C839.273 10.0137 839.454 9.35633 839.465 8.529C839.488 8.20033 839.499 7.87167 839.499 7.543C839.499 7.203 839.499 6.863 839.499 6.523C839.499 6.183 839.488 5.86 839.465 5.554C839.454 4.74933 839.273 4.10333 838.921 3.616C838.581 3.11733 838.043 2.868 837.306 2.868C836.581 2.868 836.043 3.11733 835.691 3.616C835.351 4.10333 835.17 4.74933 835.147 5.554C835.147 5.86 835.142 6.183 835.13 6.523C835.13 6.863 835.13 7.203 835.13 7.543C835.142 7.87167 835.147 8.20033 835.147 8.529C835.17 9.35633 835.357 10.0137 835.708 10.501C836.06 10.977 836.592 11.215 837.306 11.215ZM844.076 13C843.963 13 843.867 12.9603 843.787 12.881C843.708 12.8017 843.668 12.7053 843.668 12.592L843.668 11.725C843.668 11.623 843.691 11.504 843.736 11.368C843.793 11.2207 843.912 11.0733 844.093 10.926L846.779 8.257C847.527 7.66767 848.128 7.169 848.581 6.761C849.046 6.34167 849.38 5.962 849.584 5.622C849.8 5.27067 849.907 4.925 849.907 4.585C849.907 4.075 849.766 3.66133 849.482 3.344C849.21 3.02667 848.774 2.868 848.173 2.868C847.777 2.868 847.442 2.953 847.17 3.123C846.898 3.28167 846.683 3.497 846.524 3.769C846.377 4.041 846.275 4.34133 846.218 4.67C846.196 4.81733 846.133 4.91933 846.031 4.976C845.929 5.03267 845.827 5.061 845.725 5.061L844.212 5.061C844.11 5.061 844.025 5.027 843.957 4.959C843.889 4.891 843.855 4.81167 843.855 4.721C843.867 4.23367 843.969 3.76333 844.161 3.31C844.354 2.84533 844.632 2.43733 844.994 2.086C845.368 1.72333 845.822 1.43433 846.354 1.219C846.887 1.00367 847.488 0.896001 848.156 0.896001C849.097 0.896001 849.873 1.05467 850.485 1.372C851.109 1.68933 851.573 2.12 851.879 2.664C852.197 3.208 852.355 3.82 852.355 4.5C852.355 5.03267 852.253 5.52567 852.049 5.979C851.845 6.421 851.551 6.85167 851.165 7.271C850.78 7.679 850.315 8.09833 849.771 8.529L847.357 10.977L852.202 10.977C852.327 10.977 852.423 11.0167 852.491 11.096C852.571 11.164 852.61 11.2603 852.61 11.385L852.61 12.592C852.61 12.7053 852.571 12.8017 852.491 12.881C852.423 12.9603 852.327 13 852.202 13L844.076 13ZM858.138 13C858.013 13 857.911 12.9603 857.832 12.881C857.764 12.8017 857.73 12.7053 857.73 12.592L857.73 3.786L855.146 5.775C855.044 5.843 854.942 5.87133 854.84 5.86C854.738 5.83733 854.647 5.775 854.568 5.673L853.854 4.755C853.786 4.653 853.757 4.54533 853.769 4.432C853.791 4.31867 853.854 4.228 853.956 4.16L857.764 1.219C857.832 1.16233 857.9 1.12833 857.968 1.117C858.036 1.10567 858.109 1.1 858.189 1.1L859.685 1.1C859.798 1.1 859.894 1.13967 859.974 1.219C860.053 1.29833 860.093 1.39467 860.093 1.508L860.093 12.592C860.093 12.7053 860.053 12.8017 859.974 12.881C859.894 12.9603 859.798 13 859.685 13L858.138 13Z" fill="white" />
    <defs>
        <linearGradient id="paint0_linear_0_1" x1="279.601" y1="32.0029" x2="279.601" y2="218.003" gradientUnits="userSpaceOnUse">
            <stop stop-color="#A7A9FA" />
            <stop offset="0.255208" stop-color="#9A96F6" />
            <stop offset="0.5" stop-color="#8E84F3" />
            <stop offset="0.520833" stop-color="#8C83F3" />
            <stop offset="0.692708" stop-color="#8376F1" />
            <stop offset="1" stop-color="#7460ED" />
        </linearGradient>
        <linearGradient id="paint1_linear_0_1" x1="1007.5" y1="32" x2="1007.5" y2="218" gradientUnits="userSpaceOnUse">
            <stop stop-color="#A7A9FA" />
            <stop offset="0.255208" stop-color="#9A96F6" />
            <stop offset="0.5" stop-color="#8E84F3" />
            <stop offset="0.520833" stop-color="#8C83F3" />
            <stop offset="0.692708" stop-color="#8376F1" />
            <stop offset="1" stop-color="#7460ED" />
        </linearGradient>
        <linearGradient id="paint2_linear_0_1" x1="643.5" y1="32" x2="643.5" y2="218" gradientUnits="userSpaceOnUse">
            <stop stop-color="#A7A9FA" />
            <stop offset="0.255208" stop-color="#9A96F6" />
            <stop offset="0.5" stop-color="#8E84F3" />
            <stop offset="0.520833" stop-color="#8C83F3" />
            <stop offset="0.692708" stop-color="#8376F1" />
            <stop offset="1" stop-color="#7460ED" />
        </linearGradient>
        <linearGradient id="paint3_linear_0_1" x1="97.7756" y1="217.566" x2="97.4604" y2="32.9249" gradientUnits="userSpaceOnUse">
            <stop stop-color="#A7A9FA" />
            <stop offset="0.255208" stop-color="#9A96F6" />
            <stop offset="0.5" stop-color="#8E84F3" />
            <stop offset="0.520833" stop-color="#8C83F3" />
            <stop offset="0.692708" stop-color="#8376F1" />
            <stop offset="1" stop-color="#7460ED" />
        </linearGradient>
        <linearGradient id="paint4_linear_0_1" x1="825.345" y1="217.806" x2="825.03" y2="33.1657" gradientUnits="userSpaceOnUse">
            <stop stop-color="#A7A9FA" />
            <stop offset="0.255208" stop-color="#9A96F6" />
            <stop offset="0.5" stop-color="#8E84F3" />
            <stop offset="0.520833" stop-color="#8C83F3" />
            <stop offset="0.692708" stop-color="#8376F1" />
            <stop offset="1" stop-color="#7460ED" />
        </linearGradient>
        <linearGradient id="paint5_linear_0_1" x1="461.346" y1="217.806" x2="461.031" y2="33.1657" gradientUnits="userSpaceOnUse">
            <stop stop-color="#A7A9FA" />
            <stop offset="0.255208" stop-color="#9A96F6" />
            <stop offset="0.5" stop-color="#8E84F3" />
            <stop offset="0.520833" stop-color="#8C83F3" />
            <stop offset="0.692708" stop-color="#8376F1" />
            <stop offset="1" stop-color="#7460ED" />
        </linearGradient>
    </defs>
</svg>
    