<svg width="33" height="32" viewBox="0 0 33 32" fill="none" xmlns="http://www.w3.org/2000/svg">
    <path d="M24.5645 10.6666C26.7736 10.6666 28.5645 8.87577 28.5645 6.66663C28.5645 4.45749 26.7736 2.66663 24.5645 2.66663C22.3553 2.66663 20.5645 4.45749 20.5645 6.66663C20.5645 8.87577 22.3553 10.6666 24.5645 10.6666Z" fill="white" stroke="white" stroke-width="2" stroke-linecap="round" stroke-linejoin="round" />
    <path d="M8.56445 20C10.7736 20 12.5645 18.2091 12.5645 16C12.5645 13.7909 10.7736 12 8.56445 12C6.35531 12 4.56445 13.7909 4.56445 16C4.56445 18.2091 6.35531 20 8.56445 20Z" fill="white" stroke="white" stroke-width="2" stroke-linecap="round" stroke-linejoin="round" />
    <path d="M24.5645 29.3334C26.7736 29.3334 28.5645 27.5425 28.5645 25.3334C28.5645 23.1242 26.7736 21.3334 24.5645 21.3334C22.3553 21.3334 20.5645 23.1242 20.5645 25.3334C20.5645 27.5425 22.3553 29.3334 24.5645 29.3334Z" fill="white" stroke="white" stroke-width="2" stroke-linecap="round" stroke-linejoin="round" />
    <path d="M12.0176 18.0133L21.1242 23.32" stroke="white" stroke-width="2" stroke-linecap="round" stroke-linejoin="round" />
    <path d="M21.1109 8.68005L12.0176 13.9867" stroke="white" stroke-width="2" stroke-linecap="round" stroke-linejoin="round" />
</svg>
    