<svg width="34" height="34" viewBox="0 0 34 34" fill="none" xmlns="http://www.w3.org/2000/svg">
<path d="M17 0.5C7.903 0.5 0.5 7.903 0.5 17C0.5 26.097 7.903 33.5 17 33.5C26.097 33.5 33.5 26.097 33.5 17C33.5 7.903 26.097 0.5 17 0.5ZM17 3.25C24.6106 3.25 30.75 9.38938 30.75 17C30.7533 20.2917 29.573 23.4749 27.4243 25.9686C25.2757 28.4623 22.302 30.1003 19.046 30.5836V21.0095H22.962L23.5766 17.0316H19.046V14.8591C19.046 13.2091 19.5891 11.742 21.1333 11.742H23.6151V8.2715C23.1793 8.21238 22.2566 8.0845 20.5131 8.0845C16.8721 8.0845 14.7381 10.0068 14.7381 14.3875V17.0316H10.9954V21.0095H14.7381V30.5493C11.5272 30.0208 8.6087 28.3678 6.5042 25.8857C4.3997 23.4037 3.24627 20.2542 3.25 17C3.25 9.38938 9.38938 3.25 17 3.25Z" fill="url(#paint0_linear_406_3199)"/>
<defs>
<linearGradient id="paint0_linear_406_3199" x1="17" y1="0.5" x2="17" y2="33.5" gradientUnits="userSpaceOnUse">
<stop stop-color="#A7A9FA"/>
<stop offset="0.255208" stop-color="#9A96F6"/>
<stop offset="0.5" stop-color="#8E84F3"/>
<stop offset="0.520833" stop-color="#8C83F3"/>
<stop offset="0.692708" stop-color="#8376F1"/>
<stop offset="1" stop-color="#7460ED"/>
</linearGradient>
</defs>
</svg>
