<svg width="34" height="34" viewBox="0 0 34 34" fill="none" xmlns="http://www.w3.org/2000/svg">
<path fill-rule="evenodd" clip-rule="evenodd" d="M10.5767 1.51147C12.2385 1.43497 12.7683 1.41797 17.0013 1.41797C21.2343 1.41797 21.7641 1.43639 23.4245 1.51147C25.0848 1.58655 26.2181 1.85147 27.2098 2.23539C28.2482 2.6278 29.1903 3.24122 29.9695 4.03455C30.7628 4.8123 31.3748 5.75297 31.7658 6.7928C32.1511 7.78447 32.4146 8.9178 32.4911 10.5753C32.5676 12.2399 32.5846 12.7697 32.5846 17.0013C32.5846 21.2343 32.5662 21.7641 32.4911 23.4259C32.4161 25.0834 32.1511 26.2167 31.7658 27.2084C31.3748 28.2484 30.7618 29.1906 29.9695 29.9695C29.1903 30.7628 28.2482 31.3748 27.2098 31.7658C26.2181 32.1511 25.0848 32.4146 23.4273 32.4911C21.7641 32.5676 21.2343 32.5846 17.0013 32.5846C12.7683 32.5846 12.2385 32.5662 10.5767 32.4911C8.91922 32.4161 7.78589 32.1511 6.79422 31.7658C5.75427 31.3748 4.81205 30.7617 4.03314 29.9695C3.24034 29.1912 2.62683 28.2495 2.23539 27.2098C1.85147 26.2181 1.58797 25.0848 1.51147 23.4273C1.43497 21.7627 1.41797 21.2329 1.41797 17.0013C1.41797 12.7683 1.43639 12.2385 1.51147 10.5781C1.58655 8.9178 1.85147 7.78447 2.23539 6.7928C2.62741 5.75308 3.24139 4.81133 4.03455 4.03314C4.81236 3.24051 5.75364 2.62701 6.7928 2.23539C7.78447 1.85147 8.9178 1.58797 10.5753 1.51147H10.5767ZM23.2984 4.31647C21.6551 4.24139 21.1621 4.2258 17.0013 4.2258C12.8406 4.2258 12.3476 4.24139 10.7042 4.31647C9.18413 4.38589 8.35964 4.63947 7.80997 4.85339C7.08322 5.13672 6.5633 5.47247 6.01789 6.01789C5.50087 6.52087 5.10297 7.1332 4.85339 7.80997C4.63947 8.35964 4.38589 9.18413 4.31647 10.7042C4.24139 12.3476 4.2258 12.8406 4.2258 17.0013C4.2258 21.1621 4.24139 21.6551 4.31647 23.2984C4.38589 24.8185 4.63947 25.643 4.85339 26.1926C5.10272 26.8684 5.5008 27.4818 6.01789 27.9847C6.5208 28.5018 7.13422 28.8999 7.80997 29.1492C8.35964 29.3631 9.18413 29.6167 10.7042 29.6861C12.3476 29.7612 12.8391 29.7768 17.0013 29.7768C21.1635 29.7768 21.6551 29.7612 23.2984 29.6861C24.8185 29.6167 25.643 29.3631 26.1926 29.1492C26.9194 28.8659 27.4393 28.5301 27.9847 27.9847C28.5018 27.4818 28.8999 26.8684 29.1492 26.1926C29.3631 25.643 29.6167 24.8185 29.6861 23.2984C29.7612 21.6551 29.7768 21.1621 29.7768 17.0013C29.7768 12.8406 29.7612 12.3476 29.6861 10.7042C29.6167 9.18413 29.3631 8.35964 29.1492 7.80997C28.8659 7.08322 28.5301 6.5633 27.9847 6.01789C27.4817 5.5009 26.8694 5.10302 26.1926 4.85339C25.643 4.63947 24.8185 4.38589 23.2984 4.31647ZM15.0109 21.8052C16.1225 22.2679 17.3603 22.3304 18.5128 21.9819C19.6653 21.6334 20.6611 20.8956 21.3301 19.8945C21.9991 18.8934 22.2997 17.691 22.1807 16.4929C22.0617 15.2947 21.5304 14.175 20.6776 13.3251C20.1339 12.7817 19.4765 12.3657 18.7528 12.1069C18.029 11.8482 17.2569 11.7531 16.492 11.8285C15.7271 11.904 14.9884 12.1481 14.3292 12.5432C13.6699 12.9384 13.1065 13.4749 12.6795 14.1139C12.2524 14.753 11.9724 15.4788 11.8595 16.2391C11.7467 16.9994 11.8038 17.7752 12.0267 18.5108C12.2497 19.2463 12.633 19.9233 13.149 20.493C13.665 21.0626 14.3009 21.5108 15.0109 21.8052ZM11.3375 11.3375C12.0813 10.5937 12.9643 10.0037 13.9361 9.60115C14.9079 9.19861 15.9494 8.99143 17.0013 8.99143C18.0532 8.99143 19.0947 9.19861 20.0665 9.60115C21.0383 10.0037 21.9214 10.5937 22.6651 11.3375C23.4089 12.0813 23.9989 12.9643 24.4015 13.9361C24.804 14.9079 25.0112 15.9494 25.0112 17.0013C25.0112 18.0532 24.804 19.0947 24.4015 20.0665C23.9989 21.0383 23.4089 21.9214 22.6651 22.6651C21.163 24.1673 19.1257 25.0112 17.0013 25.0112C14.877 25.0112 12.8396 24.1673 11.3375 22.6651C9.83533 21.163 8.99143 19.1257 8.99143 17.0013C8.99143 14.877 9.83533 12.8396 11.3375 11.3375ZM26.7876 10.1843C26.972 10.0104 27.1195 9.80135 27.2216 9.56943C27.3236 9.33751 27.3781 9.08747 27.3818 8.83412C27.3855 8.58076 27.3383 8.32924 27.2431 8.09445C27.1478 7.85965 27.0064 7.64636 26.8272 7.46719C26.6481 7.28802 26.4348 7.14663 26.2 7.05137C25.9652 6.95611 25.7137 6.90893 25.4603 6.91263C25.207 6.91632 24.9569 6.97081 24.725 7.07287C24.4931 7.17493 24.284 7.32249 24.1101 7.5068C23.772 7.86526 23.5869 8.34139 23.594 8.83412C23.6012 9.32685 23.8002 9.79738 24.1486 10.1458C24.4971 10.4943 24.9676 10.6932 25.4603 10.7004C25.953 10.7076 26.4292 10.5224 26.7876 10.1843Z" fill="url(#paint0_linear_406_3204)"/>
<defs>
<linearGradient id="paint0_linear_406_3204" x1="17.0013" y1="1.41797" x2="17.0013" y2="32.5846" gradientUnits="userSpaceOnUse">
<stop stop-color="#A7A9FA"/>
<stop offset="0.255208" stop-color="#9A96F6"/>
<stop offset="0.5" stop-color="#8E84F3"/>
<stop offset="0.520833" stop-color="#8C83F3"/>
<stop offset="0.692708" stop-color="#8376F1"/>
<stop offset="1" stop-color="#7460ED"/>
</linearGradient>
</defs>
</svg>
