<svg width="81" height="81" viewBox="0 0 81 81" fill="none" xmlns="http://www.w3.org/2000/svg">
    <path d="M70.875 44.6917V67.5H74.25V74.25H6.75V67.5H10.125V44.6917C8.04725 43.3049 6.34403 41.4266 5.16652 39.2235C3.989 37.0203 3.37362 34.5606 3.375 32.0625C3.375 29.2714 4.131 26.5815 5.51138 24.2899L14.6644 8.4375C14.9606 7.92445 15.3866 7.4984 15.8997 7.20219C16.4127 6.90597 16.9947 6.75002 17.5871 6.75H63.4163C64.0087 6.75002 64.5907 6.90597 65.1037 7.20219C65.6168 7.4984 66.0428 7.92445 66.339 8.4375L75.4582 24.2393C77.4717 27.5834 78.1188 31.5749 77.2653 35.384C76.4117 39.193 74.123 42.5266 70.875 44.6917V44.6917ZM64.125 47.1555C61.8045 47.4158 59.4552 47.1371 57.26 46.341C55.0648 45.5448 53.0829 44.2528 51.4688 42.5655C50.052 44.0474 48.3496 45.2268 46.4643 46.0325C44.5791 46.8382 42.5502 47.2535 40.5 47.2534C38.4503 47.2544 36.4217 46.8401 34.5365 46.0356C32.6513 45.231 30.9486 44.0529 29.5313 42.5723C27.9167 44.259 25.9348 45.5503 23.7396 46.3459C21.5444 47.1414 19.1953 47.4196 16.875 47.1589V67.5H64.125V47.1589V47.1555ZM19.5379 13.5L11.3265 27.7189C10.5286 29.6904 10.5046 31.8905 11.2594 33.8789C12.0143 35.8673 13.4922 37.4972 15.3974 38.4426C17.3026 39.3879 19.4945 39.5789 21.5345 38.9773C23.5744 38.3756 25.3119 37.0258 26.3993 35.1979C27.5299 32.373 31.5293 32.373 32.6633 35.1979C33.2886 36.7653 34.3697 38.1091 35.7667 39.0558C37.1637 40.0026 38.8124 40.5086 40.5 40.5086C42.1876 40.5086 43.8364 40.0026 45.2334 39.0558C46.6304 38.1091 47.7114 36.7653 48.3368 35.1979C49.4674 32.373 53.4668 32.373 54.6008 35.1979C55.0387 36.276 55.695 37.2519 56.5283 38.0642C57.3617 38.8765 58.354 39.5076 59.443 39.9179C60.532 40.3282 61.694 40.5088 62.8562 40.4483C64.0183 40.3878 65.1554 40.0876 66.1959 39.5666C67.2364 39.0455 68.1579 38.3148 68.9025 37.4204C69.647 36.526 70.1985 35.4873 70.5222 34.3696C70.846 33.2518 70.935 32.0791 70.7837 30.9253C70.6324 29.7715 70.2441 28.6614 69.6431 27.6649L61.4587 13.5H19.5413H19.5379Z" fill="url(#paint0_linear_406_3107)" />
    <defs>
        <linearGradient id="paint0_linear_406_3107" x1="40.5038" y1="6.75" x2="40.5038" y2="74.25" gradientUnits="userSpaceOnUse">
            <stop stop-color="#A7A9FA" />
            <stop offset="0.255208" stop-color="#9A96F6" />
            <stop offset="0.5" stop-color="#8E84F3" />
            <stop offset="0.520833" stop-color="#8C83F3" />
            <stop offset="0.692708" stop-color="#8376F1" />
            <stop offset="1" stop-color="#7460ED" />
        </linearGradient>
    </defs>
</svg>
    