<svg width="81" height="81" viewBox="0 0 81 81" fill="none" xmlns="http://www.w3.org/2000/svg">
    <path d="M40.5 47.25V54C35.1294 54 29.9787 56.1335 26.1811 59.9311C22.3835 63.7287 20.25 68.8794 20.25 74.25H13.5C13.5 67.0892 16.3446 60.2216 21.4081 55.1581C26.4716 50.0946 33.3392 47.25 40.5 47.25V47.25ZM40.5 43.875C29.3119 43.875 20.25 34.8131 20.25 23.625C20.25 12.4369 29.3119 3.375 40.5 3.375C51.6881 3.375 60.75 12.4369 60.75 23.625C60.75 34.8131 51.6881 43.875 40.5 43.875ZM40.5 37.125C47.9588 37.125 54 31.0838 54 23.625C54 16.1662 47.9588 10.125 40.5 10.125C33.0412 10.125 27 16.1662 27 23.625C27 31.0838 33.0412 37.125 40.5 37.125ZM49.2581 63.4905C48.8302 61.6897 48.8302 59.8137 49.2581 58.0129L45.9101 56.079L49.2851 50.2335L52.6331 52.1674C53.9769 50.8946 55.6013 49.9558 57.375 49.4269V45.5625H64.125V49.4269C65.9205 49.9601 67.5405 50.9119 68.8669 52.1674L72.2149 50.2335L75.5899 56.079L72.2419 58.0129C72.6693 59.8126 72.6693 61.6874 72.2419 63.4871L75.5899 65.421L72.2149 71.2665L68.8669 69.3326C67.5231 70.6054 65.8987 71.5442 64.125 72.0731V75.9375H57.375V72.0731C55.6013 71.5442 53.9769 70.6054 52.6331 69.3326L49.2851 71.2665L45.9101 65.421L49.2581 63.4905V63.4905ZM60.75 65.8125C62.0927 65.8125 63.3803 65.2791 64.3297 64.3297C65.2791 63.3803 65.8125 62.0927 65.8125 60.75C65.8125 59.4073 65.2791 58.1197 64.3297 57.1703C63.3803 56.2209 62.0927 55.6875 60.75 55.6875C59.4073 55.6875 58.1197 56.2209 57.1703 57.1703C56.2209 58.1197 55.6875 59.4073 55.6875 60.75C55.6875 62.0927 56.2209 63.3803 57.1703 64.3297C58.1197 65.2791 59.4073 65.8125 60.75 65.8125Z" fill="url(#paint0_linear_406_3093)" />
    <defs>
        <linearGradient id="paint0_linear_406_3093" x1="44.5449" y1="3.375" x2="44.5449" y2="75.9375" gradientUnits="userSpaceOnUse">
            <stop stop-color="#A7A9FA" />
            <stop offset="0.255208" stop-color="#9A96F6" />
            <stop offset="0.5" stop-color="#8E84F3" />
            <stop offset="0.520833" stop-color="#8C83F3" />
            <stop offset="0.692708" stop-color="#8376F1" />
            <stop offset="1" stop-color="#7460ED" />
        </linearGradient>
    </defs>
</svg>
    