<svg width="22" height="22" viewBox="0 0 22 22" fill="none" xmlns="http://www.w3.org/2000/svg">
<path d="M21.8953 8.6921C21.9994 8.43123 22.0266 8.14417 21.9735 7.86724C21.9204 7.59032 21.7894 7.33597 21.597 7.13637L14.7221 0L12.7778 2.01816L17.3057 6.71818H0.000159296V9.57273H20.6249C20.8968 9.5728 21.1626 9.48917 21.3888 9.33242C21.6149 9.17567 21.7912 8.95284 21.8953 8.6921ZM0.104658 13.3079C0.000565481 13.5688 -0.026647 13.8558 0.0264643 14.1328C0.0795756 14.4097 0.210624 14.664 0.403029 14.8636L7.27793 22L9.22215 19.9818L4.69434 15.2818H21.9998V12.4273H1.37514C1.10317 12.427 0.837256 12.5106 0.61108 12.6673C0.384905 12.8241 0.208653 13.047 0.104658 13.3079Z" fill="white"/>
</svg>
