<svg width="49" height="48" viewBox="0 0 49 48" fill="none" xmlns="http://www.w3.org/2000/svg">
<path d="M39.7738 15.9941C39.7998 16.3441 39.7998 16.6921 39.7998 17.0401C39.7998 27.6901 31.6938 39.9621 16.8798 39.9621C12.3158 39.9621 8.07581 38.6401 4.50781 36.3441C5.15581 36.4181 5.77981 36.4441 6.45381 36.4441C10.0798 36.4528 13.6031 35.2404 16.4558 33.0021C14.7747 32.9717 13.145 32.417 11.7943 31.4156C10.4436 30.4141 9.43938 29.0159 8.92181 27.4161C9.41981 27.4901 9.91981 27.5401 10.4438 27.5401C11.1658 27.5401 11.8918 27.4401 12.5658 27.2661C10.7413 26.8977 9.10076 25.9088 7.92305 24.4675C6.74534 23.0261 6.1032 21.2214 6.10581 19.3601V19.2601C7.17981 19.8581 8.42581 20.2321 9.74581 20.2821C8.63999 19.5473 7.73325 18.5501 7.10649 17.3797C6.47973 16.2092 6.15244 14.9018 6.15381 13.5741C6.15381 12.0781 6.55181 10.7061 7.24981 9.51009C9.27409 12.0001 11.7988 14.0372 14.6605 15.4894C17.5222 16.9416 20.6569 17.7765 23.8618 17.9401C23.7378 17.3401 23.6618 16.7181 23.6618 16.0941C23.6613 15.036 23.8693 13.9882 24.274 13.0106C24.6786 12.0329 25.272 11.1446 26.0202 10.3965C26.7684 9.64829 27.6567 9.05491 28.6343 8.65024C29.6119 8.24558 30.6597 8.03756 31.7178 8.03809C34.0378 8.03809 36.1318 9.01009 37.6038 10.5821C39.4074 10.2333 41.1369 9.57493 42.7158 8.63609C42.1146 10.4977 40.8553 12.0763 39.1738 13.0761C40.7734 12.8936 42.3367 12.473 43.8118 11.8281C42.7101 13.4343 41.3449 14.8428 39.7738 15.9941Z" fill="white"/>
</svg>
