<svg width="29" height="31" viewBox="0 0 29 31" fill="none" xmlns="http://www.w3.org/2000/svg">
    <path d="M28.956 1.57755C28.9303 1.1147 28.6749 0.715213 28.3078 0.563506C27.9405 0.411786 27.5329 0.537336 27.2729 0.882198C26.6047 1.7687 25.7602 2.36944 24.9032 2.64334C23.7111 1.31496 22.1095 0.500044 20.3494 0.500044C16.5721 0.500044 13.5125 4.16034 13.5125 8.67181V9.68673C7.72943 9.15329 4.63686 3.90957 3.80237 1.24931C3.66748 0.81929 3.33184 0.52566 2.94771 0.501636C2.56355 0.477586 2.20403 0.727698 2.0322 1.13851C0.0085417 5.97703 -0.303258 10.6699 1.16753 14.6661C2.45595 18.1667 5.04705 20.9552 8.71946 22.8027C7.05044 24.2145 4.24132 25.8846 0.966739 25.8846C0.540889 25.8846 0.165202 26.2174 0.0416526 26.7038C-0.0818973 27.1903 0.0757971 27.7158 0.429957 27.998C3.56989 30.5007 6.8607 30.5002 9.92153 30.5H10.0152C19.4125 30.5 27.0279 21.3934 27.0279 10.1635V9.05974C27.7305 8.20732 28.2776 7.33476 28.6129 6.20669C28.9868 4.94798 29.0622 3.48846 28.956 1.57755Z" fill="url(#paint0_linear_257_3894)" />
    <defs>
        <linearGradient id="paint0_linear_257_3894" x1="14.5" y1="0.5" x2="14.5" y2="30.5" gradientUnits="userSpaceOnUse">
            <stop stop-color="#A7A9FA" />
            <stop offset="0.255208" stop-color="#9A96F6" />
            <stop offset="0.5" stop-color="#8E84F3" />
            <stop offset="0.520833" stop-color="#8C83F3" />
            <stop offset="0.692708" stop-color="#8376F1" />
            <stop offset="1" stop-color="#7460ED" />
        </linearGradient>
    </defs>
</svg>
    