<svg width="120" height="131" viewBox="0 0 120 131" fill="none" xmlns="http://www.w3.org/2000/svg">
<path d="M95 16.5834H25C19.4772 16.5834 15 21.4336 15 27.4167V103.25C15 109.233 19.4772 114.083 25 114.083H95C100.523 114.083 105 109.233 105 103.25V27.4167C105 21.4336 100.523 16.5834 95 16.5834Z" fill="#C4C4C4" fill-opacity="0.37"/>
<path d="M42.5 54.5001C46.6421 54.5001 50 50.8624 50 46.3751C50 41.8878 46.6421 38.2501 42.5 38.2501C38.3579 38.2501 35 41.8878 35 46.3751C35 50.8624 38.3579 54.5001 42.5 54.5001Z" stroke="white" stroke-width="2.5" stroke-linecap="round" stroke-linejoin="round"/>
<path d="M105 81.5835L80 54.5001L25 114.083" stroke="white" stroke-width="2.5" stroke-linecap="round" stroke-linejoin="round"/>
</svg>
