<svg width="16" height="15" viewBox="0 0 16 15" fill="none" xmlns="http://www.w3.org/2000/svg">
<path fill-rule="evenodd" clip-rule="evenodd" d="M4.50032 1.36402C5.1032 1.31591 5.67553 1.07884 6.13586 0.686567C7.21004 -0.228855 8.78994 -0.228855 9.86412 0.686567C10.3244 1.07884 10.8968 1.31591 11.4997 1.36402C12.9065 1.47629 14.0237 2.59346 14.1359 4.00032C14.1841 4.6032 14.4211 5.17553 14.8135 5.63586C15.7288 6.71004 15.7288 8.28994 14.8135 9.36412C14.4211 9.82444 14.1841 10.3968 14.1359 10.9997C14.0237 12.4065 12.9065 13.5237 11.4997 13.6359C10.8968 13.6841 10.3244 13.9211 9.86412 14.3135C8.78994 15.2288 7.21004 15.2288 6.13586 14.3135C5.67553 13.9211 5.1032 13.6841 4.50032 13.6359C3.09346 13.5237 1.97629 12.4065 1.86402 10.9997C1.81591 10.3968 1.57884 9.82444 1.18657 9.36412C0.271145 8.28994 0.271145 6.71004 1.18657 5.63586C1.57884 5.17553 1.81591 4.6032 1.86402 4.00032C1.97629 2.59346 3.09346 1.47629 4.50032 1.36402ZM11.4754 6.28791C11.8415 5.92179 11.8415 5.32821 11.4754 4.96208C11.1093 4.59597 10.5157 4.59597 10.1496 4.96208L7.0625 8.04919L5.85041 6.83708C5.48429 6.47097 4.8907 6.47097 4.52458 6.83708C4.15847 7.2032 4.15847 7.79681 4.52458 8.1629L6.39958 10.0379C6.7657 10.404 7.35929 10.404 7.72542 10.0379L11.4754 6.28791Z" fill="url(#paint0_linear_259_2246)"/>
<defs>
<linearGradient id="paint0_linear_259_2246" x1="8" y1="0" x2="8" y2="15" gradientUnits="userSpaceOnUse">
<stop stop-color="#A7A9FA"/>
<stop offset="0.255208" stop-color="#9A96F6"/>
<stop offset="0.5" stop-color="#8E84F3"/>
<stop offset="0.520833" stop-color="#8C83F3"/>
<stop offset="0.692708" stop-color="#8376F1"/>
<stop offset="1" stop-color="#7460ED"/>
</linearGradient>
</defs>
</svg>
