<svg width="38" height="38" viewBox="0 0 38 38" fill="none" xmlns="http://www.w3.org/2000/svg">
    <path d="M36.3651 8.83641C36.2 8.66982 36.0035 8.53771 35.7869 8.44776C35.5703 8.35782 35.3379 8.31184 35.1034 8.3125H33.8438V5.34375C33.8432 4.8715 33.6554 4.41874 33.3214 4.0848C32.9875 3.75087 32.5348 3.56303 32.0625 3.5625H6.42935C5.03913 3.56252 3.70586 4.11479 2.72282 5.09782C1.73979 6.08086 1.18752 7.41413 1.1875 8.80435V29.1957C1.18752 30.5859 1.73979 31.9191 2.72282 32.9022C3.70586 33.8852 5.03913 34.4375 6.42935 34.4375H35.0333C35.5044 34.4366 35.9561 34.2494 36.2898 33.9168C36.6234 33.5842 36.8121 33.1331 36.8145 32.662L36.8846 10.0998C36.886 9.86533 36.8409 9.63286 36.7517 9.41596C36.6625 9.19907 36.5311 9.00206 36.3651 8.83641ZM34.4414 32.0625H6.42935C5.66901 32.0625 4.93982 31.7605 4.40218 31.2228C3.86454 30.6852 3.5625 29.956 3.5625 29.1957V8.80435C3.5625 8.04401 3.86454 7.31482 4.40218 6.77718C4.93982 6.23954 5.66901 5.9375 6.42935 5.9375H31.4688V8.3125H6.53125V10.6875H34.5078L34.4414 32.0625Z" fill="white" />
    <path d="M31.4688 19.5938H29.0938V21.9688H31.4688V19.5938Z" fill="white" />
</svg>
    